<svg width="195" height="47" viewBox="0 0 195 47" fill="none" xmlns="http://www.w3.org/2000/svg">
<path d="M26.9985 0C29.7514 4.72916 32.5281 9.44442 35.2512 14.1915C30.8498 21.9555 26.5119 29.7574 21.9615 37.4361C20.2156 40.3836 18.5174 43.3589 16.7914 46.3164C11.1943 46.3502 5.59714 46.3482 0 46.3402C0.170814 45.9569 0.339642 45.5716 0.546207 45.2061C9.35901 30.1348 18.2056 15.0833 26.9985 0Z" fill="#AE285D"/>
<path d="M148.791 11.6255C151.885 17.3934 154.978 23.1594 158.068 28.9293C156.978 28.9512 155.888 28.8956 154.799 28.9333C154.068 27.6621 153.435 26.3373 152.72 25.0582C149.971 24.9768 147.22 25.0324 144.469 25.0264C143.805 26.3433 143.082 27.6264 142.379 28.9194C141.305 28.9095 140.23 28.9413 139.158 28.9313C142.324 23.1376 145.5 17.3478 148.791 11.6255ZM145.845 22.5596C147.72 22.5854 149.597 22.5814 151.474 22.5973C150.535 20.8494 149.689 19.0519 148.682 17.3418C147.716 19.0718 146.771 20.8097 145.845 22.5596Z" fill="#AE285D"/>
<path d="M159.872 11.5576C164.544 15.6174 169.215 19.6792 173.829 23.8066C173.956 20.0824 173.813 16.3583 173.926 12.6341C174.925 12.654 175.924 12.6699 176.924 12.6878C176.892 18.4239 176.908 24.1621 176.902 29.8983C173.833 27.346 170.885 24.6507 167.855 22.0508C166.168 20.6088 164.498 19.1509 162.887 17.6275C162.847 21.3993 162.905 25.1731 162.823 28.9449C161.83 28.9489 160.837 28.923 159.846 28.931C159.854 23.1392 159.804 17.3494 159.872 11.5576Z" fill="#AE285D"/>
<path d="M61.1355 28.9071C64.3631 23.1451 67.5073 17.3374 70.8083 11.6191C73.883 17.393 76.9755 23.159 80.0859 28.9131C78.9796 28.9389 77.8753 28.9369 76.7689 28.915C76.0976 27.626 75.4104 26.3449 74.7688 25.04C72.01 25.0042 69.2531 25.034 66.4943 25.034C65.7753 26.335 65.1258 27.6776 64.3492 28.9468C63.2766 28.917 62.2061 28.9389 61.1355 28.9071ZM67.835 22.5751C69.7199 22.5671 71.6068 22.5929 73.4937 22.587C72.5443 20.8491 71.7101 19.0495 70.6911 17.3494C69.7318 19.0893 68.7844 20.8312 67.835 22.5751Z" fill="#AE285D"/>
<path d="M107.067 13.1128C108.644 12.3362 110.491 12.2349 112.197 12.5785C113.675 12.8904 114.863 13.9411 115.764 15.105C114.964 15.5102 114.169 15.9213 113.383 16.3523C112.322 14.6939 109.798 14.1655 108.258 15.4586C107.442 16.0425 107.508 17.4805 108.429 17.9254C110.495 19.0635 113.007 19.3078 114.839 20.8829C116.706 22.4659 116.634 25.6299 114.904 27.2904C113.047 29.1733 110.106 29.5825 107.637 28.8774C105.569 28.355 104.014 26.4542 103.738 24.3647C104.737 24.1462 105.746 23.9655 106.757 23.8086C106.878 24.7878 107.249 25.8663 108.173 26.3589C109.635 27.1434 111.754 26.9468 112.763 25.5306C113.474 24.5673 113.264 23.0876 112.292 22.3825C110.262 21.0219 107.567 20.9385 105.746 19.2244C104.785 18.4061 104.385 17.0396 104.713 15.826C104.973 14.5886 105.984 13.6729 107.067 13.1128Z" fill="#AE285D"/>
<path d="M81.0513 12.7473C82.1854 12.5983 83.3315 12.65 84.4715 12.6619C85.6911 14.4773 86.9086 16.2927 88.1301 18.1061C89.4152 16.3145 90.6645 14.4971 91.9317 12.6937C93.1016 12.6559 94.2715 12.6361 95.4414 12.6718C93.5862 15.2519 91.7192 17.826 89.8601 20.4041C91.753 23.2742 93.8186 26.0311 95.6678 28.9309C94.5535 28.9369 93.4393 28.9269 92.325 28.917C90.9069 26.8772 89.4986 24.8294 88.0805 22.7896C86.6147 24.8373 85.1369 26.8752 83.689 28.9349C82.5608 28.9567 81.4307 28.9409 80.3025 28.9428C82.2649 26.0668 84.3305 23.2643 86.3704 20.4419C84.6165 17.8638 82.8289 15.3095 81.0513 12.7473Z" fill="#AE285D"/>
<path d="M98.1902 12.6762C99.1952 12.6464 100.198 12.6484 101.203 12.6702C101.209 18.0906 101.205 23.511 101.205 28.9313C100.184 28.9333 99.1654 28.9313 98.1445 28.9313C98.1823 23.5129 98.1644 18.0946 98.1902 12.6762Z" fill="#AE285D"/>
<path d="M127.515 12.6621C130.093 12.7733 132.873 12.3066 135.249 13.5698C137.565 14.8092 138.099 18.4857 135.964 20.1501C137.309 20.6804 138.61 21.6795 138.963 23.1513C139.529 24.9567 138.53 26.9549 136.951 27.8904C134.073 29.4714 130.683 28.7345 127.558 28.949C127.461 23.5207 127.523 18.0924 127.515 12.6621ZM130.506 15.0019C130.512 16.5511 130.508 18.0984 130.498 19.6456C131.618 19.5999 132.86 19.6675 133.815 18.9763C134.79 18.1083 134.754 16.3108 133.678 15.5381C132.736 14.9423 131.574 15.0098 130.506 15.0019ZM130.524 21.7728C130.512 23.3519 130.518 24.9329 130.548 26.5119C132.051 26.4325 133.67 26.7106 135.056 25.9657C136.286 25.3619 136.512 23.3876 135.37 22.5812C133.994 21.5127 132.147 21.8066 130.524 21.7728Z" fill="#AE285D"/>
<path d="M180.396 12.6619C181.397 12.6539 182.398 12.6579 183.401 12.6599C183.405 14.801 183.381 16.9441 183.426 19.0872C185.893 16.9163 188.408 14.801 190.889 12.6479C192.259 12.6559 193.63 12.6619 195 12.6579C192.041 15.085 189.105 17.538 186.197 20.0247C189.057 23.0438 192.021 25.9615 194.946 28.917C193.588 28.9031 192.227 29.0103 190.875 28.8534C188.547 26.4779 186.235 24.0885 183.929 21.6931C183.76 21.9156 183.593 22.1381 183.428 22.3605C183.369 24.5513 183.423 26.7401 183.385 28.9309C182.378 28.9249 181.371 28.9507 180.366 28.9448C180.374 23.5185 180.388 18.0902 180.396 12.6619Z" fill="#AE285D"/>
<path d="M27.0005 28.8319C32.6175 28.8299 38.2345 28.7901 43.8515 28.8835C47.1963 34.715 50.6483 40.483 53.9633 46.3304C48.3463 46.3582 42.7313 46.3363 37.1143 46.3323C33.7715 40.481 30.2797 34.719 27.0005 28.8319Z" fill="#AE285D"/>
</svg>
