<svg width="139" height="130" viewBox="0 0 139 130" fill="none" xmlns="http://www.w3.org/2000/svg">
<path d="M28.2765 97.9151C28.2765 101.638 31.2939 104.656 35.016 104.656H97.0555C100.778 104.656 103.795 101.638 103.795 97.9151L103.781 44.8847C103.781 41.1622 100.778 39.2652 97.0555 39.2652H35.016C31.2939 39.2652 28.2765 42.283 28.2765 46.0058V97.9151Z" fill="#97144D" fill-opacity="0.17"/>
<path d="M97.8414 39.2434H32.6262C30.1862 39.2434 28.2081 41.2214 28.2081 43.6615V46.314H102.26V43.6615C102.26 41.2214 100.282 39.2434 97.8414 39.2434Z" fill="#97144D" fill-opacity="0.17"/>
<path d="M39.7666 42.0795C39.7666 42.9091 39.0254 43.582 38.1107 43.582C37.1959 43.582 36.4543 42.9091 36.4543 42.0795C36.4543 41.2498 37.1959 40.5769 38.1107 40.5769C39.0254 40.5769 39.7666 41.2498 39.7666 42.0795Z" fill="#97144D" fill-opacity="0.68"/>
<path d="M46.5476 42.0795C46.5476 42.9091 45.8061 43.582 44.8913 43.582C43.9769 43.582 43.2354 42.9091 43.2354 42.0795C43.2354 41.2498 43.9769 40.5769 44.8913 40.5769C45.8061 40.5769 46.5476 41.2498 46.5476 42.0795Z" fill="#97144D" fill-opacity="0.68"/>
<path d="M53.3285 42.0795C53.3285 42.9091 52.5869 43.582 51.6722 43.582C50.7574 43.582 50.0159 42.9091 50.0159 42.0795C50.0159 41.2498 50.7574 40.5769 51.6722 40.5769C52.5869 40.5769 53.3285 41.2498 53.3285 42.0795Z" fill="#97144D" fill-opacity="0.68"/>
<path d="M60.1092 42.0795C60.1092 42.9091 59.3679 43.582 58.4532 43.582C57.5384 43.582 56.7969 42.9091 56.7969 42.0795C56.7969 41.2498 57.5384 40.5769 58.4532 40.5769C59.3679 40.5769 60.1092 41.2498 60.1092 42.0795Z" fill="#97144D" fill-opacity="0.68"/>
<path d="M66.89 42.0795C66.89 42.9091 66.1485 43.582 65.2337 43.582C64.3193 43.582 63.5778 42.9091 63.5778 42.0795C63.5778 41.2498 64.3193 40.5769 65.2337 40.5769C66.1485 40.5769 66.89 41.2498 66.89 42.0795Z" fill="#97144D" fill-opacity="0.68"/>
<path d="M73.6709 42.0795C73.6709 42.9091 72.9294 43.582 72.0146 43.582C71.0999 43.582 70.3586 42.9091 70.3586 42.0795C70.3586 41.2498 71.0999 40.5769 72.0146 40.5769C72.9294 40.5769 73.6709 41.2498 73.6709 42.0795Z" fill="#97144D" fill-opacity="0.68"/>
<path d="M80.4516 42.0795C80.4516 42.9091 79.7104 43.582 78.7956 43.582C77.8809 43.582 77.1393 42.9091 77.1393 42.0795C77.1393 41.2498 77.8809 40.5769 78.7956 40.5769C79.7104 40.5769 80.4516 41.2498 80.4516 42.0795Z" fill="#97144D" fill-opacity="0.68"/>
<path d="M87.2324 42.0795C87.2324 42.9091 86.4909 43.582 85.5765 43.582C84.6617 43.582 83.9202 42.9091 83.9202 42.0795C83.9202 41.2498 84.6617 40.5769 85.5765 40.5769C86.4909 40.5769 87.2324 41.2498 87.2324 42.0795Z" fill="#97144D" fill-opacity="0.68"/>
<path d="M94.0135 42.0795C94.0135 42.9091 93.2719 43.582 92.3571 43.582C91.4424 43.582 90.7012 42.9091 90.7012 42.0795C90.7012 41.2498 91.4424 40.5769 92.3571 40.5769C93.2719 40.5769 94.0135 41.2498 94.0135 42.0795Z" fill="#97144D" fill-opacity="0.68"/>
<path d="M38.9388 41.7966C38.9388 42.2116 38.5678 42.5479 38.1106 42.5479C37.6531 42.5479 37.2825 42.2116 37.2825 41.7966C37.2825 41.3819 37.6531 41.0453 38.1106 41.0453C38.5678 41.0453 38.9388 41.3819 38.9388 41.7966Z" fill="#97144D"/>
<path d="M45.7194 41.7966C45.7194 42.2116 45.3488 42.5479 44.8913 42.5479C44.4341 42.5479 44.0635 42.2116 44.0635 41.7966C44.0635 41.3819 44.4341 41.0453 44.8913 41.0453C45.3488 41.0453 45.7194 41.3819 45.7194 41.7966Z" fill="#97144D"/>
<path d="M52.5003 41.7966C52.5003 42.2116 52.1293 42.5479 51.6722 42.5479C51.215 42.5479 50.844 42.2116 50.844 41.7966C50.844 41.3819 51.215 41.0453 51.6722 41.0453C52.1293 41.0453 52.5003 41.3819 52.5003 41.7966Z" fill="#97144D"/>
<path d="M59.2813 41.7966C59.2813 42.2116 58.9104 42.5479 58.4532 42.5479C57.9956 42.5479 57.625 42.2116 57.625 41.7966C57.625 41.3819 57.9956 41.0453 58.4532 41.0453C58.9104 41.0453 59.2813 41.3819 59.2813 41.7966Z" fill="#97144D"/>
<path d="M66.0618 41.7966C66.0618 42.2116 65.6912 42.5479 65.2337 42.5479C64.7765 42.5479 64.4059 42.2116 64.4059 41.7966C64.4059 41.3819 64.7765 41.0453 65.2337 41.0453C65.6912 41.0453 66.0618 41.3819 66.0618 41.7966Z" fill="#97144D"/>
<path d="M72.8427 41.7966C72.8427 42.2116 72.4721 42.5479 72.0146 42.5479C71.5574 42.5479 71.1864 42.2116 71.1864 41.7966C71.1864 41.3819 71.5574 41.0453 72.0146 41.0453C72.4721 41.0453 72.8427 41.3819 72.8427 41.7966Z" fill="#97144D"/>
<path d="M79.6237 41.7966C79.6237 42.2116 79.2528 42.5479 78.7956 42.5479C78.338 42.5479 77.9674 42.2116 77.9674 41.7966C77.9674 41.3819 78.338 41.0453 78.7956 41.0453C79.2528 41.0453 79.6237 41.3819 79.6237 41.7966Z" fill="#97144D"/>
<path d="M86.4042 41.7966C86.4042 42.2116 86.0336 42.5479 85.5765 42.5479C85.1189 42.5479 84.7483 42.2116 84.7483 41.7966C84.7483 41.3819 85.1189 41.0453 85.5765 41.0453C86.0336 41.0453 86.4042 41.3819 86.4042 41.7966Z" fill="#97144D"/>
<path d="M93.1853 41.7966C93.1853 42.2116 92.8147 42.5479 92.3571 42.5479C91.8999 42.5479 91.5289 42.2116 91.5289 41.7966C91.5289 41.3819 91.8999 41.0453 92.3571 41.0453C92.8147 41.0453 93.1853 41.3819 93.1853 41.7966Z" fill="#97144D"/>
<path d="M44.8826 42.1509C44.5773 42.1509 44.3276 41.9012 44.3276 41.5959V36.9165C44.3276 36.6113 44.5773 36.3616 44.8826 36.3616C45.1879 36.3616 45.4376 36.6113 45.4376 36.9165V41.5959C45.4376 41.9012 45.1879 42.1509 44.8826 42.1509Z" fill="#97144D"/>
<path d="M38.1017 42.1509C37.7968 42.1509 37.5471 41.9012 37.5471 41.5959V36.9165C37.5471 36.6113 37.7968 36.3616 38.1017 36.3616C38.407 36.3616 38.6567 36.6113 38.6567 36.9165V41.5959C38.6567 41.9012 38.407 42.1509 38.1017 42.1509Z" fill="#97144D"/>
<path d="M51.6808 42.1509C51.3759 42.1509 51.1259 41.9012 51.1259 41.5959V36.9165C51.1259 36.6113 51.3759 36.3616 51.6808 36.3616C51.9861 36.3616 52.2358 36.6113 52.2358 36.9165V41.5959C52.2358 41.9012 51.9861 42.1509 51.6808 42.1509Z" fill="#97144D"/>
<path d="M58.4445 42.1509C58.1392 42.1509 57.8895 41.9012 57.8895 41.5959V36.9165C57.8895 36.6113 58.1392 36.3616 58.4445 36.3616C58.7494 36.3616 58.9995 36.6113 58.9995 36.9165V41.5959C58.9995 41.9012 58.7494 42.1509 58.4445 42.1509Z" fill="#97144D"/>
<path d="M65.2426 42.1509C64.9373 42.1509 64.6876 41.9012 64.6876 41.5959V36.9165C64.6876 36.6113 64.9373 36.3616 65.2426 36.3616C65.5479 36.3616 65.7976 36.6113 65.7976 36.9165V41.5959C65.7976 41.9012 65.5479 42.1509 65.2426 42.1509Z" fill="#97144D"/>
<path d="M71.9884 42.1509C71.6835 42.1509 71.4338 41.9012 71.4338 41.5959V36.9165C71.4338 36.6113 71.6835 36.3616 71.9884 36.3616C72.2937 36.3616 72.5434 36.6113 72.5434 36.9165V41.5959C72.5434 41.9012 72.2937 42.1509 71.9884 42.1509Z" fill="#97144D"/>
<path d="M78.7694 42.1509C78.4642 42.1509 78.2145 41.9012 78.2145 41.5959V36.9165C78.2145 36.6113 78.4642 36.3616 78.7694 36.3616C79.0747 36.3616 79.3244 36.6113 79.3244 36.9165V41.5959C79.3244 41.9012 79.0747 42.1509 78.7694 42.1509Z" fill="#97144D"/>
<path d="M85.5503 42.1509C85.245 42.1509 84.9954 41.9012 84.9954 41.5959V36.9165C84.9954 36.6113 85.245 36.3616 85.5503 36.3616C85.8556 36.3616 86.1053 36.6113 86.1053 36.9165V41.5959C86.1053 41.9012 85.8556 42.1509 85.5503 42.1509Z" fill="#97144D"/>
<path d="M92.3313 42.1509C92.026 42.1509 91.7764 41.9012 91.7764 41.5959V36.9165C91.7764 36.6113 92.026 36.3616 92.3313 36.3616C92.6363 36.3616 92.8863 36.6113 92.8863 36.9165V41.5959C92.8863 41.9012 92.6363 42.1509 92.3313 42.1509Z" fill="#97144D"/>
<path d="M38.0824 61.2236H34.4506C33.5224 61.2236 32.7633 60.4156 32.7633 59.4277V56.5935C32.7633 55.6056 33.5224 54.7976 34.4506 54.7976H38.0824C39.0102 54.7976 39.7693 55.6056 39.7693 56.5935V59.4277C39.7693 60.4156 39.0102 61.2236 38.0824 61.2236Z" fill="#97144D" fill-opacity="0.17"/>
<path d="M47.5493 61.2236H43.9175C42.9893 61.2236 42.2302 60.4156 42.2302 59.4277V56.5935C42.2302 55.6056 42.9893 54.7976 43.9175 54.7976H47.5493C48.4771 54.7976 49.2362 55.6056 49.2362 56.5935V59.4277C49.2362 60.4156 48.4771 61.2236 47.5493 61.2236Z" fill="#97144D" fill-opacity="0.17"/>
<path d="M57.0163 61.2236H53.3846C52.4568 61.2236 51.6973 60.4156 51.6973 59.4277V56.5935C51.6973 55.6056 52.4568 54.7976 53.3846 54.7976H57.0163C57.9441 54.7976 58.7033 55.6056 58.7033 56.5935V59.4277C58.7033 60.4156 57.9441 61.2236 57.0163 61.2236Z" fill="#97144D" fill-opacity="0.17"/>
<path d="M66.4832 61.2236H62.8515C61.9237 61.2236 61.1646 60.4156 61.1646 59.4277V56.5935C61.1646 55.6056 61.9237 54.7976 62.8515 54.7976H66.4832C67.411 54.7976 68.1705 55.6056 68.1705 56.5935V59.4277C68.1705 60.4156 67.411 61.2236 66.4832 61.2236Z" fill="#97144D" fill-opacity="0.68"/>
<path d="M75.9503 61.2236H72.3185C71.3907 61.2236 70.6316 60.4156 70.6316 59.4277V56.5935C70.6316 55.6056 71.3907 54.7976 72.3185 54.7976H75.9503C76.8785 54.7976 77.6376 55.6056 77.6376 56.5935V59.4277C77.6376 60.4156 76.8785 61.2236 75.9503 61.2236Z" fill="#97144D" fill-opacity="0.68"/>
<path d="M85.4172 61.2236H81.7854C80.8576 61.2236 80.0985 60.4156 80.0985 59.4277V56.5935C80.0985 55.6056 80.8576 54.7976 81.7854 54.7976H85.4172C86.3454 54.7976 87.1045 55.6056 87.1045 56.5935V59.4277C87.1045 60.4156 86.3454 61.2236 85.4172 61.2236Z" fill="#97144D" fill-opacity="0.68"/>
<path d="M94.8845 61.2236H91.2527C90.3245 61.2236 89.5654 60.4156 89.5654 59.4277V56.5935C89.5654 55.6056 90.3245 54.7976 91.2527 54.7976H94.8845C95.8123 54.7976 96.5714 55.6056 96.5714 56.5935V59.4277C96.5714 60.4156 95.8123 61.2236 94.8845 61.2236Z" fill="#97144D" fill-opacity="0.68"/>
<path d="M38.0824 70.334H34.4506C33.5224 70.334 32.7633 69.526 32.7633 68.5384V65.7043C32.7633 64.7164 33.5224 63.9083 34.4506 63.9083H38.0824C39.0102 63.9083 39.7693 64.7164 39.7693 65.7043V68.5384C39.7693 69.526 39.0102 70.334 38.0824 70.334Z" fill="#97144D" fill-opacity="0.68"/>
<path d="M47.5493 70.334H43.9175C42.9893 70.334 42.2302 69.526 42.2302 68.5384V65.7043C42.2302 64.7164 42.9893 63.9083 43.9175 63.9083H47.5493C48.4771 63.9083 49.2362 64.7164 49.2362 65.7043V68.5384C49.2362 69.526 48.4771 70.334 47.5493 70.334Z" fill="#97144D" fill-opacity="0.68"/>
<path d="M57.0163 70.334H53.3846C52.4568 70.334 51.6973 69.526 51.6973 68.5384V65.7043C51.6973 64.7164 52.4568 63.9083 53.3846 63.9083H57.0163C57.9441 63.9083 58.7033 64.7164 58.7033 65.7043V68.5384C58.7033 69.526 57.9441 70.334 57.0163 70.334Z" fill="#97144D" fill-opacity="0.68"/>
<path d="M66.4832 70.334H62.8515C61.9237 70.334 61.1646 69.526 61.1646 68.5384V65.7043C61.1646 64.7164 61.9237 63.9083 62.8515 63.9083H66.4832C67.411 63.9083 68.1705 64.7164 68.1705 65.7043V68.5384C68.1705 69.526 67.411 70.334 66.4832 70.334Z" fill="#97144D" fill-opacity="0.68"/>
<path d="M75.9503 70.334H72.3185C71.3907 70.334 70.6316 69.526 70.6316 68.5384V65.7043C70.6316 64.7164 71.3907 63.9083 72.3185 63.9083H75.9503C76.8785 63.9083 77.6376 64.7164 77.6376 65.7043V68.5384C77.6376 69.526 76.8785 70.334 75.9503 70.334Z" fill="#97144D" fill-opacity="0.68"/>
<path d="M85.4172 70.334H81.7854C80.8576 70.334 80.0985 69.526 80.0985 68.5384V65.7043C80.0985 64.7164 80.8576 63.9083 81.7854 63.9083H85.4172C86.3454 63.9083 87.1045 64.7164 87.1045 65.7043V68.5384C87.1045 69.526 86.3454 70.334 85.4172 70.334Z" fill="#97144D" fill-opacity="0.68"/>
<path d="M94.8845 70.334H91.2527C90.3245 70.334 89.5654 69.526 89.5654 68.5384V65.7043C89.5654 64.7164 90.3245 63.9083 91.2527 63.9083H94.8845C95.8123 63.9083 96.5714 64.7164 96.5714 65.7043V68.5384C96.5714 69.526 95.8123 70.334 94.8845 70.334Z" fill="#97144D" fill-opacity="0.68"/>
<path d="M38.0824 79.4443H34.4506C33.5224 79.4443 32.7633 78.6363 32.7633 77.6488V74.8142C32.7633 73.8267 33.5224 73.0187 34.4506 73.0187H38.0824C39.0102 73.0187 39.7693 73.8267 39.7693 74.8142V77.6488C39.7693 78.6363 39.0102 79.4443 38.0824 79.4443Z" fill="#97144D" fill-opacity="0.68"/>
<path d="M47.5493 79.4443H43.9175C42.9893 79.4443 42.2302 78.6363 42.2302 77.6488V74.8142C42.2302 73.8267 42.9893 73.0187 43.9175 73.0187H47.5493C48.4771 73.0187 49.2362 73.8267 49.2362 74.8142V77.6488C49.2362 78.6363 48.4771 79.4443 47.5493 79.4443Z" fill="#97144D" fill-opacity="0.68"/>
<path d="M57.0163 79.4443H53.3846C52.4568 79.4443 51.6973 78.6363 51.6973 77.6488V74.8142C51.6973 73.8267 52.4568 73.0187 53.3846 73.0187H57.0163C57.9441 73.0187 58.7033 73.8267 58.7033 74.8142V77.6488C58.7033 78.6363 57.9441 79.4443 57.0163 79.4443Z" fill="#97144D" fill-opacity="0.68"/>
<path d="M66.4832 79.4443H62.8515C61.9237 79.4443 61.1646 78.6363 61.1646 77.6488V74.8142C61.1646 73.8267 61.9237 73.0187 62.8515 73.0187H66.4832C67.411 73.0187 68.1705 73.8267 68.1705 74.8142V77.6488C68.1705 78.6363 67.411 79.4443 66.4832 79.4443Z" fill="#97144D" fill-opacity="0.68"/>
<path d="M75.9503 79.4443H72.3185C71.3907 79.4443 70.6316 78.6363 70.6316 77.6488V74.8142C70.6316 73.8267 71.3907 73.0187 72.3185 73.0187H75.9503C76.8785 73.0187 77.6376 73.8267 77.6376 74.8142V77.6488C77.6376 78.6363 76.8785 79.4443 75.9503 79.4443Z" fill="#97144D" fill-opacity="0.68"/>
<path d="M85.4172 79.4443H81.7854C80.8576 79.4443 80.0985 78.6363 80.0985 77.6488V74.8142C80.0985 73.8267 80.8576 73.0187 81.7854 73.0187H85.4172C86.3454 73.0187 87.1045 73.8267 87.1045 74.8142V77.6488C87.1045 78.6363 86.3454 79.4443 85.4172 79.4443Z" fill="#97144D" fill-opacity="0.68"/>
<path d="M94.8845 79.4443H91.2527C90.3245 79.4443 89.5654 78.6363 89.5654 77.6488V74.8142C89.5654 73.8267 90.3245 73.0187 91.2527 73.0187H94.8845C95.8123 73.0187 96.5714 73.8267 96.5714 74.8142V77.6488C96.5714 78.6363 95.8123 79.4443 94.8845 79.4443Z" fill="#97144D" fill-opacity="0.68"/>
<path d="M38.0824 88.5552H34.4506C33.5224 88.5552 32.7633 87.7472 32.7633 86.7596V83.9251C32.7633 82.9375 33.5224 82.1295 34.4506 82.1295H38.0824C39.0102 82.1295 39.7693 82.9375 39.7693 83.9251V86.7596C39.7693 87.7472 39.0102 88.5552 38.0824 88.5552Z" fill="#97144D" fill-opacity="0.68"/>
<path d="M47.5493 88.5552H43.9175C42.9893 88.5552 42.2302 87.7472 42.2302 86.7596V83.9251C42.2302 82.9375 42.9893 82.1295 43.9175 82.1295H47.5493C48.4771 82.1295 49.2362 82.9375 49.2362 83.9251V86.7596C49.2362 87.7472 48.4771 88.5552 47.5493 88.5552Z" fill="#97144D" fill-opacity="0.68"/>
<path d="M57.0163 88.5552H53.3846C52.4568 88.5552 51.6973 87.7472 51.6973 86.7596V83.9251C51.6973 82.9375 52.4568 82.1295 53.3846 82.1295H57.0163C57.9441 82.1295 58.7033 82.9375 58.7033 83.9251V86.7596C58.7033 87.7472 57.9441 88.5552 57.0163 88.5552Z" fill="#97144D" fill-opacity="0.68"/>
<path d="M66.4832 88.5552H62.8515C61.9237 88.5552 61.1646 87.7472 61.1646 86.7596V83.9251C61.1646 82.9375 61.9237 82.1295 62.8515 82.1295H66.4832C67.411 82.1295 68.1705 82.9375 68.1705 83.9251V86.7596C68.1705 87.7472 67.411 88.5552 66.4832 88.5552Z" fill="#97144D" fill-opacity="0.68"/>
<path d="M75.9503 88.5552H72.3185C71.3907 88.5552 70.6316 87.7472 70.6316 86.7596V83.9251C70.6316 82.9375 71.3907 82.1295 72.3185 82.1295H75.9503C76.8785 82.1295 77.6376 82.9375 77.6376 83.9251V86.7596C77.6376 87.7472 76.8785 88.5552 75.9503 88.5552Z" fill="#97144D" fill-opacity="0.68"/>
<path d="M85.4172 88.5552H81.7854C80.8576 88.5552 80.0985 87.7472 80.0985 86.7596V83.9251C80.0985 82.9375 80.8576 82.1295 81.7854 82.1295H85.4172C86.3454 82.1295 87.1045 82.9375 87.1045 83.9251V86.7596C87.1045 87.7472 86.3454 88.5552 85.4172 88.5552Z" fill="#97144D" fill-opacity="0.68"/>
<path d="M94.8845 88.5552H91.2527C90.3245 88.5552 89.5654 87.7472 89.5654 86.7596V83.9251C89.5654 82.9375 90.3245 82.1295 91.2527 82.1295H94.8845C95.8123 82.1295 96.5714 82.9375 96.5714 83.9251V86.7596C96.5714 87.7472 95.8123 88.5552 94.8845 88.5552Z" fill="#97144D" fill-opacity="0.68"/>
<path d="M38.0824 97.6655H34.4506C33.5224 97.6655 32.7633 96.8575 32.7633 95.87V93.0354C32.7633 92.0479 33.5224 91.2399 34.4506 91.2399H38.0824C39.0102 91.2399 39.7693 92.0479 39.7693 93.0354V95.87C39.7693 96.8575 39.0102 97.6655 38.0824 97.6655Z" fill="#97144D" fill-opacity="0.68"/>
<path d="M47.5493 97.6655H43.9175C42.9893 97.6655 42.2302 96.8575 42.2302 95.87V93.0354C42.2302 92.0479 42.9893 91.2399 43.9175 91.2399H47.5493C48.4771 91.2399 49.2362 92.0479 49.2362 93.0354V95.87C49.2362 96.8575 48.4771 97.6655 47.5493 97.6655Z" fill="#97144D" fill-opacity="0.68"/>
<path d="M57.0163 97.6655H53.3846C52.4568 97.6655 51.6973 96.8575 51.6973 95.87V93.0354C51.6973 92.0479 52.4568 91.2399 53.3846 91.2399H57.0163C57.9441 91.2399 58.7033 92.0479 58.7033 93.0354V95.87C58.7033 96.8575 57.9441 97.6655 57.0163 97.6655Z" fill="#97144D" fill-opacity="0.68"/>
<path d="M66.4832 97.6655H62.8515C61.9237 97.6655 61.1646 96.8575 61.1646 95.87V93.0354C61.1646 92.0479 61.9237 91.2399 62.8515 91.2399H66.4832C67.411 91.2399 68.1705 92.0479 68.1705 93.0354V95.87C68.1705 96.8575 67.411 97.6655 66.4832 97.6655Z" fill="#97144D" fill-opacity="0.68"/>
<path d="M75.9503 97.6655H72.3185C71.3907 97.6655 70.6316 96.8575 70.6316 95.87V93.0354C70.6316 92.0479 71.3907 91.2399 72.3185 91.2399H75.9503C76.8785 91.2399 77.6376 92.0479 77.6376 93.0354V95.87C77.6376 96.8575 76.8785 97.6655 75.9503 97.6655Z" fill="#97144D" fill-opacity="0.68"/>
<path d="M85.4172 97.6655H81.7854C80.8576 97.6655 80.0985 96.8575 80.0985 95.87V93.0354C80.0985 92.0479 80.8576 91.2399 81.7854 91.2399H85.4172C86.3454 91.2399 87.1045 92.0479 87.1045 93.0354V95.87C87.1045 96.8575 86.3454 97.6655 85.4172 97.6655Z" fill="#97144D" fill-opacity="0.17"/>
<path d="M94.8845 97.6655H91.2527C90.3245 97.6655 89.5654 96.8575 89.5654 95.87V93.0354C89.5654 92.0479 90.3245 91.2399 91.2527 91.2399H94.8845C95.8123 91.2399 96.5714 92.0479 96.5714 93.0354V95.87C96.5714 96.8575 95.8123 97.6655 94.8845 97.6655Z" fill="#97144D" fill-opacity="0.17"/>
<path fill-rule="evenodd" clip-rule="evenodd" d="M90.8162 50.7629C90.7959 50.7562 90.8229 50.7069 90.835 50.7111C90.8553 50.7178 90.8286 50.7671 90.8162 50.7629Z" fill="white"/>
<path fill-rule="evenodd" clip-rule="evenodd" d="M81.2868 56.1555C81.2935 56.1312 81.3611 56.1969 81.4014 56.244C81.4394 56.2925 81.4525 56.3201 81.351 56.2223C81.3409 56.2126 81.2831 56.1693 81.2868 56.1555ZM85.5761 56.8773C85.5549 56.8751 85.5631 56.8221 85.5754 56.8232C85.5967 56.825 85.5885 56.8784 85.5761 56.8773ZM83.2842 58.6135C83.2954 58.6012 83.2663 58.6325 83.2842 58.6135ZM83.1495 58.2757C83.1656 58.256 83.207 58.3392 83.2249 58.3974C83.2428 58.4553 83.2432 58.4859 83.1857 58.3597C83.1797 58.3474 83.1402 58.2869 83.1495 58.2757ZM84.0161 58.4937C83.9933 58.4937 84.0004 58.4209 84.0232 58.4213C84.0456 58.4213 84.0389 58.4941 84.0161 58.4937ZM84.299 58.0455C84.2994 58.0402 84.3139 57.9402 84.3535 57.9749C84.3979 58.0145 84.2859 58.1563 84.299 58.0455ZM84.58 57.6207C84.5882 57.598 84.5916 57.5827 84.648 57.5327C84.6808 57.5024 84.9111 57.3155 84.7487 57.4659C84.6931 57.514 84.5155 57.8014 84.58 57.6207ZM83.6813 58.8363C83.6242 58.8363 83.8579 58.5291 83.7847 58.6919C83.7855 58.6904 83.7687 58.7266 83.747 58.7632C83.7258 58.7994 83.6996 58.8363 83.6813 58.8363ZM83.3216 58.4183C83.3257 58.4202 83.4044 58.447 83.3809 58.4743C83.3559 58.5026 83.2316 58.372 83.3216 58.4183ZM84.4405 57.7424C84.4405 57.7424 84.4528 57.6334 84.4774 57.6345C84.4778 57.6345 84.4815 57.6416 84.4849 57.6521C84.4886 57.6625 84.492 57.6764 84.4931 57.6898C84.4946 57.7174 84.4849 57.7443 84.4405 57.7424ZM84.3587 57.8484C84.3882 57.8495 84.3401 57.8477 84.3587 57.8484ZM83.8952 58.4743C83.9243 58.4747 83.8765 58.4743 83.8952 58.4743ZM85.7288 56.0062C85.7075 56.004 85.7183 55.9506 85.7307 55.9521C85.7519 55.9543 85.7411 56.0077 85.7288 56.0062ZM85.98 55.6905C86.0094 55.6938 85.9613 55.6882 85.98 55.6905ZM85.8243 55.8539C85.8221 55.848 85.8016 55.7786 85.8419 55.783C85.8982 55.7901 85.8568 55.9443 85.8243 55.8539ZM83.5041 58.5821C83.5041 58.5821 83.5123 58.4724 83.5373 58.4724C83.5376 58.4724 83.5414 58.4791 83.5455 58.4896C83.5492 58.5 83.5533 58.5135 83.5548 58.5273C83.5574 58.5549 83.5485 58.5821 83.5041 58.5821ZM90.2884 51.9983C90.3167 52.0072 90.2701 51.9927 90.2884 51.9983ZM86.2797 55.1833C86.3091 55.1874 86.261 55.1807 86.2797 55.1833ZM85.0055 56.538C85.0055 56.538 85.026 56.4306 85.051 56.4328C85.0514 56.4328 85.0544 56.4399 85.0574 56.4503C85.06 56.4608 85.0626 56.4746 85.0626 56.4884C85.0622 56.5157 85.0503 56.5418 85.0055 56.538ZM84.2572 57.4427C84.1911 57.308 84.6913 56.8433 84.7693 56.7579C84.7846 56.7407 84.923 56.6071 84.9305 56.6228C84.957 56.6911 84.8264 56.7403 84.7849 56.7956C84.6931 56.9195 84.6282 56.9628 84.5114 57.1259C84.5229 57.1102 84.4677 57.2106 84.4046 57.3039C84.3438 57.3979 84.2777 57.4871 84.2572 57.4427ZM83.996 57.782C83.9303 57.7779 84.2382 57.5301 84.2158 57.4961C84.2501 57.5491 84.0855 57.7868 83.996 57.782ZM83.8448 57.9783C83.9217 57.8992 83.909 57.8995 83.8373 58.0522C83.7914 58.1511 83.46 58.5724 83.7015 58.1794C83.7015 58.1794 83.7713 58.0615 83.8448 57.9783ZM85.066 56.4156C85.0432 56.4138 85.0581 56.3421 85.0813 56.344C85.104 56.3458 85.0887 56.4179 85.066 56.4156ZM86.4271 54.8377C86.4043 54.8343 86.4252 54.7638 86.4476 54.7671C86.4704 54.7705 86.4498 54.841 86.4271 54.8377ZM89.1131 52.4614C89.1314 52.4461 89.9107 51.8456 89.5785 52.18C89.5042 52.2547 89.4109 52.3211 89.3113 52.3905C89.2616 52.4252 89.2105 52.461 89.1598 52.4984C89.1101 52.5376 89.0612 52.5786 89.0146 52.6234C88.3577 53.2269 87.6397 53.8248 87.0753 54.4312C86.9794 54.5361 86.8574 54.6615 86.7387 54.7847C86.6204 54.9078 86.5133 55.0347 86.4342 55.1325C86.3364 55.256 86.0934 55.4878 86.211 55.3008C86.3386 55.1004 86.4846 54.9034 86.651 54.716C86.8201 54.5305 87.0022 54.3491 87.1884 54.1692C87.3821 53.9957 87.5773 53.8207 87.7718 53.6467C87.9673 53.474 88.1659 53.3053 88.3484 53.1269C88.4663 53.0089 88.5992 52.9011 88.7283 52.7906C88.8582 52.6809 88.9881 52.5719 89.1131 52.4614ZM87.4624 53.7128C87.4415 53.7087 87.4583 53.6564 87.4706 53.6587C87.4919 53.6632 87.4747 53.715 87.4624 53.7128ZM86.3379 54.8246C86.3181 54.8485 86.3786 54.8675 86.3823 54.8313C86.3763 54.8907 86.2584 55.056 86.1942 55.1161C86.1125 55.193 86.1218 55.1045 86.0718 55.1355C85.9822 55.1919 85.943 55.2777 85.9001 55.3852C85.8568 55.4923 85.8042 55.617 85.678 55.7457C85.5967 55.8293 85.4728 55.9435 85.4272 56.0092C85.4033 56.0461 85.0208 56.4627 85.2018 56.2085C85.3709 55.9708 85.2399 56.1936 85.3373 56.0559C85.3709 56.0014 85.5497 55.7562 85.7452 55.4804C85.7949 55.4121 85.8441 55.3408 85.8956 55.2725C85.9479 55.2053 85.9997 55.1385 86.0486 55.0754C86.1468 54.9496 86.2352 54.8384 86.2976 54.7634C86.3379 54.7153 86.3838 54.6694 86.4334 54.6279C86.4834 54.5869 86.5357 54.5488 86.5853 54.5137C86.6846 54.4428 86.773 54.3831 86.8141 54.3309C86.8675 54.2629 86.7312 54.3249 86.8264 54.2222C86.9145 54.1293 86.9753 54.0689 87.1011 53.9752C87.4056 53.7457 87.0201 54.1622 86.9604 54.2454C86.9037 54.3734 86.7921 54.4652 86.6719 54.5514C86.6114 54.5943 86.5491 54.6361 86.4905 54.6798C86.4334 54.7242 86.3808 54.772 86.3379 54.8246ZM90.6407 51.3171C90.7657 51.2291 90.8926 51.085 91.1057 51.0361C91.3419 50.9824 90.9822 51.1451 90.9467 51.1731C90.878 51.2279 90.7963 51.2903 90.7093 51.3556C90.6216 51.4201 90.5283 51.4884 90.4399 51.5586C90.2604 51.6974 90.0842 51.8292 89.964 51.9169C89.9081 51.9557 89.7853 52.0345 89.7263 52.0341C89.6099 52.033 89.6696 51.9721 89.7681 51.9035C89.8689 51.8378 90.0096 51.7661 90.0495 51.7363C90.1159 51.6866 90.2025 51.6262 90.3029 51.5556C90.4029 51.4851 90.5171 51.4045 90.6407 51.3171ZM88.3387 52.8634C88.2924 52.8932 88.4462 52.6921 88.4581 52.8182C88.4585 52.8238 88.4174 52.8723 88.3704 52.9261C88.3249 52.9809 88.2741 53.041 88.2521 53.0675C88.1778 53.1541 88.0662 53.2817 87.9703 53.3381C87.9703 53.3381 87.6997 53.3933 87.718 53.4489C87.6852 53.3497 88.0237 53.1201 88.0834 53.066C88.198 52.9626 88.2181 52.9447 88.3387 52.8634ZM83.3387 58.4358C83.3066 58.4814 83.6015 57.7816 83.6015 57.7816C83.6015 57.7816 83.0879 56.9396 82.8744 56.6683C82.8263 56.6048 82.7632 56.5507 82.702 56.4974C82.6412 56.4444 82.5845 56.3914 82.5415 56.3332C82.5266 56.313 82.58 56.2865 82.5677 56.2589C82.5203 56.1488 82.284 55.9357 82.1284 55.7479C81.9354 55.5158 81.7507 55.2661 81.5413 55.2165C81.6272 55.2374 81.3902 55.2187 81.4342 55.2072C81.4577 55.1997 81.0606 55.4983 81.0629 55.5755C81.0647 55.7207 81.3047 55.6964 81.251 55.7946C81.2816 55.7412 81.105 55.6192 81.0356 55.7278C80.9826 55.8092 81.142 55.8734 81.1912 55.9655C81.2696 56.1089 81.2215 56.0297 81.0229 55.8935C80.9367 55.8375 80.852 55.7375 80.9293 55.8521C81.0636 56.0517 81.2327 56.145 81.2924 56.2089C81.432 56.3589 81.6044 56.5813 81.8821 56.9038C82.2273 57.2957 82.5893 57.8212 82.8442 58.2701C82.9547 58.4601 83.0252 58.6795 83.1006 58.8796L83.4656 59.8511L84.0165 59.0225C84.0587 58.9587 84.0964 58.8986 84.1292 58.8385C84.1938 58.7202 84.3516 58.6254 84.4031 58.5183C84.4151 58.4929 84.374 58.4302 84.3908 58.4093C84.4106 58.3855 84.4248 58.4552 84.505 58.3758C84.5565 58.3269 84.5509 58.2828 84.5673 58.2347C84.5214 58.3694 84.4502 58.35 84.4419 58.3381C84.3834 58.2492 84.8864 57.8208 84.9163 57.782C85.0671 57.5879 85.2369 57.2277 85.4578 57.0094C85.5161 56.9564 85.5672 56.9445 85.606 56.8978C85.6396 56.8579 85.625 56.7773 85.6493 56.7403C85.74 56.6015 85.9158 56.5571 86.0031 56.3977C86.0206 56.3682 85.9747 56.3089 86.0225 56.2208C86.0904 56.095 86.1864 55.9808 86.2905 55.8648C86.3435 55.8073 86.3972 55.7487 86.4521 55.6886C86.5084 55.63 86.5652 55.5692 86.6193 55.5046C86.6868 55.4255 86.7596 55.3408 86.8354 55.2519C86.9119 55.1642 86.9914 55.0717 87.0787 54.9825C87.2511 54.8026 87.4288 54.6141 87.6027 54.4368C87.7792 54.2633 87.9561 54.098 88.1315 53.936C88.3099 53.7774 88.4924 53.6262 88.6701 53.4717L88.8037 53.356L88.9403 53.2429C89.0314 53.1672 89.1217 53.0907 89.2116 53.0127C89.3005 52.9335 89.39 52.854 89.4803 52.7738C89.5722 52.6947 89.6632 52.6133 89.7535 52.5293C89.861 52.4297 89.9219 52.2845 90.0398 52.2017C90.4026 51.9647 90.7511 51.6635 91.1322 51.4272C91.2524 51.3507 91.38 51.2839 91.5047 51.2171C91.6312 51.1526 91.7536 51.0861 91.86 51.0044C91.8924 50.9794 91.8876 50.9223 91.9186 50.8924C91.9704 50.8424 92.0682 50.7816 92.1682 50.723C92.2698 50.6663 92.3743 50.6133 92.4355 50.5733C92.5112 50.5244 92.6195 50.5591 92.7079 50.4322C92.7885 50.3165 92.4175 50.5412 92.4773 50.5132C92.3791 50.5603 92.2806 50.6077 92.1813 50.6554C92.0835 50.7047 91.9884 50.7581 91.8921 50.8103C91.701 50.9171 91.5091 51.0234 91.327 51.1365C90.9665 51.3683 90.6213 51.6008 90.3339 51.8434C90.2208 51.9367 90.0842 52.0169 89.9424 52.102C89.8039 52.1901 89.6587 52.2812 89.524 52.3894C89.2885 52.5734 89.0642 52.7865 88.8366 52.9985C88.6048 53.2071 88.3894 53.4336 88.1625 53.6389C88.0091 53.7751 87.8722 53.9095 87.7337 54.033C87.5975 54.1581 87.4598 54.273 87.3318 54.3928C87.2049 54.513 87.0795 54.6317 86.9526 54.7518C86.8899 54.8127 86.8264 54.8731 86.7652 54.9373C86.7047 55.0019 86.6447 55.0683 86.5842 55.1366C86.4972 55.2363 86.339 55.4255 86.2073 55.5931C86.08 55.7636 85.9721 55.9077 85.9721 55.9077C85.9161 55.9816 85.84 56.0816 85.7605 56.1865C85.6818 56.2917 85.603 56.4037 85.5291 56.494C85.4593 56.5806 85.2847 56.7459 85.4101 56.519C85.534 56.2951 85.4284 56.5242 85.4993 56.4186C85.65 56.1861 85.8482 55.9222 86.0498 55.6528C86.1487 55.5166 86.258 55.3859 86.3648 55.2587C86.4711 55.131 86.5767 55.0079 86.6775 54.894C86.8537 54.7044 87.0507 54.5085 87.2526 54.3073C87.4586 54.1099 87.6785 53.914 87.8919 53.718C88.1125 53.5281 88.3308 53.3407 88.538 53.1627C88.7485 52.988 88.9504 52.8246 89.1269 52.6715C89.2434 52.5682 89.3665 52.4752 89.4863 52.3797C89.6065 52.2841 89.7267 52.189 89.848 52.0927C90.0939 51.9031 90.3481 51.7124 90.6127 51.4967C90.8153 51.3425 91.071 51.1917 91.355 51.0275C91.4998 50.9491 91.6517 50.8667 91.8073 50.7778C91.963 50.689 92.1216 50.5927 92.2873 50.4949C92.375 50.442 92.5482 50.3348 92.7314 50.2285C92.8225 50.174 92.9184 50.1236 93.008 50.0803C93.0972 50.0363 93.1789 49.9993 93.2435 49.9754C93.3084 49.9512 93.4644 49.8265 93.2032 49.9183C93.0501 49.9724 92.9165 50.0288 92.7938 50.0881C92.6732 50.1505 92.5627 50.2154 92.453 50.2822C92.3433 50.3494 92.2324 50.4173 92.1138 50.4901C91.9936 50.5614 91.8704 50.6424 91.7241 50.723C91.6136 50.7849 91.436 50.8846 91.3173 50.9409C91.1994 50.9984 91.1415 51.0137 91.2662 50.9003C91.4457 50.7443 91.286 50.8876 91.5767 50.726C91.701 50.6573 91.8286 50.5786 91.9585 50.4946C92.0899 50.4128 92.2253 50.3285 92.3608 50.2442C92.4963 50.1594 92.6307 50.0732 92.7654 49.9945C92.9016 49.918 93.0363 49.8463 93.1662 49.784C93.4547 49.6455 92.9005 49.8713 92.8206 49.9116C92.6605 49.9896 92.55 50.0419 92.4784 50.0848C92.5332 50.0504 92.4239 50.1535 92.4358 50.146C92.322 50.2199 91.8585 50.4588 91.6969 50.4998C91.6532 50.5095 91.4789 50.6039 91.6562 50.5621C91.9298 50.4987 91.5241 50.6409 91.4692 50.6674C91.3655 50.7166 91.271 50.7902 91.199 50.8189C91.0639 50.8745 90.9001 50.8835 90.787 50.9846C90.7504 51.0178 90.7433 51.1096 90.6933 51.1634C90.522 51.3407 90.1667 51.5157 89.9778 51.6575C89.8928 51.7217 89.6793 51.8941 89.6819 51.8508C89.6819 51.852 89.692 51.8434 89.7065 51.8299C89.7214 51.8169 89.7416 51.799 89.7618 51.7814C89.8017 51.7456 89.8405 51.709 89.8353 51.7083C89.7558 51.7008 89.7136 51.7389 89.674 51.7952C89.6356 51.8531 89.6005 51.9292 89.533 51.9975C89.4654 52.0658 89.3165 52.1726 89.2773 52.133C89.2777 52.1326 89.3311 52.0953 89.3352 52.0927C89.2452 52.1401 89.1657 52.2267 89.0515 52.333C89.009 52.3711 88.9791 52.4357 88.9444 52.4551C88.8989 52.4819 88.8004 52.4689 88.763 52.5025C88.7317 52.5305 88.7399 52.6503 88.6518 52.7174C88.6481 52.7204 88.5708 52.7413 88.5518 52.7484C88.2372 52.863 88.8784 52.3771 88.9254 52.3371C89.0974 52.1964 89.3247 52.0337 89.4983 51.893C89.5591 51.8449 89.6151 51.8005 89.6699 51.7609C89.7259 51.7225 89.7778 51.6863 89.8278 51.6519C89.9275 51.5832 90.0178 51.5205 90.1047 51.45C90.1346 51.4254 90.241 51.2794 90.2962 51.2421C90.3428 51.2097 90.5048 51.1574 90.5224 51.1447C90.6142 51.0801 90.6056 51.0133 90.7209 50.9432C90.8389 50.8723 90.9818 50.7958 91.1288 50.7226C91.2774 50.6506 91.4263 50.5771 91.5491 50.5032C91.6771 50.4252 91.7988 50.3513 91.9156 50.28C92.0339 50.2109 92.147 50.143 92.2563 50.0762C92.3653 50.0087 92.4713 49.9426 92.5762 49.8773C92.681 49.8116 92.7878 49.7508 92.893 49.6866C93.0061 49.6186 93.0554 49.5925 92.8949 49.6474C92.7762 49.6892 92.6489 49.7519 92.5355 49.8209C92.4231 49.8907 92.3209 49.9616 92.2462 50.0113C92.0309 50.1535 91.7734 50.2699 91.514 50.399C91.2527 50.5259 90.9769 50.6506 90.7343 50.8129C90.5948 50.9036 90.4697 51.0051 90.3484 51.1052C90.2268 51.2044 90.1159 51.3097 89.9943 51.3966C89.8103 51.5325 89.6345 51.6411 89.4833 51.7751C89.2814 51.9531 88.8787 52.1009 88.7623 52.2382C88.7656 52.2341 88.7899 52.3002 88.7373 52.3454C88.5649 52.4917 88.3939 52.6368 88.2241 52.7813C88.0588 52.9294 87.8949 53.0765 87.7322 53.2224C87.5669 53.3657 87.4135 53.5172 87.2582 53.6639C87.1045 53.8121 86.9481 53.955 86.8048 54.1062C86.6596 54.2555 86.5163 54.4033 86.3741 54.5492C86.2364 54.6977 86.1042 54.8481 85.9733 54.9952C85.9079 55.0694 85.8434 55.1426 85.7792 55.2157C85.7183 55.2908 85.6579 55.3658 85.5978 55.4397C85.4787 55.5886 85.3623 55.7356 85.25 55.8816C85.3582 55.9267 85.3018 55.7703 85.25 55.8816C84.7558 56.4903 83.9769 57.2718 83.3387 58.4358Z" fill="white"/>
<path fill-rule="evenodd" clip-rule="evenodd" d="M93.0676 49.6028C93.0128 49.5793 93.4117 49.4229 93.155 49.561C93.1426 49.5677 93.0833 49.6095 93.0676 49.6028Z" fill="white"/>
<path fill-rule="evenodd" clip-rule="evenodd" d="M93.3514 49.4668C93.3299 49.4578 93.3762 49.3969 93.3972 49.4063C93.4183 49.4157 93.3724 49.4762 93.3514 49.4668Z" fill="white"/>
<path fill-rule="evenodd" clip-rule="evenodd" d="M89.3621 51.8164C89.3621 51.8164 89.4109 51.7153 89.4354 51.7224C89.4357 51.7224 89.4369 51.7299 89.4369 51.7408C89.4369 51.7517 89.4361 51.7657 89.432 51.7788C89.4245 51.8055 89.4057 51.8288 89.3621 51.8164Z" fill="white"/>
<path fill-rule="evenodd" clip-rule="evenodd" d="M91.8418 50.3787C91.8203 50.3708 91.8609 50.3069 91.8831 50.3159C91.9045 50.3238 91.8632 50.3866 91.8418 50.3787Z" fill="white"/>
<path fill-rule="evenodd" clip-rule="evenodd" d="M92.3937 50.1286C92.4216 50.1398 92.3757 50.1214 92.3937 50.1286Z" fill="white"/>
<path fill-rule="evenodd" clip-rule="evenodd" d="M90.3467 51.3347C90.3956 51.2817 90.4355 51.1757 90.5657 51.1589C90.6131 51.1533 90.4989 51.253 90.4038 51.3269C90.3105 51.403 90.2336 51.4519 90.3467 51.3347Z" fill="white"/>
<path fill-rule="evenodd" clip-rule="evenodd" d="M93.5249 49.8024C93.5031 49.7926 93.564 49.7197 93.5918 49.7317C93.6132 49.7415 93.5523 49.8144 93.5249 49.8024Z" fill="white"/>
<path fill-rule="evenodd" clip-rule="evenodd" d="M86.6551 54.5247C86.631 54.5209 86.6652 54.4341 86.6953 54.439C86.719 54.4428 86.6848 54.5296 86.6551 54.5247Z" fill="white"/>
<path fill-rule="evenodd" clip-rule="evenodd" d="M86.9608 54.245C86.9165 54.3322 86.874 54.178 86.9608 54.245Z" fill="white"/>
<path fill-rule="evenodd" clip-rule="evenodd" d="M83.2559 57.1282C83.2659 57.1088 83.3156 57.1789 83.3439 57.23C83.3704 57.2819 83.3783 57.3129 83.3081 57.2147C83.2995 57.2032 83.2491 57.1405 83.2559 57.1282Z" fill="white"/>
<path fill-rule="evenodd" clip-rule="evenodd" d="M83.3954 57.3687C83.4048 57.3521 83.4582 57.3908 83.453 57.4002C83.4432 57.4168 83.3898 57.3781 83.3954 57.3687Z" fill="white"/>
<path fill-rule="evenodd" clip-rule="evenodd" d="M83.0208 56.8208C83.028 56.8053 83.0096 56.8445 83.0208 56.8208Z" fill="white"/>
<path fill-rule="evenodd" clip-rule="evenodd" d="M91.9417 50.959C91.9195 50.9503 91.974 50.8744 92.0022 50.8849C92.0244 50.8936 91.9699 50.9695 91.9417 50.959Z" fill="white"/>
<path fill-rule="evenodd" clip-rule="evenodd" d="M93.0412 50.4928C92.9856 50.4676 93.2889 50.3567 93.1044 50.4605C93.0957 50.4646 93.0514 50.4969 93.0412 50.4928Z" fill="white"/>
<path fill-rule="evenodd" clip-rule="evenodd" d="M91.008 51.7058C90.9877 51.6987 91.0129 51.6505 91.0249 51.6547C91.0452 51.6618 91.02 51.7099 91.008 51.7058Z" fill="white"/>
<path fill-rule="evenodd" clip-rule="evenodd" d="M91.2069 51.5857C91.2857 51.6133 91.3573 51.3729 91.4424 51.4028C91.4503 51.4058 91.2696 51.6073 91.2069 51.5857Z" fill="white"/>
<path fill-rule="evenodd" clip-rule="evenodd" d="M90.0104 52.4362C89.9623 52.4219 90.248 52.2418 90.0864 52.3836C90.0766 52.3918 90.0258 52.4411 90.0104 52.4362Z" fill="white"/>
<path fill-rule="evenodd" clip-rule="evenodd" d="M88.6224 53.6346C88.5653 53.6211 88.8269 53.4535 88.6762 53.5918C88.6694 53.5978 88.6337 53.6373 88.6224 53.6346Z" fill="white"/>
<path fill-rule="evenodd" clip-rule="evenodd" d="M86.1122 56.2313C86.0885 56.2287 86.1148 56.1411 86.1445 56.1449C86.1682 56.1479 86.1419 56.2351 86.1122 56.2313Z" fill="white"/>
<path fill-rule="evenodd" clip-rule="evenodd" d="M84.2311 58.8213C84.2082 58.8213 84.2146 58.7487 84.2375 58.7491C84.2601 58.7495 84.2537 58.8217 84.2311 58.8213Z" fill="white"/>
<path fill-rule="evenodd" clip-rule="evenodd" d="M84.2947 58.7329C84.2721 58.7325 84.2785 58.66 84.3014 58.6604C84.324 58.6607 84.3176 58.7333 84.2947 58.7329Z" fill="white"/>
<path fill-rule="evenodd" clip-rule="evenodd" d="M85.1011 57.6665C85.0492 57.6631 85.3127 57.3552 85.2276 57.5142C85.2276 57.5142 85.1253 57.668 85.1011 57.6665Z" fill="white"/>
<path fill-rule="evenodd" clip-rule="evenodd" d="M84.4283 58.6089C84.4069 58.6085 84.4095 58.554 84.4219 58.5544C84.4429 58.5548 84.4403 58.6093 84.4283 58.6089Z" fill="white"/>
<path fill-rule="evenodd" clip-rule="evenodd" d="M84.5424 58.4487C84.5191 58.448 84.5322 58.357 84.5631 58.3585C84.586 58.3589 84.5713 58.4491 84.5424 58.4487Z" fill="white"/>
<path fill-rule="evenodd" clip-rule="evenodd" d="M84.6746 58.2744C84.6532 58.2733 84.6577 58.2195 84.6701 58.2199C84.6915 58.221 84.687 58.2748 84.6746 58.2744Z" fill="white"/>
<path fill-rule="evenodd" clip-rule="evenodd" d="M84.8485 58.0488C84.8778 58.0503 84.8297 58.048 84.8485 58.0488Z" fill="white"/>
<path fill-rule="evenodd" clip-rule="evenodd" d="M84.193 59.0005C84.1161 58.9997 84.5427 58.469 84.3833 58.7344C84.3736 58.7508 84.2366 59.0012 84.193 59.0005Z" fill="white"/>
<path fill-rule="evenodd" clip-rule="evenodd" d="M85.0798 57.8081C85.1091 57.8096 85.061 57.807 85.0798 57.8081Z" fill="white"/>
<path d="M121.451 101.907L124.504 100.581L122.825 99.3869L121.451 101.907Z" fill="#97144D" fill-opacity="0.68"/>
<path d="M121.451 101.907L119.201 96.3232L139 81.9111L122.901 99.4679L121.451 101.907Z" fill="#97144D" fill-opacity="0.17"/>
<path d="M44.5494 17.6035C44.4076 17.6035 44.2717 17.5222 44.2094 17.3844C44.1243 17.1967 44.2075 16.9754 44.3953 16.8903C44.6778 16.7623 44.9659 16.6339 45.2522 16.5089C45.441 16.4264 45.6612 16.5126 45.7437 16.7015C45.8262 16.8903 45.74 17.1105 45.5511 17.193C45.2682 17.3165 44.9827 17.4434 44.7035 17.5703C44.6535 17.5927 44.6009 17.6035 44.5494 17.6035Z" fill="#97144D" fill-opacity="0.17"/>
<path d="M41.193 19.24C41.0586 19.24 40.9287 19.1673 40.8619 19.04C40.7664 18.8571 40.8369 18.6317 41.0198 18.5361C41.571 18.2477 42.1353 17.9629 42.6963 17.6893C42.8814 17.599 43.1049 17.6759 43.1953 17.861C43.2856 18.0465 43.2087 18.2701 43.0232 18.3604C42.4686 18.6306 41.911 18.9124 41.3658 19.1975C41.3105 19.2266 41.2512 19.24 41.193 19.24ZM37.9344 21.0651C37.8075 21.0651 37.6836 21.0001 37.6138 20.8833C37.5078 20.7064 37.5653 20.4772 37.7422 20.3713C38.2763 20.0518 38.8234 19.7353 39.3679 19.4304C39.5478 19.3296 39.7751 19.3938 39.8759 19.5737C39.9767 19.7536 39.9125 19.9809 39.7326 20.0816C39.1944 20.3832 38.6536 20.6959 38.1255 21.0121C38.0654 21.0479 37.9994 21.0651 37.9344 21.0651ZM34.7864 23.0744C34.6669 23.0744 34.5497 23.0173 34.4777 22.911C34.3616 22.7408 34.4057 22.5086 34.5762 22.3926C35.0902 22.0429 35.6179 21.695 36.1445 21.3588C36.3184 21.2479 36.5491 21.2991 36.6599 21.4726C36.7707 21.6465 36.72 21.8772 36.5461 21.988C36.0258 22.3202 35.504 22.6639 34.9961 23.0099C34.9319 23.0536 34.8588 23.0744 34.7864 23.0744ZM31.7629 25.2663C31.6514 25.2663 31.5409 25.2163 31.4674 25.1212C31.3412 24.9577 31.3714 24.7233 31.5345 24.5975C32.0268 24.2176 32.5329 23.8392 33.039 23.4723C33.2058 23.3514 33.4391 23.3887 33.56 23.5555C33.6813 23.7223 33.6439 23.9556 33.4771 24.0765C32.977 24.4389 32.4769 24.8133 31.9906 25.1883C31.9227 25.241 31.8424 25.2663 31.7629 25.2663ZM28.8784 27.6374C28.7742 27.6374 28.6709 27.5941 28.5973 27.5101C28.4615 27.3548 28.4772 27.119 28.632 26.9831C29.1001 26.5741 29.5819 26.165 30.0652 25.7679C30.2242 25.6369 30.4597 25.6601 30.5903 25.8194C30.7213 25.9784 30.6982 26.2139 30.5392 26.3446C30.0618 26.7368 29.5856 27.1406 29.1239 27.5448C29.053 27.6068 28.9653 27.6374 28.8784 27.6374ZM26.1475 30.1842C26.0516 30.1842 25.9557 30.1472 25.8829 30.0741C25.7374 29.9278 25.7381 29.6915 25.8844 29.5464C26.3256 29.1075 26.7809 28.6693 27.2381 28.2431C27.3889 28.1024 27.6251 28.1106 27.7654 28.2614C27.9061 28.4122 27.8979 28.6484 27.7472 28.7887C27.2959 29.2097 26.8462 29.6427 26.4107 30.0756C26.3379 30.148 26.2427 30.1842 26.1475 30.1842ZM23.5862 32.9008C23.4985 32.9008 23.4104 32.8702 23.3395 32.8075C23.185 32.6709 23.17 32.4351 23.3066 32.2805C23.7187 31.814 24.1445 31.3471 24.5733 30.8925C24.7148 30.7425 24.951 30.7354 25.1011 30.8769C25.2507 31.0183 25.2578 31.2546 25.1164 31.4046C24.6935 31.8532 24.2725 32.3141 23.8661 32.7747C23.7926 32.8583 23.6896 32.9008 23.5862 32.9008ZM21.2092 35.7798C21.1293 35.7798 21.0491 35.7544 20.9811 35.7018C20.818 35.576 20.7878 35.3416 20.9136 35.1786C21.2943 34.6852 21.6888 34.191 22.0862 33.7096C22.2176 33.5506 22.4527 33.5282 22.6117 33.6596C22.7707 33.7909 22.7931 34.0261 22.6617 34.185C22.2695 34.6601 21.8802 35.1476 21.5048 35.6342C21.4312 35.7298 21.3208 35.7798 21.2092 35.7798ZM19.0289 38.8103C18.9576 38.8103 18.8855 38.7898 18.8217 38.7469C18.6504 38.6323 18.6045 38.4005 18.7191 38.2292C19.0662 37.7108 19.4271 37.1917 19.791 36.6856C19.9111 36.518 20.1444 36.48 20.312 36.6005C20.4792 36.7207 20.5172 36.9539 20.3971 37.1215C20.0376 37.6209 19.682 38.1333 19.3394 38.6446C19.2673 38.7521 19.1494 38.8103 19.0289 38.8103ZM17.0572 41.9793C16.9937 41.9793 16.9299 41.9632 16.8709 41.9293C16.6925 41.8262 16.6313 41.5982 16.7343 41.4195C17.0471 40.8772 17.3721 40.3349 17.7002 39.8079C17.8088 39.6329 18.0391 39.5791 18.2141 39.6881C18.3892 39.7971 18.4425 40.027 18.3339 40.202C18.0103 40.7223 17.6894 41.2575 17.3807 41.7927C17.3117 41.9125 17.1863 41.9793 17.0572 41.9793ZM15.2974 45.271C15.2418 45.271 15.1855 45.2583 15.1321 45.2322C14.9474 45.1408 14.8716 44.9172 14.963 44.7321C15.24 44.1719 15.5288 43.6098 15.8218 43.0616C15.9192 42.8798 16.1454 42.8115 16.3271 42.9086C16.5089 43.0056 16.5776 43.2318 16.4802 43.4135C16.1909 43.9547 15.9058 44.5097 15.6322 45.0631C15.5673 45.1945 15.4348 45.271 15.2974 45.271ZM13.749 48.6673C13.7008 48.6673 13.6519 48.658 13.6049 48.6382C13.4146 48.5583 13.325 48.3396 13.4049 48.1496C13.6463 47.5734 13.8994 46.9945 14.1573 46.4287C14.2427 46.2414 14.4641 46.1585 14.6518 46.244C14.8391 46.3295 14.922 46.5512 14.8365 46.7385C14.582 47.2972 14.3319 47.869 14.0931 48.4381C14.0334 48.5811 13.8949 48.6673 13.749 48.6673ZM12.4114 52.152C12.3703 52.152 12.3289 52.1453 12.2882 52.1311C12.0934 52.0628 11.9911 51.8501 12.0591 51.6552C12.2651 51.0663 12.4827 50.4729 12.7055 49.8925C12.7794 49.7 12.9951 49.6037 13.1877 49.6776C13.3799 49.7515 13.4762 49.9676 13.4023 50.1598C13.1821 50.7334 12.9671 51.3197 12.7637 51.9019C12.7099 52.0557 12.5655 52.152 12.4114 52.152ZM11.2846 55.7106C11.2507 55.7106 11.2163 55.7057 11.182 55.696C10.9838 55.6397 10.8689 55.4333 10.9252 55.2351C11.0962 54.635 11.2779 54.03 11.4657 53.437C11.528 53.2403 11.7377 53.1317 11.934 53.1936C12.1307 53.2559 12.2393 53.4657 12.1774 53.6624C11.9915 54.2483 11.812 54.8462 11.6433 55.4393C11.5966 55.6035 11.447 55.7106 11.2846 55.7106ZM10.3688 59.3293C10.3417 59.3293 10.3145 59.3263 10.2872 59.3203C10.086 59.2755 9.95917 59.0762 10.0039 58.8751C10.1393 58.2664 10.2853 57.6517 10.4382 57.0482C10.4886 56.8485 10.6916 56.7276 10.8913 56.778C11.0913 56.8287 11.2122 57.0318 11.1615 57.2314C11.0107 57.8278 10.8663 58.4354 10.7327 59.0371C10.6938 59.211 10.5397 59.3293 10.3688 59.3293ZM9.6647 62.9954C9.64485 62.9954 9.62477 62.9939 9.60454 62.9905C9.40106 62.9577 9.26286 62.7658 9.29585 62.5624C9.3955 61.9478 9.5056 61.3256 9.62312 60.7135C9.66198 60.5113 9.85758 60.3788 10.06 60.4176C10.2624 60.4564 10.3949 60.652 10.3561 60.8542C10.24 61.4592 10.1311 62.0743 10.0327 62.6819C10.0029 62.8651 9.84455 62.9954 9.6647 62.9954ZM9.17448 66.6962C9.16168 66.6962 9.1488 66.6954 9.13578 66.6943C8.93074 66.673 8.78167 66.4898 8.8028 66.2845C8.86662 65.665 8.94052 65.0376 9.02232 64.4199C9.04938 64.2154 9.23715 64.0717 9.44129 64.099C9.64563 64.1258 9.78935 64.3136 9.76226 64.5181C9.68142 65.1287 9.60838 65.7486 9.54527 66.361C9.52549 66.5532 9.3634 66.6962 9.17448 66.6962ZM8.90013 70.4194C8.89453 70.4194 8.88897 70.419 8.88334 70.419C8.67744 70.4097 8.51788 70.2354 8.52699 70.0297C8.55457 69.4076 8.59175 68.7768 8.63758 68.1551C8.65269 67.9494 8.83168 67.7953 9.03718 67.8102C9.24274 67.8255 9.3971 68.0043 9.38195 68.2099C9.33668 68.8246 9.29992 69.4479 9.27271 70.0626C9.26383 70.263 9.09865 70.4194 8.90013 70.4194ZM8.84449 74.1519C8.64093 74.1519 8.47444 73.9884 8.47142 73.7843C8.46683 73.4745 8.46448 73.1599 8.46448 72.849C8.46451 72.5359 8.46687 72.2186 8.4715 71.9066C8.47456 71.7006 8.64512 71.536 8.8502 71.539C9.05629 71.542 9.22091 71.7114 9.21785 71.9174C9.21326 72.2261 9.21094 72.5396 9.21091 72.849C9.21091 73.1561 9.21322 73.4674 9.21778 73.7731C9.2208 73.9791 9.05621 74.1489 8.85012 74.1519C8.84822 74.1519 8.84635 74.1519 8.84449 74.1519ZM9.01098 77.881C8.81754 77.881 8.65392 77.7318 8.63922 77.5358C8.59275 76.9159 8.55502 76.2852 8.52718 75.6612C8.51796 75.4551 8.67747 75.2809 8.88337 75.2719C9.08928 75.2626 9.26368 75.4219 9.27286 75.6279C9.30037 76.2441 9.33765 76.8674 9.38356 77.4802C9.39897 77.6855 9.24487 77.8646 9.03931 77.8803C9.02979 77.8807 9.02038 77.881 9.01098 77.881ZM9.40315 81.5934C9.21949 81.5934 9.05946 81.4579 9.03386 81.271C8.94955 80.6544 8.87352 80.0274 8.80795 79.4064C8.7863 79.2015 8.93492 79.0175 9.13992 78.9958C9.34523 78.9742 9.52863 79.1231 9.55024 79.328C9.61503 79.9412 9.69012 80.5611 9.77342 81.1698C9.80137 81.374 9.65847 81.5621 9.45424 81.59C9.43708 81.5923 9.42002 81.5934 9.40315 81.5934ZM10.0242 85.2744C9.85015 85.2744 9.69441 85.152 9.65877 84.9747C9.53609 84.3649 9.42122 83.7435 9.31735 83.1277C9.28305 82.9243 9.42006 82.7317 9.62327 82.6974C9.82668 82.6634 10.0191 82.8004 10.0534 83.0034C10.156 83.6118 10.2694 84.2253 10.3904 84.8273C10.4311 85.0296 10.3003 85.2263 10.0982 85.267C10.0734 85.2718 10.0486 85.2744 10.0242 85.2744ZM10.8771 88.908C10.7121 88.908 10.5614 88.7983 10.5166 88.6319C10.3553 88.031 10.2011 87.4182 10.0584 86.8098C10.0114 86.6094 10.1359 86.4086 10.3366 86.3616C10.5371 86.3142 10.7383 86.4389 10.7853 86.6396C10.926 87.2398 11.0783 87.8451 11.2376 88.4378C11.291 88.6371 11.173 88.8416 10.9741 88.8954C10.9417 88.9039 10.9088 88.908 10.8771 88.908ZM11.9631 92.479C11.8079 92.479 11.6627 92.3812 11.6097 92.2259C11.4093 91.6366 11.2156 91.035 11.0338 90.4379C10.9738 90.2404 11.085 90.0322 11.2824 89.9721C11.4795 89.912 11.6881 90.0232 11.7478 90.2206C11.9273 90.8103 12.1184 91.4037 12.3166 91.9852C12.383 92.1804 12.2785 92.3924 12.0833 92.4588C12.0438 92.4723 12.0031 92.479 11.9631 92.479ZM13.2832 95.9689C13.1373 95.9689 12.9984 95.8827 12.9387 95.7394C12.6991 95.165 12.4655 94.5776 12.2449 93.9938C12.1718 93.8009 12.2692 93.5856 12.4618 93.5128C12.6547 93.4396 12.8701 93.537 12.9432 93.7296C13.1608 94.3059 13.3911 94.8855 13.6277 95.452C13.7072 95.6423 13.6172 95.8607 13.4269 95.9402C13.3799 95.9596 13.3314 95.9689 13.2832 95.9689ZM14.8365 99.3614C14.6996 99.3614 14.5678 99.2857 14.5025 99.155C14.2241 98.5982 13.9513 98.0283 13.6915 97.4606C13.6057 97.2733 13.6881 97.0516 13.8755 96.9658C14.0629 96.8803 14.2842 96.9624 14.37 97.1498C14.6264 97.71 14.8955 98.272 15.1702 98.821C15.2624 99.0054 15.1873 99.2297 15.003 99.3219C14.9496 99.3487 14.8925 99.3614 14.8365 99.3614ZM16.619 102.638C16.4914 102.638 16.3667 102.572 16.2973 102.454C15.9808 101.918 15.6692 101.368 15.3713 100.82C15.2728 100.639 15.3396 100.412 15.5206 100.314C15.7016 100.216 15.9286 100.283 16.0271 100.464C16.3208 101.004 16.628 101.546 16.9403 102.075C17.0448 102.253 16.9859 102.482 16.8082 102.586C16.7489 102.621 16.6836 102.638 16.619 102.638ZM18.625 105.781C18.5063 105.781 18.3899 105.725 18.3175 105.62C17.9641 105.107 17.6151 104.58 17.2796 104.055C17.1687 103.881 17.2199 103.65 17.3934 103.54C17.5673 103.428 17.798 103.479 17.9088 103.653C18.2395 104.171 18.584 104.691 18.9322 105.196C19.049 105.366 19.0061 105.599 18.8366 105.715C18.7717 105.76 18.6982 105.781 18.625 105.781ZM115.167 108.632C115.075 108.632 114.983 108.598 114.911 108.53C114.761 108.388 114.754 108.152 114.896 108.002C115.324 107.55 115.747 107.09 116.153 106.634C116.291 106.48 116.526 106.467 116.68 106.604C116.834 106.741 116.847 106.977 116.71 107.131C116.299 107.592 115.871 108.058 115.438 108.515C115.365 108.593 115.266 108.632 115.167 108.632ZM20.8479 108.777C20.7382 108.777 20.6296 108.729 20.5557 108.637C20.1668 108.149 19.7809 107.648 19.4095 107.147C19.2864 106.981 19.3211 106.748 19.4868 106.625C19.6521 106.502 19.8861 106.537 20.0089 106.702C20.3754 107.196 20.7557 107.69 21.1394 108.172C21.2678 108.332 21.2413 108.567 21.0804 108.696C21.0114 108.751 20.9293 108.777 20.8479 108.777ZM112.526 111.276C112.427 111.276 112.328 111.236 112.255 111.159C112.113 111.009 112.119 110.773 112.268 110.631C112.718 110.206 113.166 109.77 113.6 109.335C113.746 109.189 113.982 109.189 114.128 109.335C114.274 109.48 114.274 109.717 114.128 109.863C113.689 110.302 113.236 110.743 112.782 111.173C112.71 111.242 112.618 111.276 112.526 111.276ZM23.2764 111.611C23.1756 111.611 23.0752 111.57 23.0017 111.491C22.6061 111.061 22.212 110.618 21.8302 110.174L21.7537 110.085C21.6197 109.929 21.6376 109.693 21.794 109.559C21.9507 109.425 22.1862 109.443 22.3206 109.599L22.3956 109.687C22.7722 110.125 23.1611 110.561 23.5511 110.985C23.6903 111.137 23.6806 111.373 23.5291 111.513C23.4574 111.579 23.3667 111.611 23.2764 111.611ZM109.747 113.773C109.641 113.773 109.536 113.729 109.463 113.642C109.329 113.485 109.348 113.25 109.504 113.116C109.973 112.717 110.444 112.305 110.903 111.892C111.056 111.754 111.292 111.767 111.43 111.92C111.568 112.073 111.555 112.309 111.402 112.447C110.938 112.864 110.462 113.28 109.989 113.684C109.918 113.744 109.832 113.773 109.747 113.773ZM25.8994 114.265C25.8076 114.265 25.7157 114.232 25.6437 114.164C25.1903 113.737 24.7375 113.295 24.2986 112.851C24.1538 112.704 24.1553 112.468 24.3016 112.323C24.4483 112.178 24.6845 112.179 24.8297 112.326C25.2623 112.764 25.7083 113.2 26.1554 113.62C26.3054 113.762 26.3125 113.998 26.1711 114.148C26.0975 114.226 25.9986 114.265 25.8994 114.265ZM106.841 116.121C106.729 116.121 106.618 116.071 106.544 115.975C106.419 115.811 106.45 115.577 106.614 115.451C107.103 115.077 107.595 114.69 108.074 114.303C108.235 114.173 108.47 114.198 108.599 114.359C108.729 114.519 108.704 114.754 108.543 114.883C108.059 115.275 107.563 115.665 107.067 116.044C107 116.096 106.92 116.121 106.841 116.121ZM28.7063 116.725C28.6235 116.725 28.5402 116.698 28.4708 116.641C27.9875 116.248 27.5046 115.839 27.0351 115.428C26.8798 115.292 26.8641 115.057 27 114.901C27.1358 114.746 27.3717 114.731 27.527 114.867C27.9894 115.272 28.4656 115.674 28.9422 116.062C29.1023 116.193 29.1262 116.428 28.9959 116.588C28.9224 116.678 28.8149 116.725 28.7063 116.725ZM103.815 118.311C103.696 118.311 103.579 118.255 103.507 118.149C103.39 117.979 103.434 117.747 103.604 117.63C104.112 117.283 104.623 116.923 105.124 116.561C105.29 116.44 105.524 116.477 105.645 116.645C105.765 116.811 105.728 117.045 105.561 117.166C105.056 117.532 104.539 117.895 104.026 118.246C103.961 118.291 103.888 118.311 103.815 118.311ZM31.6834 118.976C31.6092 118.976 31.5345 118.954 31.4692 118.909C30.9579 118.55 30.4466 118.178 29.9499 117.802C29.7853 117.678 29.7528 117.444 29.8771 117.279C30.0014 117.115 30.2354 117.082 30.4 117.207C30.89 117.577 31.3938 117.944 31.898 118.298C32.0667 118.416 32.1074 118.649 31.9891 118.817C31.9163 118.921 31.8006 118.976 31.6834 118.976ZM100.676 120.335C100.55 120.335 100.427 120.272 100.357 120.156C100.25 119.979 100.306 119.75 100.482 119.643C101.008 119.324 101.538 118.993 102.057 118.658C102.23 118.546 102.461 118.596 102.573 118.769C102.685 118.943 102.635 119.174 102.461 119.285C101.937 119.624 101.401 119.959 100.869 120.281C100.809 120.318 100.742 120.335 100.676 120.335ZM34.8132 121.01C34.7479 121.01 34.6815 120.993 34.6214 120.957C34.0855 120.635 33.5491 120.3 33.0274 119.961C32.8546 119.848 32.8053 119.617 32.9177 119.444C33.03 119.272 33.261 119.222 33.4338 119.335C33.9485 119.669 34.4773 120 35.0058 120.317C35.1827 120.423 35.2398 120.653 35.1334 120.829C35.0637 120.946 34.9401 121.01 34.8132 121.01ZM97.4305 122.183C97.2969 122.183 97.1681 122.111 97.1009 121.985C97.0039 121.803 97.0729 121.577 97.2547 121.48C97.797 121.192 98.3441 120.89 98.8812 120.584C99.0603 120.482 99.2883 120.545 99.3902 120.724C99.4921 120.903 99.4298 121.131 99.2506 121.233C98.7072 121.542 98.1538 121.847 97.6055 122.139C97.5499 122.169 97.4898 122.183 97.4305 122.183ZM38.0777 122.822C38.0206 122.822 37.9624 122.809 37.9083 122.781C37.3507 122.496 36.7928 122.198 36.2494 121.897C36.0691 121.797 36.0038 121.57 36.1038 121.39C36.2038 121.209 36.4311 121.144 36.6114 121.245C37.1473 121.542 37.6982 121.835 38.2479 122.116C38.4315 122.21 38.5043 122.435 38.4103 122.618C38.3442 122.747 38.2136 122.822 38.0777 122.822ZM94.0861 123.844C93.945 123.844 93.8099 123.764 93.7469 123.627C93.6606 123.44 93.7424 123.218 93.9293 123.132C94.4873 122.874 95.0509 122.604 95.604 122.33C95.7883 122.238 96.0123 122.313 96.1041 122.498C96.1959 122.683 96.1205 122.907 95.9358 122.998C95.3767 123.276 94.8068 123.549 94.2421 123.81C94.1917 123.833 94.1383 123.844 94.0861 123.844ZM41.4572 124.409C41.4083 124.409 41.3583 124.399 41.3102 124.378C40.735 124.131 40.1584 123.872 39.596 123.608C39.4094 123.52 39.3291 123.298 39.4168 123.111C39.5042 122.925 39.7266 122.844 39.9132 122.932C40.4682 123.193 41.0373 123.448 41.605 123.692C41.7942 123.774 41.8819 123.994 41.8006 124.183C41.7397 124.324 41.602 124.409 41.4572 124.409ZM90.6514 125.309C90.5025 125.309 90.3618 125.219 90.3039 125.072C90.2286 124.88 90.3233 124.664 90.5152 124.588C91.0873 124.364 91.665 124.127 92.2327 123.885C92.4223 123.804 92.6418 123.892 92.7224 124.082C92.8034 124.272 92.7153 124.491 92.5257 124.572C91.9513 124.817 91.3665 125.056 90.7876 125.283C90.7428 125.301 90.6969 125.309 90.6514 125.309ZM44.9333 125.773C44.8915 125.773 44.8493 125.766 44.8079 125.751C44.2186 125.541 43.6267 125.32 43.0482 125.093C42.8564 125.017 42.762 124.801 42.837 124.609C42.9124 124.417 43.1288 124.323 43.321 124.398C43.8921 124.622 44.4769 124.841 45.0587 125.049C45.2528 125.118 45.3539 125.331 45.2849 125.526C45.2304 125.678 45.0867 125.773 44.9333 125.773ZM87.1368 126.569C86.9797 126.569 86.8334 126.469 86.7819 126.311C86.7185 126.115 86.8256 125.905 87.0215 125.841C87.6067 125.651 88.1975 125.448 88.7775 125.241C88.9716 125.171 89.185 125.272 89.2548 125.466C89.3243 125.66 89.2235 125.873 89.0294 125.943C88.4423 126.154 87.8445 126.358 87.2525 126.551C87.2141 126.563 87.1753 126.569 87.1368 126.569ZM48.4874 126.92C48.4531 126.92 48.418 126.915 48.3833 126.905C47.7824 126.731 47.1778 126.546 46.587 126.356C46.3907 126.292 46.2832 126.082 46.3463 125.886C46.4098 125.689 46.6199 125.582 46.8162 125.645C47.3999 125.834 47.997 126.016 48.5912 126.188C48.7894 126.246 48.9032 126.453 48.8457 126.651C48.7987 126.814 48.6494 126.92 48.4874 126.92ZM83.5536 127.617C83.3879 127.617 83.2364 127.506 83.1927 127.338C83.1408 127.138 83.2603 126.935 83.4599 126.883C84.056 126.727 84.6579 126.561 85.2484 126.389C85.4462 126.331 85.6537 126.444 85.7115 126.642C85.7694 126.84 85.6559 127.047 85.4581 127.105C84.8602 127.28 84.2511 127.448 83.6477 127.605C83.6163 127.613 83.5846 127.617 83.5536 127.617ZM52.1039 127.855C52.0763 127.855 52.0483 127.852 52.0203 127.845C51.4101 127.706 50.7958 127.557 50.1953 127.401C49.9956 127.35 49.8758 127.147 49.9273 126.947C49.9788 126.747 50.1822 126.627 50.3819 126.679C50.9757 126.832 51.5829 126.98 52.1864 127.117C52.3875 127.163 52.5133 127.363 52.4674 127.565C52.4279 127.737 52.2741 127.855 52.1039 127.855ZM79.914 128.448C79.7393 128.448 79.5833 128.324 79.5483 128.146C79.5083 127.944 79.6401 127.748 79.8424 127.708C80.447 127.589 81.0575 127.46 81.6573 127.323C81.8581 127.277 82.0585 127.403 82.104 127.603C82.1499 127.804 82.0242 128.005 81.8234 128.05C81.2165 128.189 80.5985 128.32 79.9864 128.44C79.9622 128.445 79.9379 128.448 79.914 128.448ZM55.7674 128.584C55.7465 128.584 55.7252 128.582 55.7039 128.579C55.0878 128.473 54.4663 128.358 53.8573 128.237C53.655 128.197 53.524 128 53.5639 127.799C53.6042 127.596 53.8005 127.465 54.0028 127.505C54.6056 127.625 55.2199 127.739 55.8297 127.843C56.0327 127.877 56.1693 128.07 56.1346 128.273C56.1036 128.455 55.9458 128.584 55.7674 128.584ZM76.2315 129.058C76.0475 129.058 75.8874 128.922 75.862 128.734C75.8344 128.53 75.9777 128.342 76.1819 128.314C76.7921 128.232 77.4094 128.139 78.0166 128.039C78.22 128.005 78.4122 128.143 78.4458 128.346C78.4794 128.549 78.342 128.742 78.1386 128.775C77.5239 128.877 76.8992 128.971 76.2819 129.054C76.2647 129.057 76.2479 129.058 76.2315 129.058ZM59.4652 129.114C59.451 129.114 59.4365 129.114 59.4215 129.112C58.8005 129.039 58.1739 128.958 57.5592 128.87C57.3554 128.841 57.2136 128.651 57.2427 128.448C57.2722 128.243 57.4614 128.102 57.6652 128.131C58.2735 128.218 58.8934 128.299 59.5081 128.37C59.713 128.395 59.8593 128.58 59.8354 128.785C59.8134 128.975 59.6522 129.114 59.4652 129.114ZM72.518 129.443C72.3239 129.443 72.1601 129.293 72.1463 129.096C72.1314 128.891 72.2862 128.712 72.4919 128.698C73.0539 128.658 73.5925 128.611 74.1385 128.556C74.2057 128.549 74.2729 128.542 74.3397 128.535C74.5446 128.514 74.7282 128.663 74.7498 128.868C74.7711 129.073 74.6222 129.256 74.4173 129.278C74.3497 129.285 74.2818 129.292 74.2139 129.298C73.6604 129.355 73.1144 129.402 72.5449 129.442C72.5359 129.443 72.527 129.443 72.518 129.443ZM63.1865 129.451C63.1783 129.451 63.1701 129.451 63.1619 129.45C62.5386 129.41 61.9086 129.361 61.2895 129.305C61.0842 129.287 60.933 129.105 60.9513 128.9C60.97 128.695 61.1517 128.543 61.3566 128.562C61.9695 128.617 62.5931 128.666 63.21 128.705C63.4157 128.719 63.5717 128.897 63.5586 129.102C63.5455 129.3 63.3813 129.451 63.1865 129.451ZM66.9202 129.596C66.9187 129.596 66.9168 129.596 66.9153 129.596C66.2932 129.588 65.6613 129.572 65.0377 129.547C64.8316 129.54 64.6712 129.366 64.679 129.16C64.6872 128.954 64.8608 128.792 65.0664 128.802C65.6841 128.826 66.3092 128.842 66.925 128.85C67.131 128.853 67.296 129.022 67.2934 129.228C67.2908 129.432 67.1239 129.596 66.9202 129.596ZM68.7874 129.597C68.5836 129.597 68.4171 129.433 68.4141 129.228C68.4115 129.022 68.5765 128.853 68.7825 128.85C69.405 128.842 70.0298 128.825 70.6389 128.8C70.8445 128.793 71.0184 128.952 71.027 129.158C71.0352 129.364 70.8751 129.538 70.6691 129.546C70.0533 129.571 69.4218 129.588 68.7922 129.597C68.7907 129.597 68.7888 129.597 68.7874 129.597Z" fill="#97144D" fill-opacity="0.17"/>
<path d="M117.66 105.836C117.575 105.836 117.49 105.808 117.42 105.749C117.262 105.616 117.242 105.381 117.374 105.223C117.569 104.99 117.761 104.756 117.963 104.508C118.093 104.348 118.328 104.323 118.488 104.453C118.648 104.583 118.673 104.818 118.543 104.978C118.339 105.23 118.144 105.467 117.946 105.703C117.872 105.791 117.766 105.836 117.66 105.836Z" fill="#97144D" fill-opacity="0.17"/>
<path d="M29.5846 11.0973C21.2615 12.6297 20.0195 13.8718 18.487 22.1948C16.955 13.8718 15.7129 12.6297 7.38965 11.0973C15.7129 9.56523 16.955 8.32317 18.487 -0.00026464C20.0195 8.32317 21.2615 9.56523 29.5846 11.0973Z" fill="#97144D" fill-opacity="0.17"/>
</svg>
