<svg width="134" height="54" viewBox="0 0 134 54" fill="none" xmlns="http://www.w3.org/2000/svg">
<g id="Group 2610582">
<g id="Group 2610581">
<circle id="Ellipse 30" cx="107" cy="27" r="27" fill="#EF0000"/>
<g id="Group 2610578">
<path id="Vector" d="M107.938 21C108.915 21.1906 109.813 21.6683 110.516 22.3719C111.22 23.0756 111.698 23.9733 111.888 24.95M107.938 17C109.967 17.2254 111.86 18.1342 113.304 19.577C114.749 21.0198 115.66 22.911 115.888 24.94M114.888 32.92V35.92C114.889 36.1985 114.832 36.4742 114.721 36.7293C114.609 36.9845 114.445 37.2136 114.24 37.4019C114.035 37.5901 113.793 37.7335 113.529 37.8227C113.265 37.9119 112.985 37.9451 112.708 37.92C109.631 37.5856 106.675 36.5341 104.078 34.85C101.662 33.3147 99.6135 31.2662 98.0781 28.85C96.3881 26.2412 95.3364 23.271 95.0081 20.18C94.9831 19.9035 95.016 19.6248 95.1046 19.3616C95.1932 19.0985 95.3357 18.8567 95.5229 18.6516C95.7101 18.4466 95.9379 18.2827 96.1919 18.1705C96.4459 18.0583 96.7205 18.0003 96.9981 18H99.9981C100.483 17.9952 100.954 18.1671 101.322 18.4835C101.69 18.8 101.93 19.2394 101.998 19.72C102.125 20.6801 102.36 21.6227 102.698 22.53C102.833 22.8879 102.862 23.2769 102.782 23.6509C102.702 24.0248 102.517 24.3681 102.248 24.64L100.978 25.91C102.402 28.4135 104.475 30.4864 106.978 31.91L108.248 30.64C108.52 30.3711 108.863 30.1858 109.237 30.1061C109.611 30.0263 110 30.0555 110.358 30.19C111.265 30.5286 112.208 30.7634 113.168 30.89C113.654 30.9585 114.098 31.2032 114.415 31.5775C114.732 31.9518 114.9 32.4296 114.888 32.92Z" stroke="white" stroke-linecap="round" stroke-linejoin="round"/>
</g>
</g>
<g id="Group 2610580">
<circle id="Ellipse 31" cx="27" cy="27" r="26.5" stroke="#DADADA"/>
<g id="Group 2610579">
<path id="Vector_2" d="M16 16.0029L38 38.0029" stroke="#ADADAD" stroke-linecap="round" stroke-linejoin="round"/>
<path id="Vector_3" d="M24 24.003V27.003C24.0005 27.596 24.1768 28.1755 24.5064 28.6684C24.8361 29.1612 25.3045 29.5453 25.8523 29.7722C26.4002 29.999 27.0029 30.0584 27.5845 29.9429C28.1661 29.8273 28.7005 29.542 29.12 29.123M30 24.343V19.003C30.0007 18.2591 29.725 17.5413 29.2264 16.9892C28.7277 16.4371 28.0417 16.09 27.3015 16.0152C26.5613 15.9404 25.8197 16.1434 25.2207 16.5846C24.6217 17.0259 24.208 17.6739 24.06 18.403" stroke="#ADADAD" stroke-linecap="round" stroke-linejoin="round"/>
<path id="Vector_4" d="M32.0002 31.9529C31.024 32.9494 29.7723 33.6314 28.4058 33.9115C27.0393 34.1917 25.6202 34.0571 24.3307 33.5252C23.0411 32.9933 21.9399 32.0882 21.1684 30.9261C20.3968 29.764 19.99 28.3978 20.0002 27.0029V25.0029M34.0002 25.0029V27.0029C33.9998 27.4154 33.963 27.827 33.8902 28.2329" stroke="#ADADAD" stroke-linecap="round" stroke-linejoin="round"/>
<path id="Vector_5" d="M27 34.0029V38.0029" stroke="#ADADAD" stroke-linecap="round" stroke-linejoin="round"/>
<path id="Vector_6" d="M23 38.0029H31" stroke="#ADADAD" stroke-linecap="round" stroke-linejoin="round"/>
</g>
</g>
</g>
</svg>
