<svg width="58" height="48" viewBox="0 0 58 48" fill="none" xmlns="http://www.w3.org/2000/svg">
<g id="layer1">
<path id="rect3327" d="M38.6451 0.00408991C31.5198 -0.138398 24.1705 3.94189 22.1546 13.1487C13.9495 10.3481 6.54113 15.8717 7.31069 24.6913C3.01766 26.4266 0 30.6206 0 35.5501C0 42.041 5.22554 47.2666 11.7165 47.2666H25.9495C25.9456 43.3219 25.9373 35.4068 25.9373 33.9075L22.5995 35.1171C20.1781 36.1607 18.3897 33.1114 20.4634 31.2129L26.7788 25.0755C28.2213 23.633 29.9441 23.7985 31.2211 25.0755L37.5366 31.2129C39.6103 33.1114 37.8218 36.1607 35.4004 35.1171L32.0626 33.9075V47.2666H46.2835C52.7745 47.2666 58 42.041 58 35.5501C58 30.7726 55.1643 26.6887 51.0818 24.8611C58.9924 9.4393 49.0589 0.212029 38.6451 0.00408991Z" fill="#FFB9D7"/>
<path id="path4201" d="M38.645 0.00226244C38.2481 -0.00556658 37.8125 0.00806157 37.4151 0.0256769C28.3146 14.3681 42.3791 24.8586 51.0817 24.8586C58.9923 9.43667 49.0589 0.210201 38.645 0.00226244Z" fill="#97144D"/>
</g>
</svg>
