<svg width="37" height="37" viewBox="0 0 37 37" fill="none" xmlns="http://www.w3.org/2000/svg">
<circle cx="18.5" cy="18.5" r="18.5" fill="#FAF3F6"/>
<path fill-rule="evenodd" clip-rule="evenodd" d="M13.0993 7.63909C8.78604 9.56956 6 13.8675 6 18.5884C6 19.6105 6.12899 20.6256 6.38316 21.6063C6.42125 21.7532 6.55351 21.8512 6.69882 21.8512C6.72604 21.8512 6.75325 21.8479 6.78101 21.8409C6.95571 21.7957 7.06021 21.6172 7.01503 21.4425C6.77502 20.5156 6.65256 19.5555 6.65256 18.589C6.65256 14.1255 9.2873 10.0616 13.3654 8.23614C13.5303 8.16266 13.6038 7.96945 13.5303 7.80454C13.4568 7.63909 13.2636 7.56562 13.0993 7.63909ZM17.4326 16.3542C17.5654 16.4767 17.5741 16.683 17.4522 16.8158L16.3653 17.9984C16.3033 18.0659 16.2162 18.104 16.1248 18.104C16.0333 18.104 15.9463 18.0659 15.8842 17.9984L15.2648 17.3241C15.1429 17.1913 15.1516 16.9845 15.2844 16.8626C15.4172 16.7407 15.6241 16.7494 15.746 16.8822L16.1253 17.2947L16.9716 16.3738C17.093 16.241 17.2998 16.2323 17.4326 16.3542ZM19.4028 15.7539H16.5966C16.189 15.7539 15.8412 15.5106 15.7068 15.1705H15.0896C14.781 15.1705 14.5301 15.4214 14.5301 15.73V24.075C14.5301 24.3836 14.781 24.6345 15.0896 24.6345H20.9099C21.2179 24.6345 21.4694 24.3836 21.4694 24.075V15.73C21.4694 15.4214 21.2185 15.1705 20.9099 15.1705H20.2927C20.1582 15.5106 19.8105 15.7539 19.4028 15.7539ZM18.0514 20.6462C18.0514 20.4661 18.1978 20.3197 18.378 20.3197H19.8284C20.0086 20.3197 20.155 20.4661 20.155 20.6462C20.155 20.8269 20.0086 20.9728 19.8284 20.9728H18.378C18.1978 20.9728 18.0514 20.8269 18.0514 20.6462ZM18.378 21.8942H20.7629C20.9436 21.8942 21.0895 22.0406 21.0895 22.2208C21.0895 22.4015 20.9431 22.5473 20.7629 22.5473H18.378C18.1973 22.5473 18.0514 22.4009 18.0514 22.2208C18.0514 22.0406 18.1978 21.8942 18.378 21.8942ZM18.378 23.0948H19.8284C20.0086 23.0948 20.155 23.2412 20.155 23.4214C20.155 23.6015 20.0086 23.7479 19.8284 23.7479H18.378C18.1973 23.7479 18.0514 23.6015 18.0514 23.4214C18.0514 23.2412 18.1978 23.0948 18.378 23.0948ZM16.9716 19.149C17.0935 19.0162 17.2998 19.0075 17.4332 19.1294C17.566 19.2513 17.5747 19.4576 17.4528 19.5909L16.3659 20.7736C16.3038 20.8411 16.2168 20.8792 16.1253 20.8792C16.0339 20.8792 15.9468 20.8405 15.8848 20.7736L15.2648 20.0993C15.1429 19.9665 15.1516 19.7596 15.2844 19.6377C15.4172 19.5158 15.6241 19.5245 15.746 19.6573L16.1253 20.0699L16.9716 19.149ZM16.1253 22.845L16.9716 21.9241C17.0935 21.7913 17.2998 21.7826 17.4332 21.9045C17.566 22.027 17.5747 22.2333 17.4528 22.3661L16.3659 23.5487C16.3038 23.6162 16.2168 23.6543 16.1253 23.6543C16.0339 23.6543 15.9468 23.6162 15.8848 23.5487L15.2648 22.8744C15.1429 22.7416 15.1516 22.5348 15.2844 22.4129C15.4172 22.291 15.6241 22.2997 15.746 22.4325L16.1253 22.845ZM18.378 19.1191H20.7629C20.9436 19.1191 21.0895 19.2655 21.0895 19.4456C21.0895 19.6258 20.9431 19.7722 20.7629 19.7722H18.378C18.1973 19.7722 18.0514 19.6258 18.0514 19.4456C18.0514 19.2655 18.1978 19.1191 18.378 19.1191ZM18.378 18.1976C18.1973 18.1976 18.0514 18.0512 18.0514 17.8711C18.0514 17.6904 18.1978 17.5445 18.378 17.5445H19.8284C20.0086 17.5445 20.155 17.6909 20.155 17.8711C20.155 18.0512 20.0086 18.1976 19.8284 18.1976H18.378ZM20.7635 16.9976H18.378C18.1973 16.9976 18.0514 16.8511 18.0514 16.671C18.0514 16.4903 18.1978 16.3444 18.378 16.3444H20.7629C20.9436 16.3444 21.0895 16.4903 21.0895 16.671C21.09 16.8511 20.9436 16.9976 20.7635 16.9976ZM16.5966 15.1008H19.4028C19.5639 15.1008 19.7 14.9903 19.7 14.8603V14.5767C19.7 14.4461 19.5639 14.3361 19.4028 14.3361H18.8575C18.6773 14.3361 18.5309 14.1897 18.5309 14.0096C18.5309 13.7598 18.2925 13.5562 18.0003 13.5562C17.7075 13.5562 17.4696 13.7598 17.4696 14.0096C17.4696 14.1903 17.3232 14.3361 17.1431 14.3361H16.5977C16.4366 14.3361 16.3006 14.4466 16.3006 14.5767V14.8603C16.2995 14.9909 16.4355 15.1008 16.5966 15.1008ZM26.6523 24.2302C26.6523 24.6748 27.0142 25.0362 27.4589 25.0362C27.9035 25.0362 28.2655 24.6748 28.2655 24.2302C28.2655 23.786 27.9035 23.4241 27.4589 23.4241C27.0142 23.4241 26.6523 23.786 26.6523 24.2302ZM26.8553 26.5068C26.1597 26.5068 25.5937 27.0722 25.5937 27.7673V28.1755H29.324V27.7673C29.324 27.0722 28.758 26.5068 28.0625 26.5068H26.8553ZM22.7369 28.8944C21.2473 29.5791 19.6532 29.9269 17.9997 29.9269C16.6429 29.9269 15.316 29.6907 14.0555 29.2231C13.8868 29.1606 13.6985 29.2471 13.6359 29.4158C13.5733 29.5851 13.6598 29.7728 13.8286 29.8354C15.162 30.3291 16.5651 30.5794 17.9992 30.5794C19.7473 30.5794 21.4329 30.2121 23.0091 29.4877C23.1729 29.4125 23.2447 29.2188 23.1691 29.0544C23.095 28.8911 22.9007 28.8193 22.7369 28.8944ZM9.35696 25.0346C9.80162 25.0346 10.1635 24.6732 10.1635 24.2285C10.1635 23.7844 9.80162 23.4225 9.35696 23.4225C8.91231 23.4225 8.55038 23.7839 8.55038 24.2285C8.55038 24.6732 8.91231 25.0346 9.35696 25.0346ZM9.96054 26.5051H8.75338C8.05783 26.5051 7.4918 27.0706 7.4918 27.7656V28.1733H11.2221V27.7656C11.2221 27.0706 10.6561 26.5051 9.96054 26.5051ZM22.4691 7.804C22.3957 7.96891 22.4691 8.16158 22.6341 8.23559C26.7122 10.061 29.3469 14.125 29.3469 18.5884C29.3469 19.5555 29.225 20.5162 28.9844 21.4436C28.9392 21.6183 29.0437 21.7962 29.2185 21.842C29.2462 21.849 29.2734 21.8523 29.3006 21.8523C29.446 21.8523 29.5782 21.7549 29.6168 21.6079C29.871 20.6272 30 19.6116 30 18.589C30 13.8681 27.2134 9.57065 22.9013 7.64018C22.7358 7.56562 22.5426 7.63909 22.4691 7.804ZM17.1931 5.80604C17.1931 6.2507 17.5551 6.61208 17.9997 6.61208C18.4444 6.61208 18.8063 6.2507 18.8063 5.80604C18.8063 5.36139 18.4444 5 17.9997 5C17.5551 5 17.1931 5.36139 17.1931 5.80604ZM17.3961 8.08266C16.7006 8.08266 16.1346 8.64814 16.1346 9.34315V9.75134H19.8649V9.3437C19.8649 8.64868 19.2989 8.0832 18.6033 8.0832L17.3961 8.08266Z" fill="#97144D"/>
</svg>
