<svg width="457" height="436" viewBox="0 0 457 436" fill="none" xmlns="http://www.w3.org/2000/svg">
<path d="M348.573 287.683H51.0274C43.878 287.683 38.082 281.888 38.082 274.737V51.0866H348.573C355.722 51.0866 361.517 56.8826 361.517 64.032V274.737C361.517 281.888 355.722 287.683 348.573 287.683Z" fill="#A22C5F" fill-opacity="0.03"/>
<path d="M147.643 75.9266V148.207C147.643 151.473 145.002 154.113 141.735 154.113H69.4555C68.1621 154.113 66.9768 153.7 66.0021 152.993C64.5088 151.927 63.5488 150.18 63.5488 148.207V75.9266C63.5488 72.66 66.1901 70.0066 69.4555 70.0066H141.735C145.002 70.0066 147.643 72.66 147.643 75.9266Z" fill="#EFEFF4"/>
<path d="M331.062 94.7747H160.989C159.598 94.7747 158.469 93.6467 158.469 92.2547V81.0467C158.469 79.6547 159.598 78.5267 160.989 78.5267H331.062C332.454 78.5267 333.582 79.6547 333.582 81.0467V92.2547C333.582 93.6467 332.454 94.7747 331.062 94.7747Z" fill="#A22C5F" fill-opacity="0.12"/>
<path d="M331.062 118.931H160.989C159.598 118.931 158.469 117.803 158.469 116.411V105.203C158.469 103.811 159.598 102.683 160.989 102.683H331.062C332.454 102.683 333.582 103.811 333.582 105.203V116.411C333.582 117.803 332.454 118.931 331.062 118.931Z" fill="#A22C5F" fill-opacity="0.12"/>
<path d="M331.062 143.087H160.989C159.598 143.087 158.469 141.959 158.469 140.567V129.359C158.469 127.968 159.598 126.84 160.989 126.84H331.062C332.454 126.84 333.582 127.968 333.582 129.359V140.567C333.582 141.959 332.454 143.087 331.062 143.087Z" fill="#A22C5F" fill-opacity="0.12"/>
<path d="M199.799 167.901H66.0059V166.568H199.799V167.901Z" fill="#97144D"/>
<path d="M210.914 183.012H66.0059V181.679H210.914V183.012Z" fill="#97144D"/>
<path d="M163.483 197.763H66.0059V196.429H163.483V197.763Z" fill="#97144D"/>
<path d="M113.241 237.091C113.241 249.556 103.135 259.66 90.6715 259.66C78.2075 259.66 68.1035 249.556 68.1035 237.091C68.1035 224.627 78.2075 214.523 90.6715 214.523C103.135 214.523 113.241 224.627 113.241 237.091Z" fill="white"/>
<path d="M110.157 237.091C110.157 249.556 100.051 259.66 87.5888 259.66C75.1235 259.66 65.0195 249.556 65.0195 237.091C65.0195 224.627 75.1235 214.523 87.5888 214.523C100.051 214.523 110.157 224.627 110.157 237.091Z" fill="#97144D" fill-opacity="0.9"/>
<path d="M85.7001 249.153L74.4961 236.488L78.4921 232.953L85.6348 241.028L97.8454 226.764L101.897 230.232L85.7001 249.153Z" fill="white"/>
<path d="M111.914 85.3212C111.914 85.3212 103.351 81.1266 95.4235 85.7639C87.4928 90.4012 89.9648 101.907 89.9648 101.907C89.9648 101.907 79.1715 111.677 77.6648 121.968C76.1581 132.259 81.3968 135.157 81.3968 135.157L99.1489 127.905L107.181 95.7705L111.914 85.3212Z" fill="black"/>
<path d="M128.155 132.864C128.155 132.864 132.798 117.815 129.35 112.923C125.719 107.768 119.533 107.233 119.713 103.089C120.129 93.4627 113.307 88.7654 113.307 88.7654L111.662 126.676L128.155 132.864Z" fill="black"/>
<path d="M136.39 154.113H73.6698C73.1378 142.673 75.6165 131.447 88.0565 122.46C90.2445 120.887 97.7511 117.26 104.843 118.207C121.016 120.367 134.11 129.327 135.604 145.567L136.39 154.113Z" fill="#EA366E"/>
<path d="M97.6304 87.8599C97.6304 87.8599 87.7837 71.8266 81.9997 81.6426C76.2144 91.4586 90.497 106.163 96.273 101.385C102.049 96.6079 97.6304 87.8599 97.6304 87.8599Z" fill="black"/>
<path d="M100.971 110.475L100.85 121.96C100.85 121.96 102.644 123.415 108.51 123.953C112.88 124.355 114.408 123.211 114.408 123.211L113.322 113.331L102.744 110.887L100.971 110.475Z" fill="#FC8165"/>
<path d="M102.744 110.887C102.768 111.161 102.868 111.485 103.027 111.857C105.219 116.895 111.347 118.04 113.871 118.293L113.321 113.331L102.744 110.887Z" fill="black"/>
<path d="M115.801 90.4787C115.801 90.4787 120.935 103.116 118.785 110.085C116.635 117.055 110.269 115.783 106.477 114.327C102.685 112.869 100.969 110.476 100.969 110.476C100.969 110.476 97.3632 111.596 95.0579 108.209C92.7539 104.823 94.3259 101.044 96.3886 100.221C98.4526 99.4 100.842 100.937 100.842 100.937L99.0352 97.256C99.0352 97.256 107.519 79.0093 115.801 90.4787Z" fill="#FC8165"/>
<path d="M100.842 100.937C100.842 100.937 106.175 102.213 110.119 96.3666C114.065 90.5226 113.81 88.0559 113.81 88.0559L117.309 94.3599C117.309 94.3599 118.291 90.1093 116.678 87.3213C115.063 84.5319 113.267 85.0346 113.267 85.0346L101.317 87.5706L97.8594 96.9546L100.842 100.937Z" fill="black"/>
<path d="M114.823 106.388L114.676 106.364C114.444 106.283 114.322 106.029 114.402 105.797C115.179 103.549 113.554 101.02 113.538 100.996C113.403 100.789 113.46 100.513 113.666 100.379C113.874 100.248 114.147 100.303 114.282 100.507C114.359 100.625 116.164 103.423 115.243 106.088C115.179 106.272 115.007 106.388 114.823 106.388Z" fill="black"/>
<path d="M109.57 97.5867L109.405 97.5547C109.177 97.4627 109.065 97.2027 109.158 96.976C110.234 94.2813 111.979 94.792 112.053 94.8173C112.289 94.892 112.419 95.1413 112.345 95.376C112.271 95.608 112.034 95.7374 111.794 95.6694C111.738 95.652 110.734 95.4293 109.983 97.3067C109.914 97.48 109.747 97.5867 109.57 97.5867Z" fill="black"/>
<path d="M117.52 95.948C117.313 95.948 117.128 95.804 117.084 95.5933C117.05 95.4413 116.9 95.016 116.605 94.888C116.328 94.7667 115.961 94.928 115.702 95.084C115.49 95.2067 115.217 95.14 115.092 94.928C114.966 94.716 115.036 94.444 115.246 94.3173C115.889 93.936 116.468 93.8507 116.966 94.0747C117.73 94.412 117.936 95.3107 117.956 95.4133C118.005 95.6533 117.85 95.8893 117.609 95.9387L117.52 95.948Z" fill="black"/>
<path d="M100.132 106.827C100.009 106.827 99.885 106.776 99.7983 106.676L96.5236 102.969C96.361 102.784 96.3783 102.504 96.5623 102.34C96.7436 102.179 97.0276 102.193 97.1903 102.379L100.465 106.087C100.628 106.271 100.61 106.552 100.426 106.715L100.132 106.827Z" fill="black"/>
<path d="M96.5706 105.745C96.3479 105.745 96.156 105.579 96.128 105.352C96.1 105.108 96.2733 104.887 96.5187 104.859L98.8786 104.58C99.1386 104.557 99.3439 104.725 99.3733 104.969C99.4013 105.213 99.2267 105.435 98.9827 105.464L96.6226 105.743L96.5706 105.745Z" fill="black"/>
<path d="M117.184 101.573C116.96 101.573 116.768 101.404 116.742 101.176L116.487 98.8759C116.474 98.7519 116.511 98.6279 116.594 98.5346L117.506 97.4853C117.668 97.2986 117.95 97.2799 118.134 97.4412C118.32 97.6026 118.339 97.8839 118.178 98.0693L117.392 98.9719L117.627 101.079C117.655 101.323 117.478 101.543 117.234 101.571L117.184 101.573Z" fill="black"/>
<path d="M110.353 101.877C110.125 101.877 109.931 101.703 109.91 101.472L109.699 99.1666C109.686 99.0292 109.738 98.8919 109.841 98.7986L111.166 97.5839C111.347 97.4199 111.63 97.4292 111.795 97.6119C111.962 97.7932 111.949 98.0745 111.769 98.2399L110.605 99.3052L110.795 101.392C110.819 101.636 110.638 101.853 110.393 101.875L110.353 101.877Z" fill="black"/>
<path d="M108.739 124.591C105.758 124.591 102.211 123.812 98.8593 121.117C98.6633 120.96 98.6326 120.675 98.7899 120.48C98.9486 120.285 99.2326 120.255 99.4272 120.412C106.862 126.391 115.353 122.36 115.438 122.319C115.657 122.209 115.934 122.301 116.043 122.527C116.154 122.752 116.061 123.023 115.835 123.133C115.783 123.159 112.782 124.591 108.739 124.591Z" fill="white"/>
<path d="M125.059 153.984L124.763 153.873C124.574 153.709 124.553 153.423 124.718 153.233C131.866 145.02 123.865 131.344 123.782 131.207C123.655 130.992 123.725 130.715 123.939 130.587C124.154 130.459 124.433 130.528 124.561 130.744C124.909 131.327 132.975 145.125 125.401 153.829C125.313 153.932 125.186 153.984 125.059 153.984Z" fill="white"/>
<path d="M113.492 110.164C112.401 110.164 111.525 109.516 111.125 109.039C110.968 108.851 110.992 108.572 111.18 108.415C111.368 108.256 111.647 108.28 111.807 108.467C111.855 108.523 113.004 109.844 114.524 108.981C114.741 108.861 115.012 108.936 115.131 109.149C115.253 109.364 115.177 109.636 114.964 109.756C114.448 110.048 113.951 110.164 113.492 110.164Z" fill="black"/>
<path d="M0 302.717V350.644C0 352.103 1.35199 353.289 3.02266 353.289H99.2013C100.861 353.289 102.215 352.103 102.215 350.644V302.717C102.215 301.259 100.861 300.071 99.2013 300.071H3.02266C1.35199 300.071 0 301.259 0 302.717Z" fill="#97144D"/>
<path d="M0 303.615V307.372H102.215V303.615C102.215 301.661 100.861 300.071 99.2013 300.071H3.02266C1.35199 300.071 0 301.661 0 303.615Z" fill="white"/>
<path d="M83.707 303.721C83.707 304.68 84.4844 305.457 85.4417 305.457C86.4004 305.457 87.1777 304.68 87.1777 303.721C87.1777 302.763 86.4004 301.985 85.4417 301.985C84.4844 301.985 83.707 302.763 83.707 303.721Z" fill="#FFAF45"/>
<path d="M89.2676 303.721C89.2676 304.68 90.0449 305.457 91.0023 305.457C91.9609 305.457 92.7383 304.68 92.7383 303.721C92.7383 302.763 91.9609 301.985 91.0023 301.985C90.0449 301.985 89.2676 302.763 89.2676 303.721Z" fill="#EA366E"/>
<path d="M94.8281 303.721C94.8281 304.68 95.6055 305.457 96.5641 305.457C97.5228 305.457 98.3001 304.68 98.3001 303.721C98.3001 302.763 97.5228 301.985 96.5641 301.985C95.6055 301.985 94.8281 302.763 94.8281 303.721Z" fill="#97144D"/>
<path d="M37.6621 320.597H92.7394V317.315H37.6621V320.597Z" fill="white" fill-opacity="0.24"/>
<path d="M37.6621 329.317H92.7394V326.035H37.6621V329.317Z" fill="white" fill-opacity="0.24"/>
<path d="M37.6621 338.039H92.7394V334.756H37.6621V338.039Z" fill="white" fill-opacity="0.24"/>
<path d="M8.51367 338.039H31.6177V317.459H8.51367V338.039Z" fill="white"/>
<path d="M209.779 1.33335C208.031 1.33335 206.607 2.75599 206.607 4.50399V57.2014C206.607 58.9494 208.031 60.372 209.779 60.372H294.079C295.827 60.372 297.251 58.9494 297.251 57.2014V4.50399C297.251 2.75599 295.827 1.33335 294.079 1.33335H209.779ZM294.079 61.7053H209.779C207.295 61.7053 205.273 59.684 205.273 57.2014V4.50399C205.273 2.01999 207.295 1.14441e-05 209.779 1.14441e-05H294.079C296.563 1.14441e-05 298.584 2.01999 298.584 4.50399V57.2014C298.584 59.684 296.563 61.7053 294.079 61.7053Z" fill="#FFAF45"/>
<path d="M297.917 11.5879H205.94C205.572 11.5879 205.273 11.2892 205.273 10.9212C205.273 10.5532 205.572 10.2546 205.94 10.2546H297.917C298.285 10.2546 298.584 10.5532 298.584 10.9212C298.584 11.2892 298.285 11.5879 297.917 11.5879Z" fill="#FFAF45"/>
<path d="M215.264 8.26123C215.125 8.26123 214.988 8.2199 214.868 8.1319L209.974 4.52923C209.678 4.31057 209.614 3.89323 209.833 3.59723C210.052 3.2999 210.47 3.23989 210.766 3.45589L215.658 7.05856C215.954 7.27723 216.018 7.69323 215.8 7.99056C215.669 8.16789 215.468 8.26123 215.264 8.26123Z" fill="#FFAF45"/>
<path d="M210.37 8.26123C210.165 8.26123 209.964 8.16789 209.833 7.99056C209.614 7.69323 209.678 7.27723 209.974 7.05856L214.868 3.45589C215.164 3.23856 215.582 3.29857 215.8 3.59723C216.018 3.89323 215.954 4.31057 215.658 4.52923L210.766 8.1319C210.646 8.2199 210.508 8.26123 210.37 8.26123Z" fill="#FFAF45"/>
<path d="M344.945 159.777C344.945 159.777 353.684 155.963 361.401 160.944C369.12 165.925 366.145 177.309 366.145 177.309C366.145 177.309 376.499 187.545 377.552 197.892C378.607 208.239 373.245 210.905 373.245 210.905L355.828 202.881L349.215 170.424L344.945 159.777Z" fill="black"/>
<path d="M325.127 199.907C325.127 199.907 322.658 191.323 326.317 186.587C330.169 181.597 336.375 181.335 336.378 177.187C336.383 167.551 343.405 163.157 343.405 163.157L343.382 201.104L325.127 199.907Z" fill="black"/>
<path d="M317.92 402.151C317.92 402.151 293.57 413.813 286.373 420.612C279.173 427.409 278.808 432.04 279.636 434.316C280.465 436.591 330.83 434.332 330.83 434.332C330.83 434.332 331.377 420.499 336.742 421.391C342.108 422.282 339.177 434.676 339.177 434.676L354.404 434.534C354.404 434.534 355.105 420.78 354 415.38C352.809 409.556 349.428 401.688 349.428 401.688L317.92 402.151Z" fill="#50447E"/>
<path d="M323.118 398.127C323.118 398.127 302.165 409.948 305.99 411.176C309.814 412.403 331.406 412.611 337.735 410.306C344.066 408.004 349.362 401.441 349.362 401.441L334.993 394.637L323.118 398.127Z" fill="#FC8165"/>
<path d="M349.364 401.441L352.082 389.44L326.329 384.21L322.596 403.234L349.364 401.441Z" fill="#FC8165"/>
<path d="M419.704 358.403C419.704 358.403 434.291 381.122 441.928 387.423C449.564 393.725 454.204 393.515 456.36 392.411C458.516 391.306 450.04 341.608 450.04 341.608C450.04 341.608 436.244 342.779 436.467 337.343C436.688 331.908 449.348 333.283 449.348 333.283L447.323 318.191C447.323 318.191 433.587 319.196 428.367 320.961C422.734 322.865 415.346 327.195 415.346 327.195L419.704 358.403Z" fill="#50447E"/>
<path d="M415.069 353.741C415.069 353.741 429.391 373.07 430.137 369.124C430.882 365.177 428.414 343.725 425.345 337.728C422.275 331.732 415.109 327.289 415.109 327.289L410.137 342.391L415.069 353.741Z" fill="#FC8165"/>
<path d="M415.109 327.289L402.862 326.077L400.859 352.28L420.202 353.629L415.109 327.289Z" fill="#FC8165"/>
<path d="M273.215 205.175C273.215 205.175 255.077 205.487 251.793 205.175C248.509 204.863 251.793 202.516 251.793 202.516C251.793 202.516 245.54 201.891 247.728 200.171C249.917 198.451 270.596 198.073 275.248 198.731C279.899 199.389 286.661 200.327 286.661 200.327L273.215 205.175Z" fill="#FC8165"/>
<path d="M343.574 192.863C343.574 192.863 332.633 193.291 329.82 194.229C327.004 195.168 307.146 205.864 303.549 205.864C299.953 205.864 285.1 196.419 285.1 196.419L263.209 208.927C263.209 208.927 276.813 236.76 298.548 239.261C320.281 241.763 328.724 232.851 328.724 232.851L343.574 192.863Z" fill="#97144D"/>
<path d="M267.79 211.472C265.946 211.472 263.278 209.543 262.937 209.291C262.737 209.143 262.694 208.859 262.842 208.657C262.991 208.455 263.275 208.416 263.477 208.563C264.798 209.539 267.249 210.924 268.206 210.493C269.155 210.061 269.638 207.411 269.719 205.84C269.727 205.685 269.815 205.545 269.95 205.469C270.086 205.392 270.25 205.391 270.387 205.467C271.727 206.193 275.479 207.805 276.739 206.544C278.343 204.941 277.946 200.877 277.942 200.836C277.927 200.688 277.986 200.541 278.101 200.445C278.211 200.348 278.363 200.312 278.511 200.352C281.191 201.077 283.819 201.307 284.133 200.848C284.805 199.869 284.655 198.492 284.653 198.479C284.623 198.229 284.802 198.005 285.05 197.976C285.314 197.948 285.523 198.127 285.553 198.375C285.561 198.445 285.742 200.107 284.881 201.361C284.097 202.493 280.621 201.812 278.885 201.384C278.937 202.7 278.875 205.691 277.381 207.185C275.75 208.815 272.077 207.303 270.569 206.575C270.431 207.915 269.979 210.681 268.581 211.317C268.345 211.424 268.078 211.472 267.79 211.472Z" fill="#97144D"/>
<path d="M356.764 399.833L313.204 399.006C313.204 399.006 303.283 363.553 302.991 330.793C302.817 311.433 307.764 290.86 311.829 277.26C314.657 267.833 317.056 261.767 317.056 261.767L341.644 263.54L346.097 263.86L346.563 298.313C346.563 298.313 348.204 349.033 348.829 357.033C349.456 365.046 356.764 399.833 356.764 399.833Z" fill="#FF9E29"/>
<path d="M342.191 279.313L311.83 277.26C314.658 267.833 317.057 261.767 317.057 261.767L341.645 263.54L342.191 279.313Z" fill="#FFAF45"/>
<path d="M370.405 251.02C370.405 251.02 374.941 277.62 376.754 293.029C377.974 303.399 386.462 314.221 396.217 317.411C405.971 320.603 415.227 322.095 415.227 322.095L416.478 359.949C416.478 359.949 383.538 368.781 360.393 354.295C348.821 347.052 342.349 336.119 338.73 325.125C335.437 315.119 334.394 302.627 334.355 291.011L337.613 259.301L370.405 251.02Z" fill="#FFAF45"/>
<path d="M350.56 192.94C334.325 191.365 320.836 202.76 318.634 218.921L319.01 226.385C319.01 226.385 316.346 260.524 317.053 261.76C317.76 262.996 329.213 266.124 343.464 265.417C357.714 264.712 369.104 263.364 369.809 262.835C370.014 262.679 376.604 256.656 376.526 248.487C376.337 228.661 366.009 195.375 366.009 195C366.009 194.747 359.268 193.784 350.56 192.94Z" fill="#97144D"/>
<path d="M368.107 275.477C359.875 275.477 359.097 269.064 359.091 269C359.064 268.751 359.244 268.528 359.492 268.503C359.761 268.464 359.964 268.656 359.992 268.901C360.018 269.144 360.763 274.828 368.555 274.564C368.817 274.553 369.013 274.755 369.021 275.004C369.028 275.255 368.831 275.463 368.581 275.471C368.421 275.475 368.263 275.477 368.107 275.477Z" fill="white"/>
<path d="M382.298 309.037C379.922 311.657 377.107 315.319 377.503 316.579C377.53 316.66 377.59 316.849 378.01 316.931C378.416 317.009 378.794 316.915 379.174 316.643C380.773 315.491 381.821 311.559 382.298 309.037ZM378.285 317.864C378.138 317.864 377.989 317.849 377.838 317.821C377.052 317.669 376.753 317.209 376.641 316.851C375.89 314.469 381.525 308.497 382.661 307.324C382.798 307.184 383.009 307.144 383.183 307.231C383.361 307.316 383.462 307.504 383.437 307.699C383.394 308.013 382.385 315.448 379.703 317.377C379.254 317.701 378.777 317.864 378.285 317.864Z" fill="white"/>
<path d="M361.341 233.341C361.341 233.341 359.854 229.099 359.285 227.745C358.715 226.392 358.978 221.803 357.335 221.035C355.695 220.269 355.191 227.637 355.191 227.637C355.191 227.637 345.491 216.669 343.69 217.171C341.889 217.672 346.042 225.087 346.042 225.087C346.042 225.087 338.779 217.221 337.395 218.629C336.011 220.037 342.194 227.861 342.194 227.861C342.194 227.861 336.659 223.113 335.566 224.647C334.474 226.179 343.321 238.277 343.321 238.277C343.321 238.277 348.409 250.919 355.421 249.113C362.431 247.305 361.341 233.341 361.341 233.341Z" fill="#FC8165"/>
<path d="M251.794 202.969C251.612 202.969 251.438 202.859 251.372 202.676C251.282 202.443 251.4 202.181 251.634 202.092C251.834 202.017 255.86 200.505 259.932 199.837L258.71 199.5C258.469 199.433 258.326 199.184 258.394 198.943C258.46 198.7 258.713 198.56 258.952 198.627L262.392 199.577C262.605 199.637 262.744 199.84 262.721 200.06C262.7 200.28 262.521 200.452 262.301 200.467C257.733 200.772 252.012 202.919 251.954 202.94L251.794 202.969Z" fill="black"/>
<path d="M234.904 196.301H308.71L293.37 190.668H219.564L234.904 196.301Z" fill="#97144D"/>
<path d="M234.596 199.393H308.71V196.301H234.596V199.393Z" fill="white"/>
<path d="M219.564 190.668V194.089L234.595 199.393V196.301L219.564 190.668Z" fill="#FFAF45"/>
<path d="M293.369 190.668L279.445 151.896C279.272 151.413 278.814 151.091 278.301 151.091H209.485C208.67 151.091 208.088 151.873 208.318 152.652L219.564 190.668H293.369Z" fill="#80BAFF"/>
<path d="M285.006 183.973L274.665 155.173C274.526 154.788 274.16 154.531 273.75 154.531H218.773C218.124 154.531 217.658 155.156 217.841 155.779L226.482 184.984C226.686 185.675 227.321 186.148 228.041 186.148H283.477C284.603 186.148 285.386 185.032 285.006 183.973Z" fill="white"/>
<path d="M366.01 195C366.01 195 387.673 203.767 400.755 224.928C412.821 244.445 413.056 261.62 392.624 266.624C372.193 271.628 351.742 251.823 351.742 251.823L362.365 230.348L367.189 232.225L366.01 195Z" fill="#97144D"/>
<path d="M356.087 231.6C355.915 231.6 355.76 231.485 355.715 231.311L354.82 227.729C354.769 227.525 354.893 227.319 355.099 227.267C355.308 227.213 355.509 227.339 355.561 227.545L356.457 231.125C356.508 231.331 356.383 231.537 356.179 231.589L356.087 231.6Z" fill="black"/>
<path d="M343.573 229.809L343.286 229.68L341.906 228.115C341.767 227.955 341.781 227.715 341.939 227.575C342.098 227.436 342.338 227.449 342.479 227.609L343.859 229.175C343.998 229.335 343.985 229.575 343.825 229.715L343.573 229.809Z" fill="black"/>
<path d="M347.488 226.977L347.212 226.86L345.765 225.351C345.618 225.199 345.624 224.956 345.776 224.811C345.93 224.667 346.169 224.671 346.317 224.823L347.764 226.332C347.909 226.484 347.904 226.725 347.752 226.872L347.488 226.977Z" fill="black"/>
<path d="M390.948 239.168L390.707 239.097C381.235 233.117 367.198 230.803 367.056 230.78C366.81 230.74 366.642 230.507 366.682 230.261C366.72 230.013 366.955 229.847 367.2 229.887C367.343 229.908 381.559 232.252 391.191 238.332C391.402 238.464 391.466 238.744 391.331 238.956C391.246 239.093 391.099 239.168 390.948 239.168Z" fill="#97144D"/>
<path d="M382.04 233.753C385.384 234.425 390.471 234.559 390.879 233.855C390.871 233.855 390.843 233.748 390.633 233.547C389.14 232.107 384.764 232.967 382.04 233.753ZM387.869 235.233C385.111 235.233 381.661 234.692 380.259 234.233C380.073 234.172 379.948 234.003 379.945 233.809C379.943 233.615 380.064 233.443 380.247 233.376C380.588 233.255 388.673 230.395 391.264 232.895C391.951 233.559 391.804 234.072 391.656 234.32C391.251 234.992 389.715 235.233 387.869 235.233Z" fill="#97144D"/>
<path d="M303.207 207.676C302.035 210.356 301.186 213.083 301.605 213.697C301.623 213.725 301.649 213.781 301.815 213.76C302.013 213.744 302.18 213.647 302.34 213.456C303.16 212.475 303.271 209.713 303.207 207.676ZM301.77 214.668C301.381 214.668 301.058 214.507 300.855 214.207C299.797 212.649 302.575 206.817 303.143 205.664C303.231 205.483 303.425 205.385 303.63 205.419C303.829 205.455 303.981 205.617 303.999 205.819C304.065 206.465 304.583 212.181 303.035 214.036C302.717 214.417 302.331 214.628 301.887 214.664L301.77 214.668Z" fill="#97144D"/>
<path d="M367.129 262.94L366.917 262.887C366.476 262.652 356.059 257.085 352.622 252.387C352.515 252.24 352.506 252.045 352.598 251.889C352.692 251.732 352.866 251.645 353.046 251.671C353.801 251.767 355.87 251.8 356.36 250.819C356.805 249.924 355.662 247.956 354.837 246.925C354.724 246.784 354.708 246.588 354.793 246.428C354.88 246.268 355.049 246.176 355.233 246.192C355.278 246.191 359.84 246.587 361.754 244.555C363.252 242.961 360.301 238.285 359.038 236.617C358.933 236.479 358.917 236.291 358.997 236.136C359.078 235.979 359.269 235.877 359.416 235.892C359.444 235.895 362.224 235.975 363.732 234.455C363.974 234.211 364.083 233.932 364.066 233.601C364.007 232.501 362.612 231.133 362.078 230.7C361.884 230.541 361.856 230.256 362.013 230.061C362.172 229.869 362.454 229.84 362.652 229.997C362.742 230.071 364.88 231.831 364.97 233.553C365.002 234.145 364.802 234.664 364.376 235.093C363.153 236.325 361.334 236.671 360.262 236.767C361.516 238.572 364.334 243.132 362.413 245.173C360.769 246.924 357.709 247.133 356.105 247.133C356.797 248.172 357.781 249.996 357.169 251.223C356.594 252.38 355.042 252.611 353.977 252.623C357.822 257.001 367.241 262.033 367.341 262.087C367.562 262.204 367.646 262.479 367.529 262.699C367.448 262.852 367.29 262.94 367.129 262.94Z" fill="#97144D"/>
<path d="M359.105 162.941C359.105 162.941 369.647 147.355 374.993 157.416C380.341 167.476 365.428 181.539 359.868 176.512C354.307 171.485 359.105 162.941 359.105 162.941Z" fill="black"/>
<path d="M354.775 185.387L354.392 196.865C354.392 196.865 352.536 198.24 346.652 198.521C342.268 198.731 340.791 197.521 340.791 197.521L342.311 187.697L352.986 185.72L354.775 185.387Z" fill="#FC8165"/>
<path d="M352.985 185.72C352.949 185.993 352.834 186.313 352.66 186.679C350.249 191.615 344.076 192.489 341.545 192.632L342.31 187.697L352.985 185.72Z" fill="black"/>
<path d="M340.837 164.759C340.837 164.759 335.153 177.16 336.994 184.216C338.835 191.273 345.254 190.281 349.105 188.993C352.957 187.704 354.775 185.389 354.775 185.389C354.775 185.389 358.329 186.665 360.781 183.383C363.231 180.101 361.827 176.256 359.802 175.345C357.775 174.433 355.322 175.864 355.322 175.864L357.289 172.267C357.289 172.267 349.614 153.664 340.837 164.759Z" fill="#FC8165"/>
<path d="M355.323 175.864C355.323 175.864 349.937 176.904 346.255 170.892C342.569 164.879 342.934 162.425 342.934 162.425L339.16 168.569C339.16 168.569 338.366 164.281 340.1 161.565C341.835 158.851 343.608 159.431 343.608 159.431L355.436 162.491L358.478 172.016L355.323 175.864Z" fill="black"/>
<path d="M341.134 180.697C340.941 180.697 340.765 180.572 340.708 180.379C339.904 177.673 341.83 174.959 341.914 174.844C342.055 174.644 342.333 174.6 342.535 174.744C342.734 174.888 342.779 175.165 342.637 175.364C342.618 175.389 340.883 177.844 341.561 180.124C341.631 180.36 341.495 180.608 341.261 180.679L341.134 180.697Z" fill="black"/>
<path d="M346.769 172.133C346.585 172.133 346.413 172.019 346.348 171.836C345.676 169.913 344.652 170.109 344.608 170.121C344.366 170.171 344.132 170.028 344.076 169.793C344.018 169.557 344.154 169.321 344.388 169.259C344.465 169.239 346.229 168.804 347.189 171.541C347.27 171.773 347.148 172.028 346.916 172.108L346.769 172.133Z" fill="black"/>
<path d="M338.898 170.145L338.788 170.132C338.55 170.071 338.408 169.831 338.466 169.593C338.492 169.493 338.736 168.604 339.513 168.3C340.025 168.104 340.596 168.211 341.221 168.619C341.428 168.753 341.485 169.029 341.35 169.235C341.214 169.443 340.94 169.497 340.734 169.364C340.48 169.197 340.113 169.02 339.84 169.128C339.54 169.244 339.37 169.661 339.329 169.812C339.277 170.012 339.097 170.145 338.898 170.145Z" fill="black"/>
<path d="M355.792 181.78L355.484 181.655C355.307 181.484 355.302 181.203 355.472 181.025L358.908 177.465C359.079 177.287 359.362 177.284 359.538 177.453C359.715 177.624 359.719 177.907 359.548 178.084L356.112 181.644L355.792 181.78Z" fill="black"/>
<path d="M359.397 180.856L359.325 180.849L356.981 180.468C356.739 180.428 356.573 180.2 356.613 179.957C356.653 179.716 356.873 179.552 357.124 179.589L359.469 179.971C359.712 180.011 359.877 180.239 359.836 180.481C359.801 180.7 359.612 180.856 359.397 180.856Z" fill="black"/>
<path d="M338.986 175.783L338.918 175.777C338.674 175.74 338.508 175.512 338.546 175.269L338.872 173.173L338.128 172.237C337.976 172.045 338.006 171.765 338.2 171.613C338.39 171.46 338.669 171.491 338.825 171.684L339.69 172.773C339.768 172.869 339.801 172.995 339.781 173.117L339.426 175.405C339.392 175.625 339.202 175.783 338.986 175.783Z" fill="black"/>
<path d="M345.8 176.387C345.496 176.349 345.326 176.125 345.358 175.881L345.64 173.807L344.526 172.691C344.353 172.516 344.353 172.235 344.526 172.06C344.702 171.887 344.984 171.888 345.157 172.061L346.426 173.333C346.524 173.431 346.57 173.569 346.552 173.707L346.241 176.001C346.212 176.225 346.02 176.387 345.8 176.387Z" fill="black"/>
<path d="M341.304 183.809C341.924 184.127 342.611 184.368 343.036 184.253C343.488 184.133 344.004 183.679 344.429 183.223L341.304 183.809ZM342.803 185.171C341.547 185.171 340.012 184.085 339.821 183.947C339.677 183.843 339.608 183.663 339.648 183.489C339.687 183.316 339.825 183.181 340 183.149L345.455 182.123C345.632 182.089 345.813 182.167 345.909 182.317C346.008 182.469 346.005 182.664 345.904 182.812C345.767 183.012 344.527 184.776 343.268 185.113C343.119 185.153 342.963 185.171 342.803 185.171Z" fill="black"/>
<path d="M229.122 157.992L235.956 181.781C236.074 182.191 236.502 182.524 236.911 182.524H270.567C270.977 182.524 271.214 182.191 271.096 181.781L264.262 157.992C264.143 157.581 263.715 157.248 263.306 157.248H229.65C229.242 157.248 229.004 157.581 229.122 157.992Z" fill="#D2D2DB"/>
<path d="M229.122 157.992L229.46 159.171H264.601L264.262 157.992C264.143 157.581 263.715 157.248 263.306 157.248H229.65C229.242 157.248 229.004 157.581 229.122 157.992Z" fill="#E4E4EA"/>
<path d="M241.103 168.481H236.024L234.564 163.403H239.644L241.103 168.481Z" fill="white"/>
<path d="M242.877 174.659H237.797L236.338 169.58H241.417L242.877 174.659Z" fill="white"/>
<path d="M244.578 180.836H239.498L238.041 175.757H243.118L244.578 180.836Z" fill="white"/>
<path d="M262.253 165.725H241.824L241.605 164.969H262.036L262.253 165.725Z" fill="#97144D"/>
<path d="M264.028 171.903H243.598L243.381 171.147H263.81L264.028 171.903Z" fill="#97144D"/>
<path d="M238.05 167.695L235.66 166.28L236.062 165.604L237.774 166.617L238.984 164.571L239.66 164.971L238.05 167.695Z" fill="#EA366E"/>
<path d="M239.946 173.851L237.557 172.436L237.958 171.76L239.67 172.775L240.881 170.727L241.557 171.127L239.946 173.851Z" fill="#EA366E"/>
<path d="M352.65 198.172L352.706 198.217C352.721 198.232 354.253 199.664 355.442 199.096C356.169 198.749 356.062 197.395 355.874 196.495C354.799 197.22 353.717 197.768 352.65 198.172ZM339.741 197.563C339.102 198.549 338.403 199.952 338.553 200.537L338.675 200.697C339.419 201.064 341.757 199.717 343.11 198.701C341.511 198.325 340.314 197.827 339.741 197.563ZM343.773 198.836L343.819 199.184C343.815 199.199 343.419 200.687 344.125 201.732C344.519 202.317 345.205 202.672 346.162 202.785C349.311 203.152 351.633 199.02 351.949 198.419C348.907 199.401 346.015 199.268 343.773 198.836ZM346.578 203.716C346.407 203.716 346.233 203.705 346.055 203.685C344.822 203.539 343.918 203.051 343.369 202.233C342.885 201.511 342.782 200.676 342.799 200.028C341.555 200.855 339.413 202.068 338.277 201.511C337.971 201.361 337.765 201.103 337.677 200.763C337.346 199.477 338.898 197.172 339.214 196.723C339.345 196.532 339.602 196.476 339.801 196.585C339.883 196.629 348.187 201.031 355.881 195.381C355.998 195.295 356.15 195.269 356.287 195.316C356.426 195.36 356.535 195.469 356.579 195.608C356.693 195.957 357.635 199.053 355.833 199.913C354.567 200.517 353.214 199.749 352.53 199.244C351.799 200.509 349.646 203.716 346.578 203.716Z" fill="#97144D"/>
<path d="M318.683 238.501C318.421 238.493 318.223 238.284 318.23 238.035L318.555 226.468C318.289 225.799 316.846 221.855 317.449 216.235C318.351 207.817 323.843 204.38 324.077 204.237C324.29 204.107 324.569 204.177 324.699 204.388C324.829 204.601 324.762 204.88 324.549 205.011C324.495 205.044 319.203 208.377 318.35 216.332C317.726 222.145 319.411 226.167 319.429 226.207L319.465 226.397L319.137 238.06C319.129 238.307 318.929 238.501 318.683 238.501Z" fill="#97144D"/>
<path d="M344.716 330.924C342.54 330.924 340.849 330.559 340.693 330.525C340.449 330.471 340.296 330.228 340.349 329.984C340.405 329.74 340.641 329.591 340.89 329.64C340.973 329.661 349.152 331.413 352.633 327.008C353.702 325.657 354.136 324.348 353.924 323.121C353.598 321.253 351.861 320.149 351.843 320.139C351.728 320.065 351.65 319.947 351.633 319.811C351.616 319.675 351.66 319.54 351.754 319.441C351.822 319.371 358.448 312.248 354.229 304.64C352.937 302.309 351.265 300.855 349.26 300.32C346.057 299.467 343.073 301.233 343.045 301.252C342.888 301.343 342.696 301.337 342.549 301.235C342.402 301.132 342.33 300.952 342.366 300.776C342.649 299.347 343.124 295.353 341.945 294.053C341.663 293.74 341.317 293.621 340.835 293.661C337.495 293.983 334.598 298.405 334.569 298.451C334.434 298.663 334.155 298.723 333.943 298.585C333.733 298.449 333.673 298.171 333.809 297.959C333.936 297.763 336.97 293.123 340.749 292.76C341.5 292.684 342.148 292.925 342.617 293.447C343.953 294.921 343.649 298.383 343.405 300.059C344.606 299.531 346.963 298.768 349.493 299.445C351.745 300.047 353.605 301.647 355.021 304.2C358.981 311.34 354.115 318.024 352.748 319.676C353.383 320.185 354.524 321.305 354.815 322.957C355.077 324.452 354.582 326.004 353.344 327.571C351.177 330.311 347.54 330.924 344.716 330.924Z" fill="white"/>
<path d="M367.128 343.744C367.304 343.744 367.469 343.847 367.544 344.016C367.576 344.093 370.937 351.691 375.199 350.864C376.072 350.697 376.669 350.289 377.025 349.617C378.155 347.481 376.459 343.529 376.441 343.491C376.375 343.335 376.4 343.152 376.508 343.021C376.616 342.892 376.783 342.827 376.957 342.868C377.141 342.908 381.556 343.84 384.233 339.612C384.72 338.841 384.823 338.119 384.543 337.403C383.492 334.707 377.631 333.096 377.571 333.08C377.44 333.045 377.332 332.952 377.276 332.831C377.22 332.707 377.223 332.564 377.283 332.444C377.307 332.395 379.601 327.657 378.375 325.259C378.015 324.557 377.385 324.137 376.449 323.977C371.644 323.149 369.064 327.343 368.956 327.521C368.848 327.703 368.627 327.781 368.429 327.721C366.281 327.033 364.768 327.108 363.916 327.947C362.225 329.613 363.481 333.801 363.493 333.843C363.537 333.987 363.507 334.143 363.413 334.26C363.32 334.376 363.168 334.445 363.025 334.428C362.987 334.423 358.896 334.133 357.155 336.143C356.399 337.015 356.188 338.229 356.529 339.755C356.881 341.339 357.697 342.52 358.951 343.267C362.081 345.129 366.953 343.777 367.004 343.761L367.128 343.744ZM374.549 351.832C370.531 351.833 367.588 346.224 366.875 344.729C365.604 345.028 361.455 345.809 358.488 344.045C357.011 343.167 356.055 341.789 355.644 339.952C355.237 338.131 355.516 336.649 356.472 335.548C358.055 333.724 361.047 333.503 362.403 333.503C362.153 332.157 361.624 328.935 363.279 327.301C364.336 326.255 366.052 326.071 368.38 326.759C369.129 325.705 371.949 322.293 376.604 323.084C377.823 323.292 378.689 323.887 379.181 324.847C380.371 327.173 378.908 331.003 378.319 332.356C379.86 332.837 384.36 334.441 385.385 337.073C385.772 338.063 385.643 339.08 384.999 340.096C382.688 343.751 379.129 343.971 377.551 343.851C378.027 345.199 378.843 348.116 377.825 350.041C377.341 350.959 376.513 351.536 375.368 351.755C375.091 351.807 374.819 351.832 374.549 351.832Z" fill="white"/>
<path d="M395.801 327.135C394.909 327.135 394.049 326.939 393.27 326.464C388.829 323.767 390.433 315.171 390.502 314.807C390.55 314.563 390.783 314.403 391.034 314.448C391.279 314.496 391.439 314.732 391.393 314.979C391.377 315.061 389.837 323.32 393.741 325.691C397.624 328.047 404.465 321.923 404.534 321.861C404.634 321.772 404.768 321.725 404.9 321.749C405.033 321.767 405.151 321.843 405.221 321.956C405.238 321.983 406.906 324.579 409.49 324.772C411.255 324.905 413.068 323.903 414.885 321.799C415.052 321.609 415.338 321.591 415.523 321.752C415.714 321.915 415.734 322.201 415.57 322.391C413.552 324.727 411.484 325.843 409.416 325.673C407.048 325.495 405.406 323.707 404.759 322.867C403.493 323.935 399.397 327.133 395.801 327.135Z" fill="white"/>
<path d="M407.461 362.101C407.201 362.094 407.002 361.888 407.008 361.637C407.008 361.623 406.993 359.892 404.752 357.796C402.984 356.14 398.644 358.903 397.121 360.109C397.005 360.199 396.85 360.232 396.706 360.185C396.564 360.141 396.452 360.029 396.408 359.888C396.337 359.664 394.636 354.405 388.816 354.081C382.974 353.745 379.489 361.418 379.453 361.496C379.35 361.725 379.082 361.824 378.854 361.725C378.626 361.621 378.524 361.354 378.625 361.125C378.773 360.793 382.248 353.167 388.442 353.167C388.584 353.167 388.722 353.171 388.865 353.177C394.116 353.469 396.373 357.501 397.045 359.034C398.545 357.951 403.092 355 405.372 357.134C407.936 359.533 407.916 361.573 407.914 361.658C407.908 361.905 407.706 362.101 407.461 362.101Z" fill="white"/>
<path d="M373.1 305.992L372.814 305.983C371.656 305.915 370.814 305.497 370.308 304.739C369.636 303.733 369.766 302.392 369.93 301.601C367.743 301.759 360.912 301.781 359.739 296.067C358.532 290.18 364.71 286.167 366.474 285.152C365.764 283.972 365.174 281.903 366.814 280.317C369.119 278.087 375.243 283.448 375.934 284.065C376.119 284.232 376.135 284.519 375.968 284.705C375.803 284.892 375.514 284.908 375.328 284.74C372.963 282.624 368.726 279.728 367.443 280.968C365.696 282.659 367.414 284.937 367.487 285.032C367.568 285.139 367.6 285.277 367.57 285.408C367.54 285.54 367.454 285.652 367.334 285.713C367.255 285.753 359.39 289.856 360.627 295.885C361.848 301.839 370.38 300.652 370.466 300.639C370.622 300.609 370.779 300.676 370.882 300.797C370.982 300.92 371.011 301.085 370.96 301.235C370.954 301.253 370.32 303.128 371.062 304.239C371.402 304.745 372.008 305.028 372.866 305.079C376.307 305.237 378.611 300.817 378.635 300.772C378.748 300.548 379.022 300.456 379.243 300.572C379.467 300.685 379.555 300.957 379.442 301.18C379.34 301.383 376.958 305.992 373.1 305.992Z" fill="white"/>
<path d="M338.682 325.579C337.969 325.579 331.286 325.431 330.625 320.031C330.044 315.283 332.788 310.304 333.597 308.96C331.989 307.585 324.997 301.123 327.009 294.292C329.197 286.861 334.602 283.917 334.83 283.796C335.05 283.676 335.325 283.761 335.442 283.983C335.56 284.204 335.477 284.479 335.257 284.596C335.204 284.624 329.954 287.499 327.88 294.548C325.828 301.508 334.385 308.441 334.472 308.509C334.654 308.656 334.696 308.916 334.568 309.112C334.532 309.168 330.898 314.819 331.524 319.921C332.12 324.787 338.642 324.672 338.72 324.672C338.973 324.667 339.177 324.864 339.185 325.115C339.192 325.364 338.993 325.572 338.744 325.579H338.682Z" fill="#FFD39F"/>
<path d="M328.267 380.42C328.39 380.42 328.514 380.47 328.605 380.569C328.657 380.628 333.791 386.253 337.206 384.049C340.597 381.86 337.094 375.604 337.058 375.541C336.969 375.385 336.982 375.191 337.09 375.046C337.197 374.903 337.382 374.836 337.555 374.876C337.727 374.92 341.859 375.809 343.805 370.712C344.155 369.794 344.103 368.992 343.647 368.257C341.861 365.38 334.711 364.665 334.639 364.657C334.395 364.634 334.215 364.423 334.23 364.179C334.233 364.124 334.533 358.705 332.551 356.732C332.049 356.233 331.459 356.015 330.73 356.06C326.627 356.327 325.594 363.093 325.583 363.161C325.549 363.404 325.339 363.584 325.079 363.545C325.042 363.541 320.969 363.061 319.11 364.712C318.502 365.251 318.209 365.948 318.211 366.844C318.229 372.66 323.338 374.372 323.555 374.442C323.721 374.496 323.842 374.639 323.866 374.811C323.89 374.982 323.814 375.153 323.67 375.249C323.606 375.292 317.374 379.518 318.991 382.9C319.227 383.396 319.597 383.699 320.114 383.824C322.313 384.346 326.546 381.613 327.993 380.512L328.267 380.42ZM335.421 385.472C332.349 385.472 329.17 382.461 328.213 381.476C326.97 382.37 322.577 385.353 319.902 384.704C319.111 384.513 318.531 384.039 318.173 383.291C316.563 379.927 320.798 376.269 322.501 374.976C320.886 374.192 317.321 371.889 317.305 366.846C317.301 365.692 317.707 364.744 318.51 364.032C320.306 362.442 323.585 362.52 324.762 362.606C325.074 360.993 326.457 355.429 330.673 355.157C331.651 355.1 332.505 355.408 333.191 356.091C335.127 358.018 335.185 362.404 335.151 363.804C336.799 364.009 342.647 364.929 344.417 367.78C345.023 368.756 345.103 369.852 344.651 371.034C342.99 375.391 339.793 375.893 338.234 375.849C339.139 377.744 341.042 382.652 337.698 384.809C336.971 385.279 336.199 385.472 335.421 385.472Z" fill="#FFD39F"/>
<path d="M307.379 354.369C306.47 354.369 305.466 354.227 304.368 353.945C304.126 353.883 303.98 353.635 304.043 353.392C304.106 353.149 304.355 353.008 304.595 353.067C307.386 353.789 309.466 353.524 310.771 352.281C313.323 349.848 312.234 344.427 312.222 344.373C312.196 344.244 312.226 344.112 312.306 344.007C312.383 343.903 312.503 343.837 312.634 343.829C312.894 343.809 319.014 343.283 320.622 336.46C322.219 329.684 314.203 326.453 313.86 326.32C313.739 326.272 313.644 326.173 313.6 326.052C313.555 325.929 313.566 325.793 313.628 325.679C313.642 325.657 314.804 323.508 314.204 321.503C313.891 320.459 313.147 319.619 311.99 319.008C311.302 318.644 310.587 318.595 309.816 318.857C306.462 319.995 303.471 326.427 303.44 326.491C303.335 326.72 303.067 326.82 302.84 326.713C302.612 326.609 302.514 326.339 302.618 326.113C302.746 325.833 305.802 319.261 309.524 318C310.534 317.659 311.504 317.727 312.414 318.207C313.795 318.937 314.69 319.961 315.074 321.249C315.608 323.048 314.992 324.857 314.636 325.672C316.443 326.52 323.05 330.108 321.504 336.669C320.016 342.981 314.826 344.379 313.192 344.664C313.418 346.133 313.856 350.591 311.395 352.937C310.394 353.891 309.048 354.369 307.379 354.369Z" fill="#FFD39F"/>
<path d="M305.854 305.059L305.5 305.049C305.251 305.037 305.058 304.825 305.071 304.575C305.084 304.327 305.26 304.112 305.546 304.145C307.04 304.212 308.268 303.755 309.199 302.772C312.111 299.7 311.418 292.564 311.41 292.493C311.388 292.288 311.508 292.095 311.702 292.021C311.838 291.969 315.075 290.701 315.992 286.352C316.887 282.105 311.728 279.751 311.676 279.727C311.447 279.625 311.344 279.357 311.446 279.129C311.548 278.9 311.816 278.801 312.044 278.899C312.103 278.925 317.926 281.571 316.878 286.54C316.019 290.616 313.286 292.271 312.339 292.729C312.451 294.237 312.712 300.383 309.858 303.393C308.811 304.5 307.464 305.059 305.854 305.059Z" fill="#FFD39F"/>
<path d="M347.667 341.747C347.533 341.747 347.398 341.685 347.309 341.569C330.718 320.027 333.346 295.12 334.758 281.74C334.85 280.872 334.937 280.053 335.011 279.289L323.322 278.627C323.071 278.613 322.881 278.399 322.895 278.149C322.909 277.9 323.079 277.676 323.374 277.724L335.534 278.412C335.657 278.419 335.77 278.476 335.851 278.568C335.933 278.663 335.97 278.784 335.958 278.907C335.874 279.804 335.77 280.781 335.658 281.836C334.261 295.089 331.658 319.761 348.027 341.017C348.179 341.216 348.143 341.5 347.943 341.653L347.667 341.747Z" fill="white"/>
<path d="M249.284 374.657H149.482C145.708 374.657 142.648 371.597 142.648 367.824V234.469C142.648 230.696 145.708 227.637 149.482 227.637H249.284C253.059 227.637 256.118 230.696 256.118 234.469V367.824C256.118 371.597 253.059 374.657 249.284 374.657Z" fill="#D2D2DB"/>
<path d="M173.428 265.097H154.324C152.947 265.097 151.832 263.983 151.832 262.607V243.503C151.832 242.125 152.947 241.009 154.324 241.009H173.428C174.804 241.009 175.92 242.125 175.92 243.503V262.607C175.92 263.983 174.804 265.097 173.428 265.097Z" fill="white"/>
<path d="M173.428 302.057H154.324C152.947 302.057 151.832 300.941 151.832 299.564V280.46C151.832 279.084 152.947 277.968 154.324 277.968H173.428C174.804 277.968 175.92 279.084 175.92 280.46V299.564C175.92 300.941 174.804 302.057 173.428 302.057Z" fill="white"/>
<path d="M173.428 339.015H154.324C152.947 339.015 151.832 337.899 151.832 336.523V317.419C151.832 316.043 152.947 314.928 154.324 314.928H173.428C174.804 314.928 175.92 316.043 175.92 317.419V336.523C175.92 337.899 174.804 339.015 173.428 339.015Z" fill="white"/>
<path d="M163.358 260.881L155.787 253.225L158.631 250.412L162.98 254.811L168.958 247.041L172.127 249.481L163.358 260.881Z" fill="#97144D"/>
<path d="M163.358 297.839L155.787 290.184L158.631 287.372L162.98 291.769L168.958 284.001L172.127 286.441L163.358 297.839Z" fill="#97144D"/>
<path d="M163.358 334.799L155.787 327.143L158.631 324.331L162.98 328.728L168.958 320.959L172.127 323.399L163.358 334.799Z" fill="#97144D"/>
<path d="M187.148 249.045L187.121 245.045L240.038 244.707L240.064 248.707L187.148 249.045Z" fill="#EA366E"/>
<path d="M187.148 260.015L187.121 256.015L226.342 255.764L226.369 259.764L187.148 260.015Z" fill="#EA366E"/>
<path d="M188.657 285.789L188.631 281.789L227.852 281.539L227.879 285.539L188.657 285.789Z" fill="#EFEFF4"/>
<path d="M188.657 296.76L188.631 292.76L240.037 292.431L240.063 296.431L188.657 296.76Z" fill="#EFEFF4"/>
<path d="M188.657 322.535L188.631 318.535L241.547 318.196L241.572 322.196L188.657 322.535Z" fill="#EFEFF4"/>
<path d="M188.657 333.504L188.631 329.504L227.852 329.253L227.879 333.253L188.657 333.504Z" fill="#EFEFF4"/>
<path d="M318.016 108.516L318.509 104.899L375.51 34.6066C376.77 33.0546 379.115 32.8706 380.75 34.1973C382.385 35.5239 382.689 37.8572 381.43 39.4092L324.414 109.689L320.961 110.905L318.358 111.836C317.987 111.968 317.59 111.645 317.644 111.255L318.016 108.516Z" fill="#97144D"/>
<path d="M369.48 58.1146C369.252 58.1146 369.024 58.0346 368.841 57.8693C368.452 57.5173 368.424 56.916 368.775 56.5266C368.853 56.4413 376.596 47.876 379.447 43.3813C381.795 39.6773 378.785 37.4106 378.436 37.1626C378.007 36.8626 377.9 36.272 378.199 35.8426C378.496 35.4146 379.085 35.3026 379.516 35.6013C381.228 36.78 383.755 40.136 381.051 44.3986C378.113 49.0306 370.505 57.4466 370.184 57.8026C369.996 58.0093 369.739 58.1146 369.48 58.1146Z" fill="#FFAF45"/>
<path d="M321.635 103.32L321.454 103.255C321.33 103.156 321.312 102.975 321.412 102.852L332.182 89.5759C332.28 89.4533 332.463 89.4333 332.586 89.5346C332.708 89.6346 332.727 89.8146 332.627 89.9386L321.858 103.213L321.635 103.32Z" fill="white"/>
</svg>
