<svg width="20" height="20" viewBox="0 0 20 20" fill="none" xmlns="http://www.w3.org/2000/svg">
<path d="M11.25 20.0003H8.75002C8.16669 20.0003 7.50002 19.5003 7.50002 18.5003V16.7503C7.50002 15.917 7.08335 15.167 6.41669 14.5837C4.91669 13.417 4.16669 11.7503 4.16669 9.91699C4.25002 6.75033 6.83335 4.25033 9.91669 4.16699C11.5 4.16699 13 4.75033 14.0834 5.83366C15.1667 6.91699 15.8334 8.41699 15.8334 10.0003C15.8334 11.7503 15.0834 13.417 13.6667 14.5003C12.9167 15.0837 12.5 16.0003 12.5 16.8337V18.7503C12.5 19.417 11.9167 20.0003 11.25 20.0003ZM10 5.00033C7.33335 5.00033 5.08335 7.25033 5.00002 9.91699C5.00002 11.5003 5.66669 13.0003 6.91669 13.917C7.83336 14.667 8.33336 15.667 8.33336 16.7503V18.5003C8.33336 18.667 8.33336 19.167 8.75002 19.167H11.25C11.5 19.167 11.6667 19.0003 11.6667 18.7503V16.8337C11.6667 15.7503 12.25 14.5837 13.1667 13.8337C14.3334 12.917 15 11.5003 15 10.0003C15 8.66699 14.5 7.41699 13.5 6.41699C12.5834 5.50033 11.3334 5.00033 10 5.00033Z" fill="#97144D"/>
<path d="M12.0833 17.5003H7.91667C7.66667 17.5003 7.5 17.3337 7.5 17.0837C7.5 16.8337 7.66667 16.667 7.91667 16.667H12.0833C12.3333 16.667 12.5 16.8337 12.5 17.0837C12.5 17.3337 12.3333 17.5003 12.0833 17.5003Z" fill="#97144D"/>
<path d="M10 2.5C9.75004 2.5 9.58337 2.33333 9.58337 2.08333V0.416667C9.58337 0.166667 9.75004 0 10 0C10.25 0 10.4167 0.166667 10.4167 0.416667V2.08333C10.4167 2.33333 10.25 2.5 10 2.5Z" fill="#97144D"/>
<path d="M15.5833 4.83236C15.4999 4.83236 15.3333 4.83236 15.2499 4.74902C15.0833 4.58236 15.0833 4.33236 15.2499 4.16569L16.4166 2.99902C16.5833 2.83236 16.8333 2.83236 16.9999 2.99902C17.1666 3.16569 17.1666 3.41569 16.9999 3.58236L15.8333 4.74902C15.8333 4.74902 15.6666 4.83236 15.5833 4.83236Z" fill="#97144D"/>
<path d="M19.5833 10.4163H17.9167C17.6667 10.4163 17.5 10.2497 17.5 9.99967C17.5 9.74967 17.6667 9.58301 17.9167 9.58301H19.5833C19.8333 9.58301 20 9.74967 20 9.99967C20 10.2497 19.8333 10.4163 19.5833 10.4163Z" fill="#97144D"/>
<path d="M16.75 17.1663C16.6667 17.1663 16.5 17.1663 16.4167 17.083L15.25 15.9163C15.0833 15.7497 15.0833 15.4997 15.25 15.333C15.4167 15.1663 15.6667 15.1663 15.8333 15.333L17 16.4997C17.1667 16.6663 17.1667 16.9163 17 17.083C17 17.1663 16.9167 17.1663 16.75 17.1663Z" fill="#97144D"/>
<path d="M3.25002 17.1663C3.16669 17.1663 3.00002 17.1663 2.91669 17.083C2.75002 16.9163 2.75002 16.6663 2.91669 16.4997L4.08335 15.333C4.25002 15.1663 4.50002 15.1663 4.66669 15.333C4.83335 15.4997 4.83335 15.7497 4.66669 15.9163L3.50002 17.083C3.41669 17.1663 3.33335 17.1663 3.25002 17.1663Z" fill="#97144D"/>
<path d="M2.08333 10.4163H0.416667C0.166667 10.4163 0 10.2497 0 9.99967C0 9.74967 0.166667 9.58301 0.416667 9.58301H2.08333C2.33333 9.58301 2.5 9.74967 2.5 9.99967C2.5 10.2497 2.33333 10.4163 2.08333 10.4163Z" fill="#97144D"/>
<path d="M4.41669 4.83366C4.33335 4.83366 4.16669 4.83366 4.08335 4.75033L2.91669 3.50033C2.75002 3.33366 2.75002 3.08366 2.91669 2.91699C3.08335 2.75033 3.33335 2.75033 3.50002 2.91699L4.66669 4.08366C4.83335 4.25033 4.83335 4.50033 4.66669 4.66699C4.58335 4.75033 4.50002 4.83366 4.41669 4.83366Z" fill="#97144D"/>
<path d="M13.3334 10.4167C13.0834 10.4167 12.9167 10.25 12.9167 10C12.9167 8.41667 11.5834 7.08333 10 7.08333C9.75004 7.08333 9.58337 6.91667 9.58337 6.66667C9.58337 6.41667 9.75004 6.25 10 6.25C12.0834 6.25 13.75 7.91667 13.75 10C13.75 10.25 13.5834 10.4167 13.3334 10.4167Z" fill="#97144D"/>
</svg>
