<svg width="40" height="40" viewBox="0 0 40 40" fill="none" xmlns="http://www.w3.org/2000/svg">
<circle cx="20" cy="20" r="20" fill="#97144D" fill-opacity="0.08"/>
<path d="M21.25 30.0003H18.75C18.1667 30.0003 17.5 29.5003 17.5 28.5003V26.7503C17.5 25.917 17.0834 25.167 16.4167 24.5837C14.9167 23.417 14.1667 21.7503 14.1667 19.917C14.25 16.7503 16.8334 14.2503 19.9167 14.167C21.5 14.167 23 14.7503 24.0834 15.8337C25.1667 16.917 25.8334 18.417 25.8334 20.0003C25.8334 21.7503 25.0834 23.417 23.6667 24.5003C22.9167 25.0837 22.5 26.0003 22.5 26.8337V28.7503C22.5 29.417 21.9167 30.0003 21.25 30.0003ZM20 15.0003C17.3334 15.0003 15.0834 17.2503 15 19.917C15 21.5003 15.6667 23.0003 16.9167 23.917C17.8334 24.667 18.3334 25.667 18.3334 26.7503V28.5003C18.3334 28.667 18.3334 29.167 18.75 29.167H21.25C21.5 29.167 21.6667 29.0003 21.6667 28.7503V26.8337C21.6667 25.7503 22.25 24.5837 23.1667 23.8337C24.3334 22.917 25 21.5003 25 20.0003C25 18.667 24.5 17.417 23.5 16.417C22.5834 15.5003 21.3334 15.0003 20 15.0003Z" fill="#97144D"/>
<path d="M22.0833 27.5003H17.9167C17.6667 27.5003 17.5 27.3337 17.5 27.0837C17.5 26.8337 17.6667 26.667 17.9167 26.667H22.0833C22.3333 26.667 22.5 26.8337 22.5 27.0837C22.5 27.3337 22.3333 27.5003 22.0833 27.5003Z" fill="#97144D"/>
<path d="M20 12.5C19.75 12.5 19.5834 12.3333 19.5834 12.0833V10.4167C19.5834 10.1667 19.75 10 20 10C20.25 10 20.4167 10.1667 20.4167 10.4167V12.0833C20.4167 12.3333 20.25 12.5 20 12.5Z" fill="#97144D"/>
<path d="M25.5833 14.8324C25.4999 14.8324 25.3333 14.8324 25.2499 14.749C25.0833 14.5824 25.0833 14.3324 25.2499 14.1657L26.4166 12.999C26.5833 12.8324 26.8333 12.8324 26.9999 12.999C27.1666 13.1657 27.1666 13.4157 26.9999 13.5824L25.8333 14.749C25.8333 14.749 25.6666 14.8324 25.5833 14.8324Z" fill="#97144D"/>
<path d="M29.5833 20.4163H27.9167C27.6667 20.4163 27.5 20.2497 27.5 19.9997C27.5 19.7497 27.6667 19.583 27.9167 19.583H29.5833C29.8333 19.583 30 19.7497 30 19.9997C30 20.2497 29.8333 20.4163 29.5833 20.4163Z" fill="#97144D"/>
<path d="M26.75 27.1663C26.6667 27.1663 26.5 27.1663 26.4167 27.083L25.25 25.9163C25.0833 25.7497 25.0833 25.4997 25.25 25.333C25.4167 25.1663 25.6667 25.1663 25.8333 25.333L27 26.4997C27.1667 26.6663 27.1667 26.9163 27 27.083C27 27.1663 26.9167 27.1663 26.75 27.1663Z" fill="#97144D"/>
<path d="M13.25 27.1663C13.1667 27.1663 13 27.1663 12.9167 27.083C12.75 26.9163 12.75 26.6663 12.9167 26.4997L14.0834 25.333C14.25 25.1663 14.5 25.1663 14.6667 25.333C14.8334 25.4997 14.8334 25.7497 14.6667 25.9163L13.5 27.083C13.4167 27.1663 13.3334 27.1663 13.25 27.1663Z" fill="#97144D"/>
<path d="M12.0833 20.4163H10.4167C10.1667 20.4163 10 20.2497 10 19.9997C10 19.7497 10.1667 19.583 10.4167 19.583H12.0833C12.3333 19.583 12.5 19.7497 12.5 19.9997C12.5 20.2497 12.3333 20.4163 12.0833 20.4163Z" fill="#97144D"/>
<path d="M14.4167 14.8337C14.3334 14.8337 14.1667 14.8337 14.0834 14.7503L12.9167 13.5003C12.75 13.3337 12.75 13.0837 12.9167 12.917C13.0834 12.7503 13.3334 12.7503 13.5 12.917L14.6667 14.0837C14.8334 14.2503 14.8334 14.5003 14.6667 14.667C14.5834 14.7503 14.5 14.8337 14.4167 14.8337Z" fill="#97144D"/>
<path d="M23.3334 20.4167C23.0834 20.4167 22.9167 20.25 22.9167 20C22.9167 18.4167 21.5834 17.0833 20 17.0833C19.75 17.0833 19.5834 16.9167 19.5834 16.6667C19.5834 16.4167 19.75 16.25 20 16.25C22.0834 16.25 23.75 17.9167 23.75 20C23.75 20.25 23.5834 20.4167 23.3334 20.4167Z" fill="#97144D"/>
</svg>
