<svg width="40" height="40" viewBox="0 0 40 40" fill="none" xmlns="http://www.w3.org/2000/svg">
<circle cx="20" cy="20" r="20" fill="#97144D" fill-opacity="0.08"/>
<path d="M28.1111 28H11.2222C9.99733 28 9 27.0027 9 25.7778V14.2222C9 12.9973 9.99733 12 11.2222 12H28.1111C29.336 12 30.3333 12.9973 30.3333 14.2222V25.7778C30.3333 27.0027 29.336 28 28.1111 28ZM11.2222 12.8889C10.4871 12.8889 9.88889 13.4871 9.88889 14.2222V25.7778C9.88889 26.5129 10.4871 27.1111 11.2222 27.1111H28.1111C28.8462 27.1111 29.4444 26.5129 29.4444 25.7778V14.2222C29.4444 13.4871 28.8462 12.8889 28.1111 12.8889H11.2222Z" fill="#97144D"/>
<path d="M15.6667 20.0011C14.4418 20.0011 13.4445 19.0038 13.4445 17.7789C13.4445 16.554 14.4418 15.5566 15.6667 15.5566C16.8916 15.5566 17.8889 16.554 17.8889 17.7789C17.8889 19.0038 16.8916 20.0011 15.6667 20.0011ZM15.6667 16.4455C14.9316 16.4455 14.3333 17.0438 14.3333 17.7789C14.3333 18.514 14.9316 19.1122 15.6667 19.1122C16.4018 19.1122 17 18.514 17 17.7789C17 17.0438 16.4018 16.4455 15.6667 16.4455Z" fill="#97144D"/>
<path d="M19.2222 24.4442C18.9769 24.4442 18.7778 24.2451 18.7778 23.9998V23.1109C18.7778 22.3758 18.1796 21.7776 17.4445 21.7776H13.8889C13.1538 21.7776 12.5556 22.3758 12.5556 23.1109V23.9998C12.5556 24.2451 12.3565 24.4442 12.1111 24.4442C11.8658 24.4442 11.6667 24.2451 11.6667 23.9998V23.1109C11.6667 21.886 12.664 20.8887 13.8889 20.8887H17.4445C18.6694 20.8887 19.6667 21.886 19.6667 23.1109V23.9998C19.6667 24.2451 19.4676 24.4442 19.2222 24.4442Z" fill="#97144D"/>
<path d="M27.2222 17.3322H21.8889C21.6436 17.3322 21.4445 17.1331 21.4445 16.8878C21.4445 16.6425 21.6436 16.4434 21.8889 16.4434H27.2222C27.4676 16.4434 27.6667 16.6425 27.6667 16.8878C27.6667 17.1331 27.4676 17.3322 27.2222 17.3322Z" fill="#97144D"/>
<path d="M27.2222 20.8889H21.8889C21.6436 20.8889 21.4445 20.6898 21.4445 20.4444C21.4445 20.1991 21.6436 20 21.8889 20H27.2222C27.4676 20 27.6667 20.1991 27.6667 20.4444C27.6667 20.6898 27.4676 20.8889 27.2222 20.8889Z" fill="#97144D"/>
<path d="M27.2222 24.4436H21.8889C21.6436 24.4436 21.4445 24.2445 21.4445 23.9991C21.4445 23.7538 21.6436 23.5547 21.8889 23.5547H27.2222C27.4676 23.5547 27.6667 23.7538 27.6667 23.9991C27.6667 24.2445 27.4676 24.4436 27.2222 24.4436Z" fill="#97144D"/>
</svg>
