<svg width="22" height="16" viewBox="0 0 22 16" fill="none" xmlns="http://www.w3.org/2000/svg">
<path d="M19.1111 16H2.22222C0.997333 16 0 15.0027 0 13.7778V2.22222C0 0.997333 0.997333 0 2.22222 0H19.1111C20.336 0 21.3333 0.997333 21.3333 2.22222V13.7778C21.3333 15.0027 20.336 16 19.1111 16ZM2.22222 0.888889C1.48711 0.888889 0.888889 1.48711 0.888889 2.22222V13.7778C0.888889 14.5129 1.48711 15.1111 2.22222 15.1111H19.1111C19.8462 15.1111 20.4444 14.5129 20.4444 13.7778V2.22222C20.4444 1.48711 19.8462 0.888889 19.1111 0.888889H2.22222Z" fill="#97144D"/>
<path d="M6.66668 8.00109C5.44179 8.00109 4.44446 7.00375 4.44446 5.77886C4.44446 4.55397 5.44179 3.55664 6.66668 3.55664C7.89157 3.55664 8.8889 4.55397 8.8889 5.77886C8.8889 7.00375 7.89157 8.00109 6.66668 8.00109ZM6.66668 4.44553C5.93157 4.44553 5.33335 5.04375 5.33335 5.77886C5.33335 6.51397 5.93157 7.1122 6.66668 7.1122C7.40179 7.1122 8.00001 6.51397 8.00001 5.77886C8.00001 5.04375 7.40179 4.44553 6.66668 4.44553Z" fill="#97144D"/>
<path d="M10.2222 12.4442C9.97691 12.4442 9.7778 12.2451 9.7778 11.9998V11.1109C9.7778 10.3758 9.17958 9.77756 8.44446 9.77756H4.88891C4.1538 9.77756 3.55558 10.3758 3.55558 11.1109V11.9998C3.55558 12.2451 3.35646 12.4442 3.11113 12.4442C2.8658 12.4442 2.66669 12.2451 2.66669 11.9998V11.1109C2.66669 9.88601 3.66402 8.88867 4.88891 8.88867H8.44446C9.66935 8.88867 10.6667 9.88601 10.6667 11.1109V11.9998C10.6667 12.2451 10.4676 12.4442 10.2222 12.4442Z" fill="#97144D"/>
<path d="M18.2222 5.33225H12.8889C12.6436 5.33225 12.4445 5.13314 12.4445 4.8878C12.4445 4.64247 12.6436 4.44336 12.8889 4.44336H18.2222C18.4676 4.44336 18.6667 4.64247 18.6667 4.8878C18.6667 5.13314 18.4676 5.33225 18.2222 5.33225Z" fill="#97144D"/>
<path d="M18.2222 8.88889H12.8888C12.6435 8.88889 12.4444 8.68978 12.4444 8.44444C12.4444 8.19911 12.6435 8 12.8888 8H18.2222C18.4675 8 18.6666 8.19911 18.6666 8.44444C18.6666 8.68978 18.4675 8.88889 18.2222 8.88889Z" fill="#97144D"/>
<path d="M18.2222 12.4436H12.8889C12.6436 12.4436 12.4445 12.2445 12.4445 11.9991C12.4445 11.7538 12.6436 11.5547 12.8889 11.5547H18.2222C18.4676 11.5547 18.6667 11.7538 18.6667 11.9991C18.6667 12.2445 18.4676 12.4436 18.2222 12.4436Z" fill="#97144D"/>
</svg>
