<svg width="54" height="54" viewBox="0 0 54 54" fill="none" xmlns="http://www.w3.org/2000/svg">
<circle cx="27" cy="27" r="27" fill="#97144D" fill-opacity="0.03"/>
<path d="M29.2286 32.1373V30.4043H35.1978C35.2489 30.4043 35.2978 30.384 35.3339 30.3479C35.3701 30.3118 35.3903 30.2628 35.3903 30.2117V23.2798C35.3903 23.2287 35.3701 23.1798 35.3339 23.1437C35.2978 23.1075 35.2489 23.0873 35.1978 23.0873H29.2286V15.9628C29.2283 15.7075 29.1268 15.4628 28.9463 15.2823C28.7658 15.1018 28.5211 15.0003 28.2659 15H19.7935C19.5383 15.0003 19.2935 15.1018 19.113 15.2823C18.9326 15.4628 18.831 15.7075 18.8307 15.9628V26.2644H18.8473L17.9296 27.182C17.7277 27.3836 17.5787 27.632 17.496 27.9051C17.4133 28.1782 17.3995 28.4675 17.4557 28.7472L18.0513 31.7251L15 37.8278L15.3444 38L18.4253 31.8383C18.4445 31.8 18.4503 31.7564 18.4419 31.7144L17.8334 28.6717C17.7896 28.4541 17.8004 28.2291 17.8647 28.0167C17.929 27.8043 18.0449 27.6111 18.202 27.4543L21.3339 24.3223L21.649 24.6374C21.7741 24.7625 21.8734 24.9111 21.9411 25.0746C22.0089 25.2382 22.0437 25.4134 22.0437 25.5904C22.0437 25.7675 22.0089 25.9427 21.9411 26.1063C21.8734 26.2698 21.7741 26.4184 21.649 26.5435L19.6573 28.5352C19.6364 28.5561 19.6206 28.5816 19.6111 28.6096C19.6016 28.6377 19.5987 28.6675 19.6027 28.6969C19.6066 28.7262 19.6172 28.7542 19.6338 28.7788C19.6503 28.8034 19.6723 28.8238 19.698 28.8385L19.8473 28.9238C20.5073 29.3007 21.0056 29.9073 21.2472 30.628C21.4887 31.3487 21.4566 32.1331 21.1569 32.8317C21.1444 32.8609 21.1393 32.8929 21.1421 32.9246C21.145 32.9564 21.1556 32.9869 21.1732 33.0135C21.1907 33.0401 21.2146 33.0619 21.2427 33.077C21.2707 33.0921 21.3021 33.1 21.3339 33.1H24.8252L24.1703 34.0824C23.9772 34.3728 23.7152 34.6109 23.4077 34.7755C23.1002 34.94 22.7567 35.026 22.408 35.0256H21.3339C21.2962 35.0256 21.2594 35.0366 21.2279 35.0574C21.1965 35.0781 21.1718 35.1077 21.1569 35.1423L20.0016 37.8381L20.3556 37.9897L21.4609 35.4107H22.408C22.8201 35.4111 23.226 35.3096 23.5894 35.1151C23.9528 34.9206 24.2625 34.6392 24.4907 34.296L25.2881 33.1H28.2659C28.5211 33.0997 28.7658 32.9982 28.9463 32.8177C29.1268 32.6372 29.2283 32.3925 29.2286 32.1373ZM29.2286 29.6341H29.8063V29.249H29.2286V28.4788H29.4212V28.0936H29.2286V26.1681H29.6137V27.1309H29.9988V25.9756C29.9988 25.9245 29.9786 25.8755 29.9424 25.8394C29.9063 25.8033 29.8574 25.783 29.8063 25.783H29.2286V24.6277H29.8063V24.2426H29.2286V23.4724H31.5393V24.4351H31.9244V23.4724H35.0052V24.2426H32.8872C32.8361 24.2426 32.7871 24.2629 32.751 24.299C32.7149 24.3351 32.6946 24.3841 32.6946 24.4351V25.5904H33.0797V24.6277H35.0052V26.5532H34.0425V26.9383H35.0052V27.7085H33.2723V28.0936H35.0052V30.0192H32.6946V29.249H34.0425V28.8639H32.502C32.451 28.8639 32.402 28.8841 32.3659 28.9203C32.3298 28.9564 32.3095 29.0053 32.3095 29.0564V30.0192H31.1542V28.6713C31.1542 28.6202 31.1339 28.5713 31.0978 28.5352C31.0617 28.499 31.0127 28.4788 30.9616 28.4788H29.8063V28.8639H30.7691V30.0192H29.2286V29.6341ZM21.5265 15.3851H26.5329V15.5777C26.5327 15.7308 26.4718 15.8776 26.3635 15.9859C26.2552 16.0942 26.1084 16.1552 25.9552 16.1553H22.1042C21.951 16.1552 21.8042 16.0942 21.6959 15.9859C21.5876 15.8776 21.5267 15.7308 21.5265 15.5777V15.3851ZM21.6132 32.7149C21.8642 31.9643 21.8517 31.1505 21.5779 30.4078C21.3042 29.6652 20.7854 29.038 20.1073 28.6299L21.9213 26.8158C22.2046 26.5323 22.3811 26.1593 22.4205 25.7604C22.4599 25.3614 22.3598 24.9612 22.1374 24.6277H22.4893V24.2426H21.7988L21.4701 23.9139C21.4522 23.896 21.431 23.8818 21.4076 23.8721C21.3843 23.8624 21.3592 23.8575 21.3339 23.8575C21.3086 23.8575 21.2836 23.8624 21.2602 23.8721C21.2369 23.8818 21.2157 23.896 21.1978 23.9139L21.1414 23.9703V22.8947H20.7563V24.3554L19.2158 25.8958V15.9628C19.216 15.8096 19.2769 15.6628 19.3852 15.5545C19.4935 15.4462 19.6404 15.3853 19.7935 15.3851H21.1414V15.5777C21.1417 15.8329 21.2432 16.0776 21.4237 16.2581C21.6042 16.4386 21.8489 16.5401 22.1042 16.5404H25.9552C26.2105 16.5401 26.4552 16.4386 26.6357 16.2581C26.8162 16.0776 26.9177 15.8329 26.918 15.5777V15.3851H28.2659C28.419 15.3853 28.5658 15.4462 28.6741 15.5545C28.7824 15.6628 28.8434 15.8096 28.8435 15.9628V32.1373C28.8434 32.2904 28.7824 32.4373 28.6741 32.5455C28.5658 32.6538 28.419 32.7148 28.2659 32.7149H21.6132Z" fill="#97144D" stroke="#97144D" stroke-width="0.3"/>
<path d="M26.9182 24.2424H25.5703V24.6275H27.1107C27.1618 24.6275 27.2108 24.6072 27.2469 24.5711C27.283 24.535 27.3033 24.486 27.3033 24.435V22.8945H26.9182V24.2424Z" fill="#97144D" stroke="#97144D" stroke-width="0.3"/>
<path d="M26.9182 19.814H27.3033V18.2736C27.3033 18.2225 27.283 18.1736 27.2469 18.1375C27.2108 18.1013 27.1618 18.0811 27.1107 18.0811H25.5703V18.4662H26.9182V19.814Z" fill="#97144D" stroke="#97144D" stroke-width="0.3"/>
<path d="M21.141 18.4662H22.4888V18.0811H20.9484C20.8973 18.0811 20.8484 18.1013 20.8123 18.1375C20.7761 18.1736 20.7559 18.2225 20.7559 18.2736V19.814H21.141V18.4662Z" fill="#97144D" stroke="#97144D" stroke-width="0.3"/>
<path d="M26.9176 22.1244H27.3027V20.584H26.9176V21.1616H21.141V20.584H20.7559V22.1244H21.141V21.5468H26.9176V22.1244Z" fill="#97144D" stroke="#97144D" stroke-width="0.3"/>
<path d="M24.6172 31.1865L27.3125 28.4912L27.5848 28.7634L24.8895 31.4588L24.6172 31.1865Z" fill="#97144D" stroke="#97144D" stroke-width="0.3"/>
<path d="M26.2012 31.2324L27.3563 30.0773L27.6286 30.3496L26.4734 31.5047L26.2012 31.2324Z" fill="#97144D" stroke="#97144D" stroke-width="0.3"/>
<path d="M37.8939 34.2552H36.546V19.8136C36.546 19.7626 36.5257 19.7136 36.4896 19.6775C36.4535 19.6414 36.4046 19.6211 36.3535 19.6211H29.7569V20.0062H36.1609V35.7956H27.3035V33.5031H26.9184V34.2552H25.5705C25.5194 34.2552 25.4704 34.2755 25.4343 34.3116C25.3982 34.3477 25.3779 34.3967 25.3779 34.4477V37.5286C25.3779 37.5796 25.3982 37.6286 25.4343 37.6647C25.4704 37.7008 25.5194 37.7211 25.5705 37.7211H37.8939C37.945 37.7211 37.994 37.7008 38.0301 37.6647C38.0662 37.6286 38.0865 37.5796 38.0865 37.5286V34.4477C38.0865 34.3967 38.0662 34.3477 38.0301 34.3116C37.994 34.2755 37.945 34.2552 37.8939 34.2552ZM37.7014 37.336H25.763V34.6403H26.9184V35.7956H26.3407V36.1807H37.1237V35.7956H36.546V34.6403H37.7014V37.336Z" fill="#97144D" stroke="#97144D" stroke-width="0.3"/>
<path d="M29.8066 31.5596H34.0428V31.9447H29.8066V31.5596Z" fill="#97144D" stroke="#97144D" stroke-width="0.3"/>
<path d="M32.1174 26.9385H33.6578V26.5534H32.3099V25.2056H31.9248V26.746C31.9248 26.7971 31.9451 26.846 31.9812 26.8821C32.0173 26.9183 32.0663 26.9385 32.1174 26.9385Z" fill="#97144D" stroke="#97144D" stroke-width="0.3"/>
<path d="M33.6572 25.3979H34.4274V25.7831H33.6572V25.3979Z" fill="#97144D" stroke="#97144D" stroke-width="0.3"/>
<path d="M31.7314 27.7085H32.5017V28.0936H31.7314V27.7085Z" fill="#97144D" stroke="#97144D" stroke-width="0.3"/>
<path d="M30.1914 27.3232H30.9616V27.7083H30.1914V27.3232Z" fill="#97144D" stroke="#97144D" stroke-width="0.3"/>
<path d="M30.1914 24.6274H30.9616V25.0125H30.1914V24.6274Z" fill="#97144D" stroke="#97144D" stroke-width="0.3"/>
<path d="M30.5762 25.7832H31.3464V26.1683H30.5762V25.7832Z" fill="#97144D" stroke="#97144D" stroke-width="0.3"/>
</svg>
