<svg width="20" height="20" viewBox="0 0 20 20" fill="none" xmlns="http://www.w3.org/2000/svg">
<path d="M2.71001 19.5355L6.59582 15.6497C7.1393 15.1064 7.20493 14.2641 6.79408 13.6477L7.70322 12.7386C10.597 15.397 15.0709 15.311 17.8532 12.5288C20.7156 9.6664 20.7156 5.00919 17.8532 2.1468C14.9908 -0.715599 10.3334 -0.715599 7.47104 2.1468C4.68325 4.93458 4.61876 9.42008 7.26127 12.2966L6.35204 13.2058C5.73571 12.7956 4.89425 12.8616 4.35106 13.4049L0.465251 17.2907C-0.155049 17.9107 -0.155172 18.9152 0.465415 19.5355C1.08367 20.154 2.09131 20.1545 2.71001 19.5355ZM7.91299 2.58875C10.5319 -0.0298681 14.7923 -0.029827 17.4112 2.58875C20.0299 5.20741 20.0299 9.46818 17.4112 12.0868C14.7924 14.7053 10.5318 14.7053 7.91299 12.0868C5.29433 9.46814 5.29433 5.20741 7.91299 2.58875ZM0.907205 17.7327L4.79301 13.8469C5.16827 13.4716 5.77865 13.4717 6.15386 13.8469C6.52899 14.222 6.52899 14.8326 6.15386 15.2077L2.26805 19.0935C1.8928 19.4688 1.28217 19.4685 0.907205 19.0935C0.532075 18.7184 0.532075 18.1078 0.907205 17.7327Z" fill="#97144D"/>
<path d="M9.41624 10.0725H15.9079C16.6954 10.0725 17.1734 9.20573 16.7527 8.53966L13.508 3.40141C13.1128 2.77599 12.2073 2.78525 11.8183 3.40125L8.5715 8.53937C8.1506 9.2056 8.62824 10.0725 9.41624 10.0725ZM9.0999 8.87329L12.3467 3.73516C12.4937 3.50265 12.8324 3.50187 12.9794 3.73533L16.2241 8.87345C16.3817 9.12276 16.2031 9.44741 15.9079 9.44741H9.41624C9.12124 9.44741 8.94232 9.12297 9.0999 8.87329Z" fill="#97144D"/>
<path d="M12.6622 7.47949C12.8348 7.47949 12.9747 7.33953 12.9747 7.16692V5.47126C12.9747 5.29865 12.8348 5.15869 12.6622 5.15869C12.4896 5.15869 12.3496 5.29865 12.3496 5.47126V7.16692C12.3496 7.33953 12.4896 7.47949 12.6622 7.47949Z" fill="#97144D"/>
<path d="M12.4416 8.02358C12.3456 8.11953 12.3297 8.26023 12.3728 8.36421C12.422 8.48192 12.5526 8.57943 12.7229 8.55178C12.8535 8.53273 12.9761 8.39682 12.9761 8.24548C12.976 7.95262 12.6205 7.8447 12.4416 8.02358Z" fill="#97144D"/>
</svg>
