<svg width="37" height="37" viewBox="0 0 37 37" fill="none" xmlns="http://www.w3.org/2000/svg">
<circle cx="18.5" cy="18.5" r="18.5" fill="#97144D" fill-opacity="0.05"/>
<path d="M19.5584 10H16.4416C13.0519 10 13.013 11.7937 13.013 11.8701V13.1169H7.87011C7.78744 13.1169 7.70816 13.1497 7.64971 13.2082C7.59126 13.2666 7.55842 13.3459 7.55842 13.4286V24.026H6.31166C6.25002 24.026 6.18976 24.0443 6.13851 24.0785C6.08725 24.1128 6.04731 24.1615 6.02372 24.2184C6.00013 24.2754 5.99396 24.338 6.00599 24.3985C6.01802 24.4589 6.04771 24.5145 6.0913 24.5581L7.64974 26.1165C7.70818 26.175 7.78745 26.2078 7.87011 26.2078H28.1299C28.2126 26.2078 28.2918 26.175 28.3503 26.1165L29.9087 24.5581C29.9523 24.5145 29.982 24.4589 29.994 24.3985C30.006 24.338 29.9999 24.2754 29.9763 24.2184C29.9527 24.1615 29.9127 24.1128 29.8615 24.0785C29.8102 24.0443 29.75 24.026 29.6883 24.026H28.4416V13.4286C28.4416 13.3459 28.4087 13.2666 28.3503 13.2082C28.2918 13.1497 28.2126 13.1169 28.1299 13.1169H22.987V11.8701C22.987 10.0213 19.6985 10 19.5584 10ZM22.3636 13.7403V17.1579L18 20.067L13.6364 17.1579V11.8701C13.6364 11.8577 13.7126 10.6234 16.4416 10.6234H19.5584C19.5864 10.6234 22.3636 10.6573 22.3636 11.8701V13.7403ZM28.9359 24.6494L28.0008 25.5845H7.99917L7.0641 24.6494H28.9359ZM27.8182 13.7403V24.026H8.1818V13.7403H13.013V17.3247C13.013 17.376 13.0256 17.4265 13.0498 17.4718C13.0741 17.517 13.1091 17.5556 13.1518 17.584L17.8271 20.7009C17.8783 20.735 17.9385 20.7533 18 20.7533C18.0615 20.7533 18.1217 20.735 18.1729 20.7009L22.8482 17.584C22.8909 17.5556 22.9259 17.517 22.9502 17.4718C22.9744 17.4265 22.987 17.376 22.987 17.3247V13.7403H27.8182Z" fill="#97144D"/>
<path d="M20.3375 13.1169C20.2966 13.1169 20.2561 13.1249 20.2182 13.1406C20.1804 13.1563 20.1461 13.1793 20.1172 13.2083L19.6764 13.649L19.5851 13.7403L17.2206 16.1048L15.9928 14.8769L15.8826 14.7667C15.8239 14.7091 15.7449 14.677 15.6628 14.6774C15.5806 14.6778 15.5019 14.7106 15.4438 14.7687C15.3857 14.8268 15.3529 14.9055 15.3525 14.9877C15.3522 15.0698 15.3843 15.1488 15.4418 15.2074L17.0003 16.7659C17.0292 16.7948 17.0636 16.8178 17.1014 16.8335C17.1392 16.8491 17.1797 16.8572 17.2207 16.8572C17.2616 16.8572 17.3021 16.8491 17.3399 16.8335C17.3777 16.8178 17.4121 16.7948 17.441 16.7659L20.4666 13.7403L20.5579 13.649C20.6015 13.6054 20.6312 13.5499 20.6432 13.4894C20.6552 13.429 20.649 13.3663 20.6254 13.3094C20.6019 13.2524 20.5619 13.2037 20.5107 13.1695C20.4594 13.1352 20.3992 13.117 20.3375 13.1169Z" fill="#97144D"/>
</svg>
