<svg width="83" height="111" viewBox="0 0 83 111" fill="none" xmlns="http://www.w3.org/2000/svg">
<path d="M81.5547 25.8875V99.3431C81.5547 105.09 76.8955 109.748 71.1497 109.748H11.3775C5.63108 109.748 0.972717 105.09 0.972717 99.3431V11.3768C0.972717 5.63103 5.63108 0.972743 11.3775 0.972743H58.0776C59.4365 0.972743 60.735 1.53887 61.6591 2.53492L80.2494 22.5628C81.0878 23.4665 81.5547 24.6541 81.5547 25.8875Z" fill="white"/>
<path d="M11.3775 1.9454C6.17665 1.9454 1.9454 6.17667 1.9454 11.3767V99.343C1.9454 104.544 6.17665 108.775 11.3775 108.775H71.1497C76.3508 108.775 80.582 104.544 80.582 99.343V25.8875C80.582 24.8963 80.2105 23.9508 79.5364 23.2242L60.9461 3.19631C60.2078 2.40064 59.1631 1.9454 58.0776 1.9454H11.3775ZM71.1497 110.721H11.3775C5.10396 110.721 0 105.616 0 99.343V11.3767C0 5.10378 5.10396 -4.44093e-06 11.3775 -4.44093e-06H58.0776C59.702 -4.44093e-06 61.2671 0.682832 62.3721 1.87245L80.9623 21.9014C81.971 22.9888 82.5265 24.4041 82.5265 25.8875V99.343C82.5265 105.616 77.4227 110.721 71.1497 110.721Z" fill="#50BFA5"/>
<path d="M80.0441 23.9692H60.7409C60.4471 23.9692 60.2088 23.7309 60.2088 23.4372V2.88106C60.2088 2.20017 61.0444 1.87238 61.5074 2.37137L80.5266 22.8613C80.9176 23.2835 80.619 23.9692 80.0441 23.9692Z" fill="white"/>
<path d="M61.1815 22.9965H79.3243L61.1815 3.45005V22.9965ZM80.0441 24.9419H60.7409C59.9111 24.9419 59.2361 24.2668 59.2361 23.4371V2.88102C59.2361 2.16803 59.665 1.53869 60.3294 1.27801C60.9928 1.01732 61.7359 1.18658 62.2203 1.70989L81.2396 22.1999C81.6812 22.6755 81.7989 23.3671 81.5392 23.9624C81.2794 24.5567 80.6929 24.9419 80.0441 24.9419Z" fill="#50BFA5"/>
<path d="M44.3761 16.3364H10.3843V13.0497H44.3761V16.3364Z" fill="#50BFA5"/>
<path d="M55.4591 84.0366H10.3843V80.7499H55.4591V84.0366Z" fill="#50BFA5"/>
<path d="M67.7151 92.207H10.3843V88.9203H67.7151V92.207Z" fill="#50BFA5"/>
<path d="M67.7151 99.3564H39.0496V96.0687H67.7151V99.3564Z" fill="#50BFA5"/>
<path d="M63.7728 50.4111C63.7728 62.8452 53.6927 72.9243 41.2596 72.9243C28.8258 72.9243 18.7464 62.8452 18.7464 50.4111C18.7464 37.9781 28.8258 27.898 41.2596 27.898C53.6927 27.898 63.7728 37.9781 63.7728 50.4111Z" fill="#50BFA5"/>
<path d="M41.2596 70.6151C30.2283 70.6151 21.2861 61.6731 21.2861 50.6417C21.2861 39.6112 30.2283 30.6682 41.2596 30.6682C52.29 30.6682 61.233 39.6112 61.233 50.6417C61.233 61.6731 52.29 70.6151 41.2596 70.6151ZM41.2596 27.898C28.8258 27.898 18.7464 37.9781 18.7464 50.4111C18.7464 62.8452 28.8258 72.9243 41.2596 72.9243C53.6927 72.9243 63.7728 62.8452 63.7728 50.4111C63.7728 37.9781 53.6927 27.898 41.2596 27.898Z" fill="white"/>
<path d="M41.2596 31.1062C30.4875 31.1062 21.7238 39.8702 21.7238 50.6419C21.7238 61.4146 30.4875 70.1777 41.2596 70.1777C52.0313 70.1777 60.7953 61.4146 60.7953 50.6419C60.7953 39.8702 52.0313 31.1062 41.2596 31.1062ZM41.2596 71.0531C30.0047 71.0531 20.8484 61.8971 20.8484 50.6419C20.8484 39.3878 30.0047 30.2308 41.2596 30.2308C52.5147 30.2308 61.6708 39.3878 61.6708 50.6419C61.6708 61.8971 52.5147 71.0531 41.2596 71.0531ZM41.2596 28.3359C29.0871 28.3359 19.1841 38.239 19.1841 50.4114C19.1841 62.5838 29.0871 72.4869 41.2596 72.4869C53.432 72.4869 63.335 62.5838 63.335 50.4114C63.335 38.239 53.432 28.3359 41.2596 28.3359ZM41.2596 73.3623C35.1291 73.3623 29.3657 70.9753 25.0308 66.64C20.696 62.3056 18.3087 56.5423 18.3087 50.4114C18.3087 44.2814 20.696 38.5172 25.0308 34.1828C29.3657 29.8485 35.1291 27.4605 41.2596 27.4605C47.3895 27.4605 53.1528 29.8485 57.4881 34.1828C61.8235 38.5182 64.2105 44.2814 64.2105 50.4114C64.2105 56.5423 61.8235 62.3056 57.4881 66.64C53.1528 70.9753 47.3895 73.3623 41.2596 73.3623Z" fill="#50BFA5" fill-opacity="0.17"/>
<path d="M52.0225 42.6561L39.3288 53.3499L33.6197 47.6402C32.6478 46.6684 31.072 46.6684 30.1001 47.6402C29.1282 48.6129 29.1282 50.1887 30.1001 51.1604L37.4252 58.4848C38.3386 59.3982 39.7995 59.4614 40.7878 58.6288L55.2295 46.4622C56.3073 45.5547 56.4162 43.9342 55.4717 42.8895C54.572 41.8964 53.0477 41.7923 52.0225 42.6561Z" fill="white"/>
</svg>
