<?xml version="1.0" standalone="no"?>
<!DOCTYPE svg PUBLIC "-//W3C//DTD SVG 20010904//EN"
 "http://www.w3.org/TR/2001/REC-SVG-20010904/DTD/svg10.dtd">
<svg version="1.0" xmlns="http://www.w3.org/2000/svg"
 width="255.000000pt" height="251.000000pt" viewBox="0 0 255.000000 251.000000"
 preserveAspectRatio="xMidYMid meet">

<g transform="translate(0.000000,251.000000) scale(0.100000,-0.100000)"
fill="#000000" stroke="none">
<path d="M0 1255 l0 -1255 1275 0 1275 0 0 1255 0 1255 -1275 0 -1275 0 0
-1255z m1401 1023 c25 -54 21 -82 -17 -127 -20 -24 -24 -38 -20 -57 7 -26 7
-26 35 18 41 64 116 87 180 53 51 -26 64 -100 22 -132 -21 -16 -64 -16 -79 -1
-17 17 -15 48 3 48 17 0 20 -16 5 -25 -16 -10 -1 -25 24 -25 29 0 46 18 46 49
0 57 -72 81 -123 40 -15 -11 -32 -37 -38 -59 -10 -33 -9 -44 9 -82 28 -56 67
-79 137 -79 103 0 179 69 181 164 0 44 3 50 30 62 16 8 48 23 72 33 23 11 39
15 35 9 -3 -7 -18 -30 -33 -52 -15 -22 -55 -91 -90 -152 -34 -62 -67 -113 -73
-113 -6 0 -8 -3 -4 -6 6 -6 -28 -93 -42 -107 -4 -4 -41 3 -82 17 -159 53 -326
53 -481 0 -67 -22 -72 -23 -84 -6 -7 9 -14 21 -14 26 0 13 -155 289 -192 344
-17 24 -28 45 -25 48 2 2 34 -9 70 -25 66 -30 66 -30 60 -65 -12 -74 73 -174
152 -177 90 -3 123 10 155 64 32 51 26 103 -14 143 -37 37 -60 42 -93 19 -29
-20 -34 -51 -14 -77 22 -27 56 -18 46 12 -6 19 9 28 19 12 9 -14 -24 -52 -45
-52 -28 0 -59 36 -59 68 0 40 25 70 70 82 55 15 121 -14 151 -65 16 -27 24
-33 30 -23 14 22 10 39 -16 70 -47 56 -43 96 18 180 l29 41 19 -24 c10 -13 28
-45 40 -71z m-429 -253 c3 -55 1 -62 -11 -50 -8 7 -16 36 -19 64 -4 41 -2 51
11 51 12 0 16 -15 19 -65z m766 14 c-3 -30 -12 -57 -23 -67 -17 -16 -17 -16
-11 1 3 10 6 41 6 68 0 39 3 49 16 49 14 0 16 -9 12 -51z m-794 -261 c36 -52
12 -84 -73 -99 -56 -10 -70 -18 -108 -56 -36 -35 -43 -39 -38 -21 17 58 81
108 140 108 59 0 86 47 42 74 -14 8 -20 8 -27 -4 -5 -8 -10 -10 -10 -4 0 31
53 33 74 2z m862 -1 c1 -12 1 -13 -3 -2 -9 30 -53 8 -53 -27 0 -22 23 -34 78
-41 52 -6 87 -28 112 -70 31 -50 23 -66 -11 -24 -38 46 -56 56 -126 67 -77 13
-102 49 -67 98 19 28 68 27 70 -1z m-236 -82 c215 -78 369 -238 441 -460 19
-57 23 -93 23 -190 1 -135 -11 -196 -59 -300 -93 -202 -278 -351 -492 -395
-86 -18 -246 -14 -324 9 -325 94 -538 390 -515 713 8 119 21 167 71 273 81
168 231 299 408 354 90 29 99 30 242 27 112 -3 140 -7 205 -31z m-912 -29 c20
-22 42 -78 42 -105 0 -9 -11 6 -24 32 -37 75 -76 96 -110 58 -10 -11 -16 -30
-14 -43 2 -18 9 -23 31 -23 23 1 25 -1 13 -13 -19 -19 -43 -9 -57 22 -35 75
63 135 119 72z m1477 1 c31 -45 1 -117 -43 -103 -31 10 -27 22 6 21 21 0 28 5
30 23 4 27 -23 62 -47 62 -31 -1 -66 -41 -87 -97 -16 -47 -19 -11 -3 38 28 82
105 112 144 56z m-245 -72 c20 -22 14 -20 -25 10 -63 47 -67 51 -30 32 17 -8
41 -27 55 -42z m-1040 42 c0 -2 -19 -18 -42 -36 l-43 -33 37 36 c34 33 48 42
48 33z m-247 -14 c9 -9 -13 -34 -24 -27 -14 8 -11 34 4 34 8 0 17 -3 20 -7z
m1510 0 c4 -3 2 -12 -4 -20 -9 -10 -15 -10 -25 -2 -8 6 -11 15 -8 20 6 11 28
12 37 2z m-1447 -127 c59 -59 51 -83 -79 -232 -82 -94 -101 -129 -117 -212
-20 -98 5 -189 73 -276 31 -39 31 -39 5 -22 -32 21 -67 65 -99 126 -20 38 -24
59 -24 135 0 81 3 96 32 156 22 45 61 96 118 155 84 88 96 114 72 145 -46 60
-139 39 -105 -24 10 -20 10 -21 -5 -8 -23 18 -21 40 5 68 33 35 82 31 124 -11z
m1471 12 c27 -25 29 -50 6 -69 -15 -13 -15 -12 -5 8 34 63 -59 84 -105 24 -24
-31 -12 -54 72 -144 56 -59 97 -113 118 -156 29 -60 32 -74 32 -156 -1 -74 -5
-98 -24 -135 -35 -66 -58 -96 -94 -122 l-32 -23 28 34 c66 79 97 192 78 281
-18 83 -43 131 -112 209 -136 154 -144 178 -85 237 41 41 87 46 123 12z
m-1541 -29 c3 -6 0 -17 -7 -25 -18 -17 -44 -2 -36 20 7 18 33 21 43 5z m1532
-12 c2 -11 -3 -17 -17 -17 -23 0 -35 15 -26 31 10 15 39 6 43 -14z m-1700
-109 c20 -20 13 -76 -18 -149 -50 -114 -58 -212 -25 -314 4 -13 1 -11 -8 5
-18 30 -38 120 -33 146 2 11 7 39 11 64 4 25 23 76 42 113 36 73 40 113 11
131 -14 8 -24 7 -40 -3 -21 -13 -22 -13 -9 2 16 20 52 22 69 5z m1896 -10 c9
-12 16 -27 16 -33 -1 -5 -8 2 -16 18 -24 44 -74 30 -74 -20 0 -13 15 -54 34
-91 18 -37 37 -87 41 -112 4 -25 9 -52 10 -60 5 -29 -16 -124 -36 -160 -11
-19 -17 -26 -13 -15 41 118 38 212 -12 327 -35 79 -43 135 -22 156 19 19 55
14 72 -10z m-1751 -199 c-12 -32 -17 -77 -17 -162 -1 -114 -2 -117 -14 -75
-18 60 -10 183 17 243 26 59 37 54 14 -6z m1549 5 c26 -60 34 -182 15 -249
l-14 -50 5 95 c4 88 -7 164 -33 233 -15 38 8 14 27 -29z m-1483 -473 c21 -11
51 -37 66 -58 82 -109 203 -217 300 -267 39 -20 43 -25 20 -20 -101 21 -236
111 -325 218 -35 41 -73 79 -85 86 -57 31 -109 -18 -110 -102 0 -46 3 -54 28
-67 24 -14 30 -14 55 -1 21 13 27 23 27 50 0 30 -4 36 -30 42 -29 6 -29 6 5 5
27 -2 38 -8 48 -29 38 -81 -99 -142 -154 -70 -8 9 -11 23 -9 30 2 6 0 12 -5
12 -17 0 -11 84 8 120 19 35 71 70 105 70 10 0 35 -9 56 -19z m1510 1 c19 -9
43 -33 53 -52 19 -37 24 -115 8 -125 -6 -4 -8 -9 -6 -13 7 -12 -19 -41 -47
-51 -19 -8 -38 -7 -64 2 -78 25 -80 120 -3 123 27 1 28 1 7 -3 -33 -5 -48 -30
-36 -61 12 -32 52 -48 84 -34 67 31 26 182 -50 182 -27 0 -53 -22 -129 -113
-75 -90 -217 -181 -311 -201 -20 -4 -8 6 37 30 75 40 202 154 268 239 43 56
97 94 135 95 11 0 35 -8 54 -18z m-1549 -162 c0 -24 -26 -38 -42 -22 -16 16
-2 42 22 42 13 0 20 -7 20 -20z m1525 -5 c0 -30 -39 -27 -43 3 -3 20 0 23 20
20 15 -2 23 -10 23 -23z m-1357 -163 c2 -7 -2 -10 -12 -6 -30 12 -66 -5 -66
-30 0 -46 33 -61 134 -59 54 0 123 9 170 21 90 24 89 17 -4 -21 -130 -53 -207
-58 -286 -21 -74 35 -55 139 25 132 19 -2 36 -9 39 -16z m1242 -14 c16 -27 17
-35 6 -62 -10 -25 -23 -34 -71 -50 -51 -17 -67 -18 -124 -8 -57 10 -190 58
-207 75 -3 3 30 -4 73 -15 46 -12 115 -21 169 -21 78 -2 95 1 113 17 32 29 25
70 -12 74 -16 2 -35 -3 -44 -10 -15 -12 -15 -11 -4 10 9 16 21 22 46 22 29 0
39 -6 55 -32z m-1080 -42 c0 -2 -11 -6 -25 -8 -13 -3 -22 -1 -19 3 5 9 44 13
44 5z m853 -3 c-7 -2 -19 -2 -25 0 -7 3 -2 5 12 5 14 0 19 -2 13 -5z m-920
-10 c-7 -2 -19 -2 -25 0 -7 3 -2 5 12 5 14 0 19 -2 13 -5z m980 0 c-7 -2 -21
-2 -30 0 -10 3 -4 5 12 5 17 0 24 -2 18 -5z m-546 -28 c2 -6 -3 -20 -11 -30
-14 -19 -16 -19 -32 -3 -22 22 -11 50 18 46 12 -2 23 -8 25 -13z m141 -9 c4
-17 -12 -35 -30 -36 -12 0 -29 40 -23 51 11 16 49 6 53 -15z m-366 -37 c-20
-37 -81 -75 -105 -66 -22 8 -22 51 1 68 14 11 15 11 5 -1 -7 -8 -13 -22 -13
-32 0 -32 43 -21 85 22 21 22 40 40 42 40 1 0 -5 -14 -15 -31z m626 -49 c25 0
30 27 10 50 -11 12 -10 12 5 1 22 -17 22 -60 0 -68 -24 -9 -85 29 -106 68
l-19 34 44 -42 c25 -25 53 -43 66 -43z"/>
<path d="M1293 1924 c-15 -24 -15 -29 -2 -53 11 -20 22 -26 49 -26 27 0 38 6
49 26 13 24 13 29 -2 53 -12 18 -26 26 -47 26 -21 0 -35 -8 -47 -26z"/>
<path d="M1235 1690 c-207 -34 -392 -172 -489 -366 -143 -286 -48 -651 215
-830 255 -173 571 -158 810 39 80 66 162 189 198 297 21 64 25 93 25 205 1
100 -3 143 -17 185 -74 222 -229 378 -446 449 -72 24 -219 34 -296 21z m-195
-399 c0 -5 -6 -14 -14 -20 -23 -19 4 -106 84 -270 l37 -75 42 120 c23 65 45
140 48 166 5 40 3 48 -16 60 -11 7 -21 16 -21 20 0 5 81 8 180 8 99 0 180 -3
180 -6 0 -3 -10 -14 -22 -24 -22 -18 -23 -25 -26 -211 -3 -194 3 -241 34 -253
8 -3 14 -10 14 -16 0 -6 -41 -10 -110 -10 -60 0 -110 3 -110 6 0 3 11 19 25
36 25 29 25 32 25 209 0 136 -4 188 -15 215 -34 81 -80 12 -185 -276 -53 -145
-78 -200 -88 -198 -8 2 -39 57 -69 123 -114 249 -161 341 -187 364 -14 14 -26
28 -26 33 0 4 50 8 110 8 61 0 110 -4 110 -9z m770 -1 c0 -5 -8 -10 -17 -10
-19 0 -183 -165 -183 -184 0 -13 102 -167 146 -220 14 -17 44 -46 66 -63 l41
-33 -65 0 c-108 0 -120 8 -204 136 l-75 114 59 72 c96 119 121 157 115 178 -5
18 0 20 56 20 34 0 61 -4 61 -10z"/>
</g>
</svg>
