<svg width="22" height="16" viewBox="0 0 22 16" fill="none" xmlns="http://www.w3.org/2000/svg">
<path d="M0.21846 5.63869C-0.0570329 5.38445 -0.0742989 4.95505 0.17994 4.67956C1.5272 3.21954 3.12581 2.06946 4.9314 1.26127C6.80122 0.424354 8.79594 0 10.8602 0C12.9245 0 14.9192 0.424354 16.789 1.26127C18.5946 2.06946 20.1932 3.21954 21.5405 4.67956C21.7947 4.95505 21.7774 5.38449 21.5019 5.63869C21.3715 5.75909 21.2064 5.81861 21.0418 5.81861C20.8589 5.81861 20.6766 5.74517 20.5428 5.60017C18.0548 2.90392 14.5256 1.35752 10.8602 1.35752C7.19482 1.35752 3.66564 2.90392 1.17764 5.60017C0.923397 5.87566 0.493952 5.89289 0.21846 5.63869ZM17.4526 8.67272C17.7017 8.95288 18.1307 8.97803 18.4109 8.72893C18.691 8.47982 18.7162 8.0508 18.4671 7.77068C16.536 5.5989 13.7634 4.35337 10.8602 4.35337C7.95703 4.35337 5.18446 5.59894 3.25338 7.77068C3.00427 8.05084 3.02943 8.47986 3.30959 8.72897C3.43893 8.84394 3.59993 8.90048 3.76037 8.90048C3.94745 8.90048 4.13377 8.82357 4.26787 8.67276C5.94157 6.79047 8.34439 5.71094 10.8602 5.71094C13.3761 5.71089 15.7789 6.79042 17.4526 8.67272ZM14.3429 11.7349C14.477 11.9017 14.6737 11.9884 14.8723 11.9884C15.0215 11.9884 15.1718 11.9394 15.2971 11.8387C15.5893 11.6038 15.6358 11.1766 15.4009 10.8844C14.2886 9.50043 12.6335 8.7067 10.8602 8.7067C9.08691 8.7067 7.43192 9.50043 6.31947 10.8844C6.08462 11.1765 6.13107 11.6038 6.42328 11.8387C6.71549 12.0736 7.14273 12.027 7.37758 11.7349C8.231 10.6732 9.50037 10.0643 10.8602 10.0643C12.2201 10.0642 13.4895 10.6732 14.3429 11.7349ZM10.8602 13.0601C11.6708 13.0601 12.3302 13.7195 12.3302 14.5301C12.3302 15.3406 11.6708 16 10.8602 16C10.0497 16 9.39024 15.3406 9.39024 14.5301C9.39024 13.7195 10.0497 13.0601 10.8602 13.0601ZM10.8602 14.4176C10.7993 14.4176 10.7478 14.4691 10.7478 14.5301C10.7478 14.591 10.7993 14.6425 10.8602 14.6425C10.9212 14.6425 10.9727 14.591 10.9727 14.5301C10.9726 14.4691 10.9212 14.4176 10.8602 14.4176Z" fill="#97144D"/>
</svg>
