<svg width="40" height="40" viewBox="0 0 40 40" fill="none" xmlns="http://www.w3.org/2000/svg">
<circle cx="20" cy="20" r="20" fill="#97144D" fill-opacity="0.08"/>
<path d="M9.21846 17.6387C8.94297 17.3845 8.9257 16.9551 9.17994 16.6796C10.5272 15.2195 12.1258 14.0695 13.9314 13.2613C15.8012 12.4244 17.7959 12 19.8602 12C21.9245 12 23.9192 12.4244 25.789 13.2613C27.5946 14.0695 29.1932 15.2195 30.5405 16.6796C30.7947 16.9551 30.7774 17.3845 30.5019 17.6387C30.3715 17.7591 30.2064 17.8186 30.0418 17.8186C29.8589 17.8186 29.6766 17.7452 29.5428 17.6002C27.0548 14.9039 23.5256 13.3575 19.8602 13.3575C16.1948 13.3575 12.6656 14.9039 10.1776 17.6002C9.9234 17.8757 9.49395 17.8929 9.21846 17.6387ZM26.4526 20.6727C26.7017 20.9529 27.1307 20.978 27.4109 20.7289C27.691 20.4798 27.7162 20.0508 27.4671 19.7707C25.536 17.5989 22.7634 16.3534 19.8602 16.3534C16.957 16.3534 14.1845 17.5989 12.2534 19.7707C12.0043 20.0508 12.0294 20.4799 12.3096 20.729C12.4389 20.8439 12.5999 20.9005 12.7604 20.9005C12.9475 20.9005 13.1338 20.8236 13.2679 20.6728C14.9416 18.7905 17.3444 17.7109 19.8602 17.7109C22.3761 17.7109 24.7789 18.7904 26.4526 20.6727ZM23.3429 23.7349C23.477 23.9017 23.6737 23.9884 23.8723 23.9884C24.0215 23.9884 24.1718 23.9394 24.2971 23.8387C24.5893 23.6038 24.6358 23.1766 24.4009 22.8844C23.2886 21.5004 21.6335 20.7067 19.8602 20.7067C18.0869 20.7067 16.4319 21.5004 15.3195 22.8844C15.0846 23.1765 15.1311 23.6038 15.4233 23.8387C15.7155 24.0736 16.1427 24.027 16.3776 23.7349C17.231 22.6732 18.5004 22.0643 19.8602 22.0643C21.2201 22.0642 22.4895 22.6732 23.3429 23.7349ZM19.8602 25.0601C20.6708 25.0601 21.3302 25.7195 21.3302 26.5301C21.3302 27.3406 20.6708 28 19.8602 28C19.0497 28 18.3902 27.3406 18.3902 26.5301C18.3902 25.7195 19.0497 25.0601 19.8602 25.0601ZM19.8602 26.4176C19.7993 26.4176 19.7478 26.4691 19.7478 26.5301C19.7478 26.591 19.7993 26.6425 19.8602 26.6425C19.9212 26.6425 19.9727 26.591 19.9727 26.5301C19.9726 26.4691 19.9212 26.4176 19.8602 26.4176Z" fill="#97144D"/>
</svg>
